<?xml version="1.0" encoding="utf-8"?>
<!-- Generator: Adobe Illustrator 16.0.0, SVG Export Plug-In . SVG Version: 6.00 Build 0)  -->
<!DOCTYPE svg PUBLIC "-//W3C//DTD SVG 1.1//EN" "http://www.w3.org/Graphics/SVG/1.1/DTD/svg11.dtd">
<svg version="1.1" id="Layer_1" xmlns="http://www.w3.org/2000/svg" xmlns:xlink="http://www.w3.org/1999/xlink" x="0px" y="0px"
	 width="1899.19px" height="1899.19px" viewBox="-150.4 -150.4 1899.19 1899.19"
	 enable-background="new -150.4 -150.4 1899.19 1899.19" xml:space="preserve">
<g id="Layer_2">
</g>
<path fill="#F2F2F2" d="M-254.786-250.787v2118.211h2211.222V-250.787H-254.786z M1350.996,1485.312L1350.996,1485.312
	c-0.001,64.891-52.794,117.684-117.688,117.684H412.693c-64.895,0-117.688-52.793-117.688-117.684V725.119
	c0-114.426,35.85-222.902,103.731-314.315v-95.993c0-64.891,52.793-117.684,117.685-117.684h141.316
	C677.223,95.761,763.396,3,823.02,3s145.802,92.762,165.281,194.13h141.312c64.891,0,117.688,52.793,117.688,117.685l-0.021,96.007
	c67.878,91.409,103.718,199.88,103.718,314.302L1350.996,1485.312L1350.996,1485.312z"/>
<path display="none" fill="#2F2F2F" d="M1224.275,407.821l0.021-96.007c0-64.892-52.797-117.685-117.688-117.685H965.298
	C945.816,92.762,859.641,0,800.018,0S654.221,92.762,634.739,194.126H493.423c-64.892,0-117.685,52.793-117.685,117.684v95.993
	c-67.885,91.413-103.731,199.893-103.731,314.315v760.192c0,64.892,52.793,117.685,117.688,117.685h820.614
	c64.895,0,117.688-52.793,117.688-117.685V722.123C1327.993,607.701,1292.153,499.23,1224.275,407.821z"/>
<g>
	<path fill="#2F2F2F" d="M1217.961,1113.419H957.048c-14.256,0-25.807,11.555-25.807,25.807v85.715v221.254
		c0,14.252,11.551,25.807,25.807,25.807c14.255,0,25.806-11.555,25.806-25.807v-105.32c27.727,25.049,64.437,40.33,104.65,40.33
		s76.928-15.281,104.65-40.33v105.316c0,14.254,11.551,25.807,25.807,25.807s25.807-11.553,25.807-25.807v-221.256v-85.713
		C1243.768,1124.974,1232.217,1113.419,1217.961,1113.419z M1192.155,1224.937L1192.155,1224.937
		c-0.001,57.707-46.948,104.654-104.651,104.654s-104.65-46.947-104.65-104.654v-59.902h209.304L1192.155,1224.937
		L1192.155,1224.937z"/>
	<path fill="#2F2F2F" d="M690.32,1113.419H429.407c-14.256,0-25.81,11.555-25.81,25.807v85.715v221.254
		c0,14.252,11.554,25.807,25.81,25.807c14.255,0,25.806-11.555,25.806-25.807v-105.32c27.724,25.049,64.434,40.33,104.65,40.33
		c40.216,0,76.928-15.281,104.647-40.33v105.316c0,14.254,11.554,25.807,25.81,25.807s25.807-11.553,25.807-25.807v-221.256v-85.713
		C716.127,1124.974,704.576,1113.419,690.32,1113.419z M664.515,1224.937L664.515,1224.937
		c-0.001,57.707-46.948,104.654-104.648,104.654c-57.703,0-104.65-46.947-104.65-104.654v-59.902h209.301L664.515,1224.937
		L664.515,1224.937z"/>
	<path fill="#2F2F2F" d="M1247.278,408.822l0.021-96.007c0-64.892-52.797-117.685-117.688-117.685H988.301
		C968.819,93.761,882.643,1,823.02,1S677.223,93.761,657.74,195.126H516.424c-64.892,0-117.685,52.793-117.685,117.684v95.993
		c-67.884,91.413-103.731,199.892-103.731,314.315v760.193c0,64.891,52.793,117.684,117.688,117.684h820.615
		c64.894,0,117.687-52.793,117.687-117.684h0.001V723.124C1350.996,608.702,1315.156,500.23,1247.278,408.822z M898.718,115.598
		c15.896,22.559,29.724,49.831,36.88,79.532h-36.88V115.598z M798.934,62.635c9.624-6.462,18.067-10.021,24.086-10.021
		c6.021,0,14.463,3.558,24.086,10.02v132.494h-48.172V62.635z M747.32,115.598v79.529h-36.876
		C717.602,165.427,731.427,138.156,747.32,115.598z M450.35,312.813h0.004c0-36.432,29.643-66.072,66.071-66.072h449.421
		c0.012,0,0.024,0,0.035,0c0.014,0,0.027,0,0.041,0h163.688c36.435,0,66.072,29.64,66.072,66.068l-0.032,169.91
		c0,173.839-119.659,320.244-280.936,361.211v-95.979c0-14.253-11.551-25.81-25.806-25.81c-14.256,0-25.81,11.557-25.81,25.81
		v105.256c-13.179,1.417-26.557,2.164-40.104,2.164s-26.925-0.747-40.104-2.164V747.949c0-14.253-11.552-25.81-25.808-25.81
		c-14.255,0-25.806,11.557-25.806,25.81v95.979c-161.271-40.97-280.933-187.374-280.933-361.21V312.813H450.35z M782.898,958.591
		V905.07c13.205,1.245,26.574,1.908,40.104,1.908s26.896-0.663,40.104-1.908v53.521L782.898,958.591L782.898,958.591z
		 M863.105,1010.204v15.832c0,22.113-17.989,40.102-40.104,40.102s-40.104-17.988-40.104-40.102v-15.832H863.105L863.105,1010.204z
		 M1299.382,1483.313c0,36.434-29.64,66.07-66.071,66.07H412.693c-36.435,0-66.071-29.639-66.071-66.07V723.123
		c0-77.12,18.054-151.232,52.7-218.175c9.985,192.554,148.969,351.525,331.964,392.014v61.63h-4.288
		c-14.255,0-25.807,11.557-25.807,25.808c0,14.252,11.552,25.807,25.807,25.807h4.288v15.832c0,50.574,41.142,91.717,91.716,91.717
		s91.716-41.146,91.716-91.717v-15.832h4.288c14.255,0,25.807-11.555,25.807-25.807c0-14.251-11.552-25.808-25.807-25.808h-4.288
		v-61.63c182.999-40.487,321.979-199.463,331.964-392.014c34.646,66.938,52.7,141.055,52.7,218.175V1483.313L1299.382,1483.313z"/>
</g>
<rect x="-254.786" y="-252.787" fill="none" stroke="#2F2F2F" stroke-width="14" stroke-miterlimit="10" width="2211.222" height="2118.211"/>
<rect x="-277.788" y="-253.786" display="none" fill="none" stroke="#2F2F2F" stroke-width="14" stroke-miterlimit="10" width="2211.222" height="2118.212"/>
<path display="none" fill="none" stroke="#2F2F2F" stroke-width="14" stroke-miterlimit="10" d="M1327.993,1482.312
	c0,64.891-52.793,117.684-117.685,117.684H389.691c-64.895,0-117.688-52.793-117.688-117.684V722.119
	c0-114.426,35.85-222.902,103.731-314.315v-95.993c0-64.891,52.793-117.684,117.685-117.684h141.316
	C654.221,92.762,740.395,0,800.018,0s145.802,92.762,165.281,194.13h141.312c64.891,0,117.688,52.793,117.688,117.685l-0.021,96.007
	c67.878,91.409,103.718,199.88,103.718,314.302L1327.993,1482.312L1327.993,1482.312z"/>
</svg>
