<?xml version="1.0" encoding="utf-8"?>
<!-- Generator: Adobe Illustrator 16.0.0, SVG Export Plug-In . SVG Version: 6.00 Build 0)  -->
<!DOCTYPE svg PUBLIC "-//W3C//DTD SVG 1.1//EN" "http://www.w3.org/Graphics/SVG/1.1/DTD/svg11.dtd">
<svg version="1.1" id="Layer_1" xmlns="http://www.w3.org/2000/svg" xmlns:xlink="http://www.w3.org/1999/xlink" x="0px" y="0px"
	 width="2000px" height="2000px" viewBox="0 0 2000 2000" enable-background="new 0 0 2000 2000" xml:space="preserve">
<g id="Layer_2">
</g>
<g id="Capa_1">
	<path fill="#F2F2F2" stroke="#2F2F2F" stroke-width="20" stroke-miterlimit="10" d="M-152.114-104.11V2104.11h2304.229V-104.11
		H-152.114z M1786.417,936.999l-231.054,483.112c-28.262,59.094-88.849,97.276-154.354,97.276H424.139
		c-77.392,0-145.378-52.229-165.318-127.014l-69.358-260.091c-1.853-6.941-0.373-14.348,4.004-20.045
		c4.375-5.695,11.151-9.034,18.334-9.034h346.821V803.709c0-39.948,32.499-72.447,72.446-72.447h248.169v-52.408H779.046
		c-26.351,0-47.784-21.436-47.784-47.784v-49.326c0-26.349,21.436-47.784,47.784-47.784h100.192v-50.867
		c0-12.769,10.353-23.121,23.12-23.121c12.771,0,23.122,10.352,23.122,23.121v50.867h100.192c26.35,0,47.784,21.435,47.784,47.784
		v49.326c0,26.35-21.436,47.784-47.784,47.784H925.481v52.408h150.106c54.193,0,101.064,34.876,116.637,86.779l43.266,144.216
		c53.463-37.913,117.191-58.355,184.064-58.355h346.004c7.938,0,15.324,4.072,19.561,10.793
		C1789.352,921.415,1789.845,929.834,1786.417,936.999z"/>
	<path fill="none" stroke="#2F2F2F" stroke-width="20" stroke-miterlimit="10" d="M581.742,1224.518
		c-39.946,0-72.446,32.5-72.446,72.447s32.5,72.447,72.446,72.447c39.948,0,72.447-32.5,72.447-72.447
		S621.69,1224.518,581.742,1224.518z"/>
	<path fill="none" stroke="#2F2F2F" stroke-width="20" stroke-miterlimit="10" d="M1025.674,1224.518
		c-39.947,0-72.447,32.5-72.447,72.447s32.5,72.447,72.447,72.447s72.447-32.5,72.447-72.447S1065.621,1224.518,1025.674,1224.518z"
		/>
	<path fill="none" stroke="#2F2F2F" stroke-width="20" stroke-miterlimit="10" d="M803.709,1224.518
		c-39.948,0-72.447,32.5-72.447,72.447s32.499,72.447,72.447,72.447c39.947,0,72.445-32.5,72.445-72.447
		S843.656,1224.518,803.709,1224.518z"/>
	<path fill="#2F2F2F" d="M1785.119,914.694c-4.236-6.721-11.623-10.793-19.562-10.793h-346.004
		c-66.873,0-130.604,20.442-184.064,58.355l-43.266-144.216c-15.571-51.903-62.443-86.779-116.637-86.779H925.481v-52.408h100.192
		c26.35,0,47.784-21.436,47.784-47.784v-49.326c0-26.349-21.436-47.784-47.784-47.784H925.481v-50.867
		c0-12.769-10.353-23.121-23.122-23.121c-12.769,0-23.121,10.352-23.121,23.121v50.867H779.046
		c-26.351,0-47.784,21.435-47.784,47.784v49.326c0,26.35,21.436,47.784,47.784,47.784h100.192v52.408H631.069
		c-39.947,0-72.446,32.499-72.446,72.447v297.495H211.802c-7.183,0-13.959,3.339-18.334,9.034
		c-4.377,5.697-5.857,13.104-4.004,20.045l69.358,260.092c19.94,74.783,87.926,127.014,165.318,127.014h976.872
		c65.505,0,126.092-38.184,154.354-97.276L1786.419,937C1789.845,929.834,1789.352,921.415,1785.119,914.694z M1191.901,977.89H1075
		c-41.646,0-75.53-33.884-75.53-75.53v-24.662c0-0.852,0.69-1.541,1.541-1.541h160.37L1191.901,977.89z M779.046,632.61
		c-0.852,0-1.542-0.689-1.542-1.541v-49.326c0-0.851,0.69-1.542,1.542-1.542h246.628c0.851,0,1.541,0.691,1.541,1.542v49.326
		c0,0.852-0.69,1.541-1.541,1.541H779.046z M604.864,876.155h101.734V977.89H604.864V876.155z M604.864,1024.133h248.171
		c26.349,0,47.783-21.437,47.783-47.784v-98.651c0-26.35-21.436-47.783-47.783-47.783H604.864V803.71
		c0-14.449,11.756-26.205,26.205-26.205h444.52c33.116,0,61.827,21.001,71.903,52.409h-146.481
		c-26.349,0-47.784,21.435-47.784,47.783v24.662c0,67.146,54.629,121.773,121.773,121.773h92.158l-77.071,77.071H604.864V1024.133z
		 M752.842,977.89V876.155h100.191c0.852,0,1.543,0.69,1.543,1.542v98.651c0,0.851-0.691,1.541-1.543,1.541H752.842z
		 M1513.646,1400.16c-20.625,43.123-64.836,70.985-112.636,70.985H424.139c-56.478,0-106.087-38.113-120.641-92.687l-61.602-231.013
		h857.767c6.132,0,12.014-2.436,16.349-6.771l110.619-110.619c51.532-51.53,120.049-79.91,192.925-79.91h309.317L1513.646,1400.16z"
		/>
	<path fill="#2F2F2F" d="M1435.533,1388.43c3.219,1.539,6.615,2.27,9.957,2.27c8.627,0,16.903-4.85,20.875-13.15l98.087-205.09
		c5.51-11.521,0.639-25.326-10.882-30.835c-11.519-5.506-25.326-0.64-30.836,10.883l-98.087,205.09
		C1419.139,1369.117,1424.012,1382.921,1435.533,1388.43z"/>
	<path fill="#2F2F2F" d="M1575.457,1095.861c3.219,1.538,6.615,2.27,9.958,2.27c8.626,0,16.902-4.85,20.874-13.151l23.59-49.325
		c5.509-11.521,0.639-25.325-10.883-30.835c-11.519-5.509-25.325-0.638-30.834,10.884l-23.591,49.324
		C1559.066,1076.544,1563.937,1090.353,1575.457,1095.861z"/>
</g>
</svg>
