<?xml version="1.0" encoding="utf-8"?>
<!-- Generator: Adobe Illustrator 16.0.0, SVG Export Plug-In . SVG Version: 6.00 Build 0)  -->
<!DOCTYPE svg PUBLIC "-//W3C//DTD SVG 1.1//EN" "http://www.w3.org/Graphics/SVG/1.1/DTD/svg11.dtd">
<svg version="1.1" xmlns="http://www.w3.org/2000/svg" xmlns:xlink="http://www.w3.org/1999/xlink" x="0px" y="0px" width="2000px"
	 height="2000px" viewBox="-200 -200 2000 2000" enable-background="new -200 -200 2000 2000" xml:space="preserve">
<g id="Capa_1">
	<path fill="#2F2F2F" d="M1557.032,1087.647l-37.729-265.077c-1.061-30.066-11.494-59.833-30.722-86.52
		c-34.64-48.084-93.599-81.884-155.597-89.708l-15.529-110.061c-8.729-61.891-66.302-112.238-128.343-112.238h-39.602
		c-62.034,0-119.61,50.351-128.347,112.238l-14.535,103.06l-14.542-103.063c-8.733-61.887-66.31-112.234-128.351-112.234h-39.602
		c-62.034,0-119.61,50.351-128.348,112.234l-15.283,108.343h-91.877l-3.572-421.902c-0.192-22.663-4.728-60.516-4.85-61.383
		L561.09,27.054c-2.453-17.218-18.397-29.188-35.616-26.739s-29.188,18.398-26.739,35.616l4.115,28.909
		c-11.043-3.226-23.73-5.122-38.294-5.122h-5.714c-62.628-0.137-91.124-0.032-144.516,27.488
		c-57.247,29.493-102.832,41.803-160.545,57.384c-12.554,3.391-25.644,6.924-39.497,10.805
		c-27.292,7.642-49.07,27.012-61.327,54.549c-7.523,16.904-10.91,35.878-10.217,54.752c-0.084,0.944,0.199,8.083,0.812,10.542
		c1.669,14.115,5.641,27.943,11.9,40.564l20.301,40.924c2.323,4.72,5.21,9.223,8.576,13.383c5.98,7.387,14.976,11.68,24.479,11.68
		h108.151c-0.354,23.213-1.029,51.568-1.774,82.734c-3.807,159.019-6.078,297.856,3.744,371.224l-39.788,52.205
		c-10.542,13.831-7.873,33.594,5.959,44.133c13.835,10.549,33.597,7.88,44.133-5.959l7.631-10.007l8.006,32.803l-38.79,50.9
		c-10.542,13.831-7.873,33.594,5.959,44.133c13.832,10.55,33.597,7.88,44.133-5.959l7.911-10.382l8.926,36.547l-38.79,50.9
		c-10.542,13.832-7.873,33.594,5.958,44.133c13.842,10.55,33.601,7.873,44.133-5.959l7.911-10.378l8.408,34.444l-38.797,50.9
		c-10.542,13.835-7.876,33.594,5.955,44.136c13.835,10.546,33.594,7.877,44.136-5.955l7.915-10.389l45.603,186.78l-82.667,106.408
		c-7.376,9.497-8.702,22.366-3.418,33.164c5.287,10.802,16.26,17.648,28.286,17.648h407.091c11.484,0,22.059-6.252,27.594-16.315
		c5.535-10.06,5.154-22.341-0.997-32.037l-67.573-106.572l8.111-33.224l7.922,10.393c10.542,13.832,30.301,16.508,44.133,5.959
		c13.835-10.543,16.501-30.302,5.959-44.133l-38.801-50.911l6.298-25.791l7.915,10.385c10.535,13.832,30.291,16.505,44.133,5.959
		c13.832-10.542,16.501-30.298,5.959-44.133l-38.79-50.907l6.256-25.623c40.312,8.107,85.062,12.52,132.49,12.52
		c50.519,0,97.976-5,140.292-14.146l6.978,28.573l-39.977,52.439c-10.542,13.831-7.876,33.594,5.956,44.136
		c13.835,10.539,33.594,7.877,44.136-5.955l9.095-11.932l6.298,25.795l-41.922,55.012c-10.542,13.831-7.872,33.594,5.959,44.133
		c13.835,10.546,33.598,7.88,44.133-5.959l11.043-14.493l7.729,31.663l-81.075,104.357c-7.376,9.496-8.702,22.365-3.419,33.164
		c5.287,10.801,16.26,17.648,28.286,17.648h407.088c11.54,0,22.152-6.312,27.667-16.448c5.511-10.134,5.035-22.478-1.239-32.16
		l-69.318-107.023l7.407-30.347l10.399,13.639c10.539,13.832,30.298,16.505,44.133,5.959c13.835-10.543,16.501-30.302,5.959-44.133
		l-41.278-54.161l6.299-25.795l8.442,11.078c10.543,13.831,30.302,16.497,44.134,5.958c13.831-10.542,16.501-30.301,5.958-44.133
		l-39.321-51.6l55.97-229.23l13.51,94.921c2.453,17.223,18.419,29.214,35.616,26.739
		C1547.512,1120.812,1559.481,1104.866,1557.032,1087.647z M758.15,545.082c4.443-31.467,34.654-58.056,65.977-58.056h39.602
		c31.327,0,61.545,26.585,65.981,58.056l19.111,135.433c2.194,15.535,15.493,27.089,31.183,27.089h53.23
		c15.693,0,28.99-11.554,31.184-27.093l19.102-135.429c4.447-31.467,34.657-58.056,65.98-58.056h39.602
		c31.326,0,61.544,26.586,65.977,58.056l16.82,119.162c-52.614,54.696-154.838,89.55-264.899,89.55
		c-110.533,0-213.159-35.154-265.567-90.253L758.15,545.082z M1163.59,794.861l-156.584,183.754L850.422,794.861
		c47.902,14.199,101.195,21.915,156.584,21.915C1062.396,816.776,1115.686,809.061,1163.59,794.861z M486.302,1537.018H371.989
		l43.073-55.438h71.239V1537.018z M549.284,1537.018v-55.438h73.049l35.151,55.438H549.284z M1187.52,1537.018h-114.312
		l43.073-55.438h71.239V1537.018z M1250.502,1537.018v-55.438h71.628l35.907,55.438H1250.502z M1454.053,847.123l-139.533,571.475
		h-64.021v-192.844c0-17.394-14.097-31.491-31.49-31.491s-31.491,14.098-31.491,31.491v192.844h-64.021l-57.219-234.359
		c65.609-23.66,111.107-59.287,124.315-101.895c5.15-16.613-4.146-34.256-20.756-39.406c-16.613-5.161-34.259,4.146-39.405,20.756
		c-13.308,42.93-122.997,88.886-265.089,88.886c-142.091,0-251.781-45.96-265.084-88.882c-5.147-16.617-22.8-25.882-39.402-20.76
		c-16.613,5.15-25.906,22.793-20.76,39.402c13.709,44.228,62.198,80.932,131.867,104.536l-56.579,231.722h-66.11v-192.844
		c0-17.394-14.098-31.491-31.49-31.491c-17.395,0-31.491,14.098-31.491,31.491v192.844h-61.926l-58.871-241.127
		c-0.076-0.35-0.164-0.696-0.255-1.043l-27.352-112.041c-0.088-0.389-0.183-0.777-0.283-1.158l-27.912-114.319
		c-0.056-0.228-0.108-0.459-0.168-0.687c0,0-26.516-110.033-26.676-110.768c-11.963-68.272-7.628-249.482-4.713-371.419
		c1.141-47.636,2.124-88.777,2.043-115.828c-0.052-17.355-14.136-31.397-31.491-31.397H127.245l-9.8-19.759h38.496
		c17.394,0,31.491-14.097,31.491-31.491s-14.098-31.491-31.491-31.491h-45.669c0.074-0.171,0.147-0.343,0.221-0.511
		c4.619-10.382,11.606-16.946,20.77-19.507c13.656-3.828,26.561-7.309,38.937-10.651c58.898-15.903,109.767-29.64,172.98-62.205
		c39.802-20.518,55.799-20.571,115.639-20.49h5.738c31.005,0,56.733,7.565,57.517,100.551l3.842,453.128
		c0.147,17.285,14.206,31.225,31.491,31.225h135.923l289.717,339.984c5.983,7.022,14.745,11.067,23.972,11.067
		c9.228,0,17.988-4.045,23.972-11.067l289.141-339.309c46.239,4.37,92.149,29.587,117.363,64.584
		C1449.302,789.277,1461.775,815.488,1454.053,847.123z"/>
	<path fill="#2F2F2F" d="M411.161,222.988c0,17.394-14.098,31.491-31.491,31.491h-6.732c-17.394,0-31.49-14.097-31.49-31.491
		s14.097-31.491,31.49-31.491h6.732C397.06,191.497,411.161,205.595,411.161,222.988z"/>
</g>
<g id="Layer_3">
</g>
<g id="Layer_2">
	<path fill="#F2F2F2" d="M-376.798-337.794v2364.236h2364.236V-337.794H-376.798z M1530.279,1123.264
		c-17.197,2.475-33.163-9.517-35.616-26.739l-13.51-94.921l-55.97,229.23l39.321,51.6c10.543,13.832,7.873,33.591-5.958,44.133
		c-13.832,10.539-33.591,7.873-44.134-5.958l-8.442-11.078l-6.299,25.795l41.278,54.161c10.542,13.831,7.876,33.59-5.959,44.133
		c-13.835,10.546-33.594,7.873-44.133-5.959l-10.399-13.639l-7.407,30.347l69.318,107.023c6.274,9.683,6.75,22.026,1.239,32.16
		c-5.515,10.136-16.127,16.448-27.667,16.448h-407.088c-12.026,0-22.999-6.848-28.286-17.648
		c-5.283-10.799-3.957-23.668,3.419-33.164l81.075-104.357l-7.729-31.663l-11.043,14.493c-10.535,13.839-30.298,16.505-44.133,5.959
		c-13.831-10.539-16.501-30.302-5.959-44.133l41.922-55.012l-6.298-25.795l-9.095,11.932c-10.542,13.832-30.301,16.494-44.136,5.955
		c-13.832-10.542-16.498-30.305-5.956-44.136l39.977-52.439l-6.978-28.573c-42.316,9.146-89.773,14.146-140.292,14.146
		c-47.429,0-92.178-4.412-132.49-12.52l-6.256,25.623l38.79,50.907c10.542,13.835,7.873,33.591-5.959,44.133
		c-13.842,10.546-33.598,7.873-44.133-5.959l-7.915-10.385l-6.298,25.791l38.801,50.911c10.542,13.831,7.876,33.59-5.959,44.133
		c-13.832,10.549-33.591,7.873-44.133-5.959l-7.922-10.393l-8.111,33.224l67.573,106.572c6.151,9.696,6.532,21.978,0.997,32.037
		c-5.535,10.063-16.109,16.315-27.594,16.315H307.644c-12.026,0-22.999-6.847-28.286-17.648
		c-5.284-10.798-3.958-23.667,3.418-33.164l82.667-106.408l-45.603-186.78l-7.915,10.389c-10.542,13.832-30.301,16.501-44.136,5.955
		c-13.832-10.542-16.498-30.301-5.955-44.136l38.797-50.9l-8.408-34.444l-7.911,10.378c-10.532,13.832-30.291,16.509-44.133,5.959
		c-13.832-10.539-16.501-30.301-5.958-44.133l38.79-50.9l-8.926-36.547l-7.911,10.382c-10.536,13.839-30.301,16.509-44.133,5.959
		c-13.832-10.539-16.501-30.302-5.959-44.133l38.79-50.9l-8.006-32.803l-7.631,10.007c-10.536,13.839-30.298,16.508-44.133,5.959
		c-13.832-10.539-16.501-30.302-5.959-44.133l39.788-52.205c-9.822-73.367-7.551-212.205-3.744-371.224
		c0.745-31.166,1.42-59.521,1.774-82.734H108.809c-9.503,0-18.499-4.293-24.479-11.68c-3.366-4.16-6.252-8.663-8.576-13.383
		l-20.301-40.924c-6.26-12.621-10.231-26.449-11.9-40.564c-0.612-2.46-0.896-9.598-0.812-10.542
		c-0.693-18.874,2.694-37.849,10.217-54.752c12.257-27.537,34.035-46.908,61.327-54.549c13.853-3.881,26.942-7.415,39.497-10.805
		c57.713-15.581,103.298-27.891,160.545-57.384c53.392-27.52,81.888-27.625,144.516-27.488h5.714
		c14.563,0,27.251,1.896,38.294,5.122l-4.115-28.909c-2.449-17.218,9.521-33.167,26.739-35.616s33.163,9.521,35.616,26.739
		l19.115,134.281c0.122,0.868,4.657,38.72,4.85,61.383l3.572,421.902h91.877l15.283-108.343
		c8.737-61.884,66.313-112.234,128.348-112.234h39.602c62.041,0,119.617,50.348,128.351,112.234l14.542,103.063l14.535-103.06
		c8.736-61.888,66.312-112.238,128.347-112.238h39.602c62.041,0,119.613,50.348,128.343,112.238l15.529,110.061
		c61.998,7.824,120.957,41.624,155.597,89.708c19.228,26.687,29.661,56.453,30.722,86.52l37.729,265.077
		C1559.481,1104.866,1547.512,1120.812,1530.279,1123.264z"/>
</g>
</svg>
