<?xml version="1.0" encoding="utf-8"?>
<!-- Generator: Adobe Illustrator 16.0.0, SVG Export Plug-In . SVG Version: 6.00 Build 0)  -->
<!DOCTYPE svg PUBLIC "-//W3C//DTD SVG 1.1//EN" "http://www.w3.org/Graphics/SVG/1.1/DTD/svg11.dtd">
<svg version="1.1" id="Capa_1" xmlns="http://www.w3.org/2000/svg" xmlns:xlink="http://www.w3.org/1999/xlink" x="0px" y="0px"
	 width="2000px" height="2000px" viewBox="0 0 2000 2000" enable-background="new 0 0 2000 2000" xml:space="preserve">
<path d="M1053.342,872.004c0,8.514-6.856,15.4-15.4,15.4H798.91c-5.264,0-10.169-2.76-12.998-7.244
	c-2.859-4.516-3.119-10.14-0.78-14.88c11.275-23.198,31.712-63.389,41.492-71.739c32.557-20.697,97.829-30.51,195.658-30.51
	c5.327,0,10.657,0.065,16.049,0.165c8.317,0.195,14.978,7.051,14.978,15.399L1053.342,872.004L1053.342,872.004z"/>
<path d="M1084.176,872.004v-89.057c0-4.386,1.915-8.579,5.166-11.502c3.282-2.924,7.635-4.387,12.021-3.801
	c108.323,12.736,191.627,48.572,222.984,95.847c3.151,4.745,3.38,10.788,0.714,15.791c-2.631,5.003-7.895,8.123-13.581,8.123
	h-211.968C1091.097,887.403,1084.176,880.515,1084.176,872.004z"/>
<g>
	<path fill="#F2F2F2" stroke="#2F2F2F" stroke-width="24" stroke-miterlimit="10" d="M-32.784-32.784v2067.207h2067.207V-32.784
		H-32.784z M1682.578,1168.411h-30.247c0,16.993-13.811,30.77-30.802,30.77c-0.163,0-0.356,0-0.585,0h-103.709
		c-23.752,54.26-77.882,92.339-140.848,92.339c-62.967,0-117.098-38.079-140.849-92.339H648.636
		c-23.848,54.26-77.945,92.339-140.91,92.339c-62.963,0-117.061-38.079-140.844-92.339h-38.729
		c-15.692,0-28.916-11.893-30.541-27.488c-0.033-0.389-0.163-1.653-0.293-3.312h-15.367c-16.992,0-30.736-13.812-30.736-30.77
		c0-16.992,13.745-30.77,30.742-30.77h19.234c7.082-41.784,25.44-97.696,71.608-149.717
		c91.98-103.676,283.804-116.833,356.322-117.972c49.676-99.907,68.067-110.792,74.304-114.498
		c46.202-27.388,134.932-40.709,271.164-40.709c210.247,0,377.508,92.729,510.719,265.481c28.491,36.907,46.43,106.533,56.5,157.448
		h40.773c16.961,0,30.705,13.744,30.699,30.765C1713.282,1154.604,1699.538,1168.411,1682.578,1168.411z"/>
	<path fill="none" stroke="#2F2F2F" stroke-width="24" stroke-miterlimit="10" d="M507.729,1229.981
		c-50.88,0-92.304-41.393-92.304-92.34c0-50.946,41.391-92.37,92.304-92.37c50.946,0,92.402,41.426,92.402,92.37
		C600.133,1188.589,558.674,1229.981,507.729,1229.981z"/>
	<path fill="none" stroke="#2F2F2F" stroke-width="24" stroke-miterlimit="10" d="M1376.395,1229.981
		c-50.881,0-92.338-41.393-92.338-92.34c0-50.946,41.426-92.37,92.338-92.37s92.336,41.426,92.336,92.37
		C1468.73,1188.589,1427.275,1229.981,1376.395,1229.981z"/>
</g>
</svg>
