<?xml version="1.0" encoding="utf-8"?>
<!-- Generator: Adobe Illustrator 16.0.0, SVG Export Plug-In . SVG Version: 6.00 Build 0)  -->
<!DOCTYPE svg PUBLIC "-//W3C//DTD SVG 1.1//EN" "http://www.w3.org/Graphics/SVG/1.1/DTD/svg11.dtd">
<svg version="1.1" id="Layer_1" xmlns="http://www.w3.org/2000/svg" xmlns:xlink="http://www.w3.org/1999/xlink" x="0px" y="0px"
	 width="1600px" height="1600px" viewBox="0 0 1600 1600" enable-background="new 0 0 1600 1600" xml:space="preserve">
<g id="Layer_1_1_">
	<path fill="#2F2F2F" stroke="#2F2F2F" stroke-width="10.554" stroke-miterlimit="10" d="M1164.419,535.958
		c-1.923,1.676-3.367,2.819-4.681,4.098c-37.755,36.799-75.426,73.687-113.342,110.32c-4.251,4.107-5.968,8.107-5.96,13.989
		c0.166,107.801,0.122,215.602,0.12,323.402c0,2.345,0.119,4.699-0.099,7.025c-0.104,1.139-0.858,2.218-1.379,3.469
		c-0.823-0.646-1.372-0.854-1.494-1.209c-0.765-2.202-1.517-4.417-2.12-6.666c-16.321-60.819-38.347-119.479-66.892-175.629
		c-25.17-49.512-54.827-96.003-93.062-136.638c-0.741-0.789-1.283-1.766-1.877-2.596c9.513-7.469,19.163-14.183,27.829-21.988
		c71.884-64.758,103.286-145.223,93.115-241.663c-0.587-5.553-1.995-11.342-1.067-16.679c4.846-27.911,10.331-55.708,15.576-83.548
		c9.06-48.088,18.109-96.177,27.13-144.275c0.374-2.004,0.401-4.074,0.646-6.734c-1.716,0.226-2.41,0.283-3.091,0.413
		c-61.396,11.762-122.799,23.476-184.171,35.368c-6.398,1.24-12.003,0.885-18.192-1.802c-45.03-19.546-92.021-26.279-140.821-20.634
		c-27.685,3.203-54.188,10.568-79.576,21.953c-3.62,1.624-6.905,1.967-10.786,1.18c-16.291-3.298-32.646-6.279-48.974-9.396
		c-45.996-8.782-91.987-17.577-137.986-26.338c-1.471-0.28-3.002-0.239-5.02-0.384c3.098,16.518,6.076,32.372,9.043,48.228
		c11.588,61.907,23.188,123.812,34.705,185.733c0.458,2.455,0.481,5.113,0.1,7.582c-4.951,32.025-4.898,64.027,1.561,95.782
		c14.782,72.673,52.805,130.329,113.201,173.29c1.655,1.178,3.225,2.478,5.048,3.888c-1.062,1.272-1.756,2.199-2.547,3.032
		c-27.7,29.251-51.056,61.754-71.137,96.566c-54.648,94.733-90.963,196.009-107.323,304.262
		c-5.307,35.106-7.228,70.346-2.638,105.741c5.077,39.147,17.458,75.653,39.134,108.792c28.303,43.274,67.375,73.729,114.039,94.922
		c45.589,20.706,93.856,30.424,143.52,33.768c43.879,2.956,87.573,1.087,130.909-6.807c38.505-7.012,75.463-18.704,109.73-37.901
		c72.23-40.461,115.724-101.342,129.281-183.229c0.773-4.668,2.715-7.178,7.257-8.938c51.093-19.806,102.095-39.839,153.116-59.828
		c2.571-1.008,5.089-2.154,7.939-3.364c0-3.385,0-6.406,0-9.428c0-123.973,0.042-247.943-0.135-371.914
		c-0.008-5.925,1.732-10.002,5.952-14.041c19.471-18.627,38.665-37.542,57.942-56.372c1.474-1.438,2.825-3,4.596-4.891
		C1249.034,622.433,1206.816,579.287,1164.419,535.958z M1264.238,669.815c-17.095,16.707-34.119,33.486-51.403,49.997
		c-4.341,4.145-6.293,8.361-6.282,14.571c0.195,122.575,0.146,245.149,0.146,367.725c0,3.007-0.001,6.012-0.001,9.355
		c-55.369,21.702-110.263,43.217-165.436,64.841c-1.381,8.13-2.553,16.212-4.142,24.211
		c-15.134,76.152-58.379,131.023-126.699,166.729c-35.255,18.424-73.028,28.955-112.211,34.743
		c-37.459,5.532-75.108,6.833-112.864,4.125c-51.849-3.717-102.008-14.287-148.763-37.948
		c-43.268-21.894-78.354-52.731-102.602-95.155c-15.662-27.402-24.853-56.959-29.107-88.167c-4.306-31.6-3.182-63.121,1.188-94.574
		c15.273-109.973,51.805-212.606,107.444-308.488c22.794-39.284,49.699-75.539,82.879-106.849c0.666-0.627,1.18-1.415,2.257-2.729
		c-3.366-2.055-6.531-3.941-9.651-5.9c-58.77-36.914-97.683-88.649-115.648-155.78c-9.463-35.366-10.443-71.22-4.661-107.326
		c0.467-2.915,0.482-6.06-0.057-8.956c-12.921-69.518-25.949-139.018-38.943-208.523c-0.206-1.101-0.25-2.233-0.499-4.542
		c14.095,2.679,27.17,5.144,40.237,7.651c44.607,8.561,89.213,17.122,133.809,25.739c3.631,0.701,6.808,0.087,10.141-1.499
		c36.4-17.304,74.855-25.381,115.074-24.543c35.812,0.746,70.095,8.687,102.562,23.937c4.485,2.107,8.605,2.605,13.478,1.663
		c55.856-10.81,111.752-21.429,167.637-32.089c1.106-0.211,2.233-0.305,4.315-0.581c-0.444,3.175-0.708,5.87-1.207,8.521
		c-12.82,68.106-25.765,136.189-38.316,204.345c-1.021,5.538,0.355,11.594,1.045,17.358c9.794,81.831-13.783,152.718-69.873,212.869
		c-15.919,17.071-34.281,31.201-54.272,43.227c-2.001,1.206-3.965,2.482-5.905,3.785c-0.345,0.232-0.488,0.762-1.309,2.12
		c1.965,1.616,4.274,3.257,6.282,5.206c36.698,35.602,65.131,77.32,89.572,121.9c36.571,66.711,63.184,137.309,81.552,211.073
		c0.622,2.498,1.22,5.004,1.896,7.487c0.109,0.399,0.565,0.704,1.517,1.824c9.551-3.917,19.388-7.952,29.558-12.126
		c0-3.496,0-6.516,0-9.537c0-109.215,0.044-218.431-0.116-327.647c-0.011-6.108,1.748-10.349,6.189-14.625
		c32.41-31.208,64.547-62.699,96.774-94.096c1.165-1.136,2.396-2.208,4.227-3.893c34.625,35.375,69.122,70.622,103.953,106.208
		C1266.578,667.114,1265.512,668.571,1264.238,669.815z"/>
</g>
<g id="Layer_2">
	<path fill="#F2F2F2" d="M0,0v1600h1600V0H0z M1286.948,670.766c-19.279,18.83-38.474,37.745-57.944,56.373
		c-4.219,4.038-5.958,8.115-5.951,14.041c0.177,123.971,0.135,247.942,0.135,371.914c0,3.021,0,6.045,0,9.428
		c-2.852,1.211-5.369,2.356-7.94,3.364c-51.021,19.987-102.023,40.023-153.115,59.827c-4.543,1.762-6.484,4.271-7.257,8.938
		c-13.559,81.888-57.052,142.768-129.28,183.229c-34.27,19.196-71.226,30.89-109.732,37.901
		c-43.335,7.894-87.029,9.762-130.908,6.807c-49.666-3.345-97.932-13.062-143.52-33.768
		c-46.663-21.193-85.736-51.648-114.039-94.922c-21.675-33.139-34.057-69.645-39.134-108.793
		c-4.591-35.396-2.669-70.636,2.638-105.741c16.361-108.252,52.676-209.529,107.324-304.262
		c20.081-34.811,43.437-67.314,71.137-96.565c0.791-0.835,1.484-1.76,2.546-3.032c-1.824-1.41-3.392-2.71-5.048-3.888
		c-60.397-42.961-98.42-100.616-113.202-173.29c-6.459-31.755-6.512-63.757-1.562-95.782c0.382-2.47,0.358-5.127-0.099-7.582
		c-11.518-61.921-23.118-123.827-34.706-185.734c-2.968-15.855-5.946-31.708-9.044-48.228c2.02,0.146,3.551,0.104,5.02,0.384
		c45.999,8.761,91.992,17.556,137.986,26.338c16.329,3.118,32.684,6.098,48.975,9.396c3.88,0.786,7.166,0.443,10.786-1.18
		c25.389-11.387,51.891-18.751,79.576-21.953c48.799-5.646,95.791,1.088,140.822,20.634c6.188,2.686,11.793,3.042,18.191,1.802
		c61.37-11.893,122.775-23.607,184.171-35.369c0.681-0.131,1.375-0.187,3.091-0.413c-0.245,2.661-0.271,4.73-0.646,6.734
		c-9.02,48.097-18.07,96.186-27.13,144.275c-5.243,27.84-10.729,55.638-15.575,83.548c-0.928,5.338,0.48,11.126,1.066,16.679
		c10.173,96.44-21.229,176.903-93.114,241.663c-8.666,7.805-18.317,14.519-27.829,21.988c0.594,0.83,1.136,1.808,1.877,2.596
		c38.233,40.635,67.891,87.125,93.062,136.637c28.545,56.15,50.57,114.81,66.892,175.629c0.604,2.25,1.355,4.464,2.119,6.666
		c0.124,0.354,0.672,0.563,1.494,1.209c0.52-1.252,1.274-2.33,1.38-3.469c0.218-2.325,0.099-4.683,0.099-7.025
		c0.002-107.801,0.046-215.602-0.12-323.402c-0.008-5.883,1.709-9.882,5.961-13.989c37.915-36.633,75.585-73.52,113.341-110.32
		c1.312-1.278,2.757-2.421,4.68-4.098c42.398,43.329,84.616,86.475,127.123,129.917
		C1289.771,667.766,1288.42,669.329,1286.948,670.766z"/>
</g>
</svg>
