<?xml version="1.0" encoding="utf-8"?>
<!-- Generator: Adobe Illustrator 16.0.0, SVG Export Plug-In . SVG Version: 6.00 Build 0)  -->
<!DOCTYPE svg PUBLIC "-//W3C//DTD SVG 1.1//EN" "http://www.w3.org/Graphics/SVG/1.1/DTD/svg11.dtd">
<svg version="1.1" id="Layer_1" xmlns="http://www.w3.org/2000/svg" xmlns:xlink="http://www.w3.org/1999/xlink" x="0px" y="0px"
	 width="2000px" height="2000px" viewBox="0 0 2000 2000" enable-background="new 0 0 2000 2000" xml:space="preserve">
<g id="Capa_1">
	<path fill="#2F2F2F" d="M1345.889,503.94L770.5,506c0,0-193.18,0.164-256.238,10.152c-151.205,23.95-256.57,175.623-256.57,335.908
		v719.45c0,17.386,14.091,31.478,31.477,31.478h96.067c14.752,0,27.523-10.242,30.725-24.644l84.004-377.737l37.153,0.248
		c152.024,9.686,274.953,126.36,294.29,275.562c0.924,7.117,2.68,47.152,2.68,47.152v164.627c0,17.385,14.091,31.477,31.479,31.477
		h288.188c17.386,0,31.478-14.092,31.478-31.477v-422.56h157.713c86.956,0,157.702,70.746,157.702,157.701v118.381
		c0,0.103,0,0.207,0,0.31V1688.2c0,17.385,14.091,31.477,31.478,31.477h294.083c17.386,0,31.478-14.092,31.478-31.477v-672.46
		C1857.682,733.532,1628.091,503.94,1345.889,503.94z M897.041,1656.719v-79.102c38.125,10.869,68.229,40.977,79.102,79.102H897.041
		z M1563.6,1656.719V1576.1c20.229,4.572,38.862,14.564,54.217,29.336c14.898,14.341,25.4,31.943,30.849,51.283H1563.6z
		 M1713.193,1656.719c-6.479-36.694-24.286-70.242-51.728-96.646c-27.267-26.234-61.208-42.726-97.864-47.965v-88.771
		c0-121.668-98.986-220.656-220.654-220.656h-189.189c-17.387,0-31.478,14.093-31.478,31.479v422.557h-81.596
		c-13.069-72.928-70.722-130.576-143.646-143.645c0,0-0.427-22.951-1.221-25.715c-14.836-188.201-166.597-337.851-355.701-349.392
		c-0.57-0.035-1.141-0.057-1.707-0.061l-24.468-0.164l35.913-161.48c3.773-16.973-6.922-33.784-23.892-37.559
		c-16.966-3.784-33.785,6.922-37.559,23.891l-128.418,577.441h-39.346V852.062c0-157.242,127.926-285.17,285.169-285.17h138.131
		c77.744,0,140.99,63.248,140.99,140.992v281.122c0,49.631-40.378,90.013-90.01,90.013c-49.633,0-90.014-40.382-90.014-90.013
		V707.885c0-17.386-14.091-31.478-31.478-31.478c-17.386,0-31.478,14.092-31.478,31.478v281.122
		c0,84.347,68.619,152.965,152.967,152.965c84.344,0,152.963-68.618,152.963-152.965V707.885
		c0-54.641-21.605-104.339-56.719-140.992h135.043c0,0,319.446-8.588,424.293,7.607c191.298,29.549,344.223,238.034,344.223,441.242
		v640.979h-81.53L1713.193,1656.719L1713.193,1656.719z"/>
	<path fill="#2F2F2F" d="M546.719,737.305c0,17.387-14.091,31.479-31.477,31.479h-7.506c-17.386,0-31.478-14.092-31.478-31.479
		c0-17.386,14.091-31.477,31.478-31.477h7.506C532.627,705.829,546.719,719.923,546.719,737.305z"/>
</g>
<g id="Layer_2">
	<path fill="#F2F2F2" d="M-308.131-308.131v2616.262h2616.262V-308.131H-308.131z M768.345,502.549v3.394h576.542
		c282.202,0,511.793,229.592,511.793,511.801v672.456h0.002c0,17.385-14.091,31.477-31.477,31.477h-294.084
		c-17.386,0-31.478-14.092-31.478-31.477v-146.172c0-0.103,0-0.207,0-0.31V1425.34c0-86.957-70.745-157.703-157.702-157.703H1184.23
		v422.56c0,17.387-14.092,31.477-31.478,31.477H864.564c-17.388,0-31.479-14.09-31.479-31.477v-164.627
		c0,0-1.755-40.035-2.68-47.152c-19.337-149.199-142.266-265.877-294.29-275.562l-37.153-0.25l-84.004,377.738
		c-3.2,14.4-15.973,24.644-30.725,24.644h-96.066c-17.386,0-31.477-14.091-31.477-31.478V854.062
		c0-160.286,109.879-297.616,257.571-337.91"/>
</g>
</svg>
