<?xml version="1.0" encoding="utf-8"?>
<!-- Generator: Adobe Illustrator 16.0.0, SVG Export Plug-In . SVG Version: 6.00 Build 0)  -->
<!DOCTYPE svg PUBLIC "-//W3C//DTD SVG 1.1//EN" "http://www.w3.org/Graphics/SVG/1.1/DTD/svg11.dtd">
<svg version="1.1" id="Layer_1" xmlns="http://www.w3.org/2000/svg" xmlns:xlink="http://www.w3.org/1999/xlink" x="0px" y="0px"
	 width="2000px" height="2000px" viewBox="0 0 2000 2000" enable-background="new 0 0 2000 2000" xml:space="preserve">
<g id="Capa_1">
	<path fill="#2F2F2F" d="M1345.889,503.94H769.347v-3.393c0-54.664-34.568-101.404-82.99-119.513
		c18.162-43.949,53.084-94.249,103.185-84.232c17.054,3.41,33.632-7.646,37.041-24.691c3.41-17.047-7.646-33.631-24.69-37.042
		c-39.962-7.988-74.992,2.567-104.024,24.482c18.33-41.137,45.774-72.809,84.357-77.114c17.277-1.927,29.722-17.494,27.794-34.768
		c-1.923-17.274-17.483-29.76-34.768-27.794C655.761,133.2,613.765,278.039,606.073,378.099
		c-52.993,15.487-91.811,64.517-91.811,122.448v15.605c-147.692,40.294-256.57,175.623-256.57,335.909v719.45
		c0,17.385,14.091,31.477,31.477,31.477h96.067c14.752,0,27.524-10.242,30.725-24.643l84.004-377.738l37.153,0.248
		c152.025,9.686,274.953,126.361,294.29,275.562c0.924,7.117,2.68,47.152,2.68,47.152v164.627c0,17.385,14.091,31.477,31.478,31.477
		h288.189c17.386,0,31.477-14.092,31.477-31.477v-422.559h157.713c86.956,0,157.702,70.746,157.702,157.701v118.381
		c0,0.102,0,0.207,0,0.309v146.172c0,17.385,14.091,31.477,31.478,31.477h294.083c17.386,0,31.477-14.092,31.477-31.477V1015.74
		C1857.682,733.532,1628.091,503.94,1345.889,503.94z M1314.411,566.893v3.394c0,35.614-28.972,64.587-64.59,64.587
		c-35.616,0-64.59-28.973-64.59-64.587v-3.394H1314.411L1314.411,566.893z M1122.277,566.893v3.394
		c0,70.323,57.215,127.541,127.547,127.541c70.323,0,127.541-57.215,127.541-127.541v-2.297c11.163,0.774,22.182,1.958,33.109,3.542
		v256.66c0,33.094-26.919,60.014-60.012,60.014h-201.287c-33.089,0-60.008-26.92-60.008-60.014V566.893H1122.277z M577.213,500.547
		h0.003c0-34.001,26.413-61.949,59.799-64.408c0.725-0.018,1.44-0.06,2.151-0.122c0.604-0.028,1.217-0.042,1.824-0.053
		c2.104,0.291,4.193,0.36,6.243,0.22c33.082,2.767,59.159,30.575,59.159,64.36v3.392H605.811c-9.631,0-19.162,0.392-28.598,1.165
		V500.547z M897.041,1656.719v-79.102c38.125,10.869,68.229,40.977,79.101,79.102H897.041z M1563.599,1656.719V1576.1
		c20.229,4.572,38.863,14.564,54.217,29.336c14.899,14.34,25.401,31.943,30.849,51.283H1563.599z M1713.193,1656.719
		c-6.479-36.695-24.286-70.242-51.727-96.646c-27.267-26.234-61.208-42.725-97.864-47.965v-88.77
		c0-121.668-98.987-220.656-220.655-220.656h-189.189c-17.387,0-31.478,14.092-31.478,31.479v422.557h-81.595
		c-13.07-72.928-70.722-130.576-143.646-143.645c0,0-0.427-22.951-1.221-25.715c-14.836-188.201-166.596-337.85-355.701-349.391
		c-0.57-0.035-1.14-0.057-1.707-0.061l-24.468-0.164l35.913-161.48c3.774-16.973-6.921-33.785-23.891-37.559
		c-16.966-3.784-33.785,6.922-37.559,23.891l-128.418,577.441h-39.345V852.062c0-157.242,127.925-285.169,285.168-285.169h138.131
		c77.744,0,140.991,63.248,140.991,140.992v281.122c0,49.631-40.378,90.012-90.01,90.012c-49.633,0-90.014-40.381-90.014-90.012
		V707.885c0-17.386-14.091-31.478-31.477-31.478s-31.478,14.092-31.478,31.478v281.122c0,84.346,68.619,152.965,152.967,152.965
		c84.344,0,152.963-68.619,152.963-152.965V707.885c0-54.641-21.606-104.339-56.719-140.992h135.043v261.296
		c0,67.805,55.157,122.967,122.963,122.967h201.285c67.806,0,122.967-55.162,122.967-122.967V585.346
		c185.562,55.088,321.301,227.188,321.301,430.396v640.979h-81.531V1656.719z"/>
	<path fill="#2F2F2F" d="M546.719,737.305c0,17.386-14.091,31.478-31.477,31.478h-7.506c-17.385,0-31.477-14.092-31.477-31.478
		s14.091-31.477,31.477-31.477h7.506C532.627,705.829,546.719,719.923,546.719,737.305z"/>
</g>
<g id="Layer_2">
	<path fill="#F2F2F2" d="M-308.131-308.131v2616.262h2616.262V-308.131H-308.131z M1856.682,1690.199
		c0,17.385-14.091,31.477-31.477,31.477h-294.084c-17.386,0-31.477-14.092-31.477-31.477v-146.172c0-0.102,0-0.207,0-0.309V1425.34
		c0-86.957-70.746-157.703-157.702-157.703H1184.23v422.559c0,17.387-14.091,31.477-31.477,31.477H864.564
		c-17.387,0-31.478-14.09-31.478-31.477v-164.627c0,0-1.755-40.035-2.68-47.152c-19.337-149.199-142.265-265.877-294.29-275.561
		l-37.153-0.25l-84.004,377.738c-3.2,14.4-15.973,24.643-30.725,24.643h-96.066c-17.386,0-31.477-14.09-31.477-31.477V854.062
		c0-160.286,108.878-295.614,256.57-335.908v-15.605c0-57.931,38.818-106.961,91.811-122.448
		c7.691-100.061,49.688-244.898,169.178-258.224c17.283-1.966,32.845,10.52,34.768,27.794c1.928,17.273-10.517,32.84-27.794,34.768
		c-38.583,4.305-66.027,35.978-84.357,77.114c29.032-21.915,64.062-32.47,104.024-24.482c17.046,3.41,28.102,19.995,24.69,37.042
		c-3.409,17.046-19.987,28.102-37.041,24.691c-50.101-10.017-85.021,40.283-103.185,84.232
		c48.422,18.109,82.99,64.849,82.99,119.513v3.393h576.542c282.202,0,511.793,229.592,511.793,511.801V1690.199L1856.682,1690.199z"
		/>
</g>
</svg>
