<?xml version="1.0" encoding="utf-8"?>
<!-- Generator: Adobe Illustrator 16.0.0, SVG Export Plug-In . SVG Version: 6.00 Build 0)  -->
<!DOCTYPE svg PUBLIC "-//W3C//DTD SVG 1.1//EN" "http://www.w3.org/Graphics/SVG/1.1/DTD/svg11.dtd">
<svg version="1.1" id="Capa_1" xmlns="http://www.w3.org/2000/svg" xmlns:xlink="http://www.w3.org/1999/xlink" x="0px" y="0px"
	 width="2000px" height="2000px" viewBox="-718.5 -718.5 2000 2000" enable-background="new -718.5 -718.5 2000 2000"
	 xml:space="preserve">
<g>
	<path fill="#F2F2F2" stroke="#2F2F2F" stroke-width="20.7921" stroke-miterlimit="10" d="M32.728,406.998l-68.301-68.322
		l-14.821-14.809c-11.557-11.549-30.252-11.549-41.782,0l-33.298,33.292c-11.528,11.551-11.528,30.255,0,41.761l88.779,88.781
		c11.557,11.506,30.252,11.506,41.782,0l33.277-33.309c11.542-11.561,11.542-30.234,0-41.761L32.728,406.998z"/>
	<path fill="#F2F2F2" stroke="#2F2F2F" stroke-width="20.7921" stroke-miterlimit="10" d="M-184.367,457.817
		c-11.558-11.551-30.248-11.551-41.775,0l-33.285,33.265c-11.53,11.578-11.53,30.252,0,41.828l88.76,88.738
		c11.557,11.537,30.246,11.537,41.789,0l33.285-33.266c11.53-11.576,11.53-30.247,0-41.828L-184.367,457.817z"/>
	<path fill="#F2F2F2" stroke="#2F2F2F" stroke-width="20.7921" stroke-miterlimit="10" d="M-779.5-794.5v2100h2100v-2100H-779.5z
		 M1063.086-525.384c-67.421-1.269-167.313,117.347-167.313,117.347c-26.384-10.754-57.791,11.923-70.374,22.388L125.921,313.873
		c-17.284,46.346-21.643,89.06,3.587,114.289c57.902,57.908,144.281,14.277,185.76-12.718c13.688-8.896,17.526-5.709,9.513,8.511
		l-55.313,98.342c-7.95,14.221-27.709,25.822-43.952,27.256c-41.751,3.797-117.922,16.682-162.484,61.247
		C11.524,662.32-38.758,867.072-56.099,943.375c-3.611,15.915-17.968,35.147-32.325,42.883l-265.466,143.297
		c-14.367,7.728-21.785,1.494-16.761-13.991c28.211-86.878,109.772-347.376,82.527-374.634
		c-31.348-31.381-168.166-75.57-362.057,14.203c-14.8,6.859-20.69,1.119-13.864-13.687
		c28.257-61.523,94.826-218.353,105.718-352.139c1.331-16.284,14.508-31.742,30.547-34.615
		c87.954-16.101,347.924-66.602,391.359-110.025c38.603-38.604,63.994-137.141,74.718-186.415
		c3.477-15.94,17.782-34.546,32.562-41.436l135.578-63.096c14.799-6.89,18.214-2.396,8.354,10.589
		C80.541,9.504,14.616,109.175,60.188,154.748c19.239,19.211,46.491,20.57,74.637,13.57l619.682-619.7
		c34.321-42.793,5.161-88.997,5.161-88.997l347.712-78.023C1086.156-577.188,1063.086-525.384,1063.086-525.384z"/>
</g>
</svg>
