<?xml version="1.0" encoding="utf-8"?>
<!-- Generator: Adobe Illustrator 16.0.0, SVG Export Plug-In . SVG Version: 6.00 Build 0)  -->
<!DOCTYPE svg PUBLIC "-//W3C//DTD SVG 1.1//EN" "http://www.w3.org/Graphics/SVG/1.1/DTD/svg11.dtd">
<svg version="1.1" id="Capa_1" xmlns="http://www.w3.org/2000/svg" xmlns:xlink="http://www.w3.org/1999/xlink" x="0px" y="0px"
	 width="2000px" height="2000px" viewBox="-728.5 -728.5 2000 2000" enable-background="new -728.5 -728.5 2000 2000"
	 xml:space="preserve">
<path fill="#F2F2F2" stroke="#2F2F2F" stroke-width="26" stroke-miterlimit="10" d="M-850.25-857.75v2200h2200v-2200H-850.25z
	 M128.905,258.084v-4.662v-14.139v-14.138v-10.739c0-62.705,50.4-113.722,112.346-113.722c51.798,0,95.076,35.864,108.009,84.198
	c1.354,5.049,2.283,10.226,2.906,15.547c0.591,4.613,1.425,9.193,1.425,13.976v1.454v238.849
	c0,62.699-50.414,113.708-112.343,113.708c-61.946,0-112.346-50.979-112.346-113.708V258.084H128.905z M-151.667,258.091
	c0-14.68,2.963-28.679,8.006-41.6c1.733-4.384,3.946-8.486,6.182-12.612c2.238-4.13,4.498-8.23,7.205-12.026
	c20.421-28.615,53.445-47.477,90.95-47.477c50.537,0,92.895,34.188,106.949,80.771c1.408,4.638,2.686,9.282,3.488,14.139
	c0.789,4.61,1.223,9.33,1.431,14.139c0.086,1.574,0.48,3.061,0.48,4.662v196.62c0,62.696-50.406,113.701-112.348,113.701
	c-61.949,0-112.343-50.977-112.343-113.701V258.091z M1026.631,696.909l-57.647,279.867
	c-13.478,65.472-70.458,112.432-136.563,112.533l-301.607,0.39c-0.06,0-0.113,0-0.154,0c-9.801,0-19.327-1.055-28.517-2.987
	h-822.648c-84.743,0-153.665-69.789-153.665-155.548V241.748c0-34.116-10.658-123.821-23.757-199.976l-41.99-244.441
	c-22.439-130.481-15.369-215.328,21.039-252.158c29.112-29.494,67.834-45.765,109.121-45.794c41.215,0,79.974,16.238,109.083,45.735
	c38.749,39.232,50.265,126.759,60.427,203.968c2.047,15.562,3.999,30.461,6.097,44.011l46.854,304.271
	c2.846,18.377,9.585,35.773,19.026,51.591c-3.123,3.752-6.003,7.687-8.799,11.706c-2.85,4.134-5.471,8.399-7.963,12.751
	c-14.213,24.979-22.483,53.856-22.483,84.671v196.624c0,93.887,75.459,170.27,168.228,170.27
	c58.525,0,110.133-30.431,140.286-76.504c30.106,46.073,81.715,76.504,140.285,76.504c92.754,0,168.23-76.389,168.23-170.27V214.403
	c0-15.333-2.218-30.146-6.008-44.285c-1.453-5.416-3.106-10.694-5.079-15.893c-1.994-5.263-4.225-10.414-6.687-15.426
	c7.997-12.184,14.845-24.97,19.125-38.46l124.509-393.303c6.404-20.339,12.352-43.902,18.654-68.839
	c17.06-67.744,34.726-137.765,68.488-171.926c29.109-29.508,67.859-45.74,109.047-45.74c41.236,0,79.973,16.232,109.1,45.74
	c58.274,58.987,11.776,218.069,1.882,249.351L718.032,108.939c-24.746,78.134-41.96,148.66-41.96,163.125v534.653l42.545-0.061
	l34.516-167.481c15.721-76.445,89.597-125.602,165.264-109.594C993.915,545.522,1042.377,620.45,1026.631,696.909z"/>
</svg>
