<?xml version="1.0" encoding="utf-8"?>
<!-- Generator: Adobe Illustrator 16.0.0, SVG Export Plug-In . SVG Version: 6.00 Build 0)  -->
<!DOCTYPE svg PUBLIC "-//W3C//DTD SVG 1.1//EN" "http://www.w3.org/Graphics/SVG/1.1/DTD/svg11.dtd">
<svg version="1.1" id="Capa_1" xmlns="http://www.w3.org/2000/svg" xmlns:xlink="http://www.w3.org/1999/xlink" x="0px" y="0px"
	 width="2000px" height="2000px" viewBox="-725 -725 2000 2000" enable-background="new -725 -725 2000 2000" xml:space="preserve">
<path fill="#F2F2F2" stroke="#2F2F2F" stroke-width="22.5871" stroke-miterlimit="10" d="M-825-825v2200h2200V-825H-825z
	 M302.422-599.515c435.963,0,756.719,330.235,779.72,792.658c-35.685-31.946-77.544-56.99-123.645-73.135
	c-50.022-356.155-310.458-603.224-656.075-603.224c-349.18,0-611.58,252.114-657.701,614.135
	c-47.069,20.989-88.762,51.597-122.958,89.271C-466.58-256.379-142.018-599.515,302.422-599.515z M-220.758,143.188v647.356v14.735
	c-180.07-7.615-324.185-156.499-324.185-338.438c0-84.093,31.066-160.875,81.994-220.17c28.895-33.638,64.181-61.479,104.067-81.734
	c41.853-21.245,88.531-34.386,138.127-36.484v14.735H-220.758z M822.803,828.874c-113.363,159.155-298.956,263.305-509.268,263.305
	c-207.862,0-391.51-101.818-505.228-257.888V112.21V99.433V99.07h-14.527c-0.259,0-0.528,0.024-0.783,0.024
	c16.477-51.119,49.536-140.858,95.52-203.409c0,0-20.912,48.041-16.252,83.922c4.218,32.317,31.76-13.555,121.471-124.527
	c50.195-62.101,52.79-39.418,45.342-7.415c22.07-32.729,51.626-68.336,87.671-92.75c83.916-56.849,100.17-105.582,100.17-105.582
	s-6.787,57.19-18.93,85.345c26.195-27.124,84.591-86.622,105.546-147.604c29.773-86.625,121.801,171.183,121.801,171.183
	s70.404,72.168,40.625-8.904c-29.773-81.064,70.364,48.902,92.026,78.659c21.665,29.763,18.931-43.3,0-62.25
	c0,0,111.922,79.993,133.128,210.521c0.026,0.17,0.056,0.325,0.082,0.497c5.445,4.302,10.904,8.602,16.176,13.089
	c0.46-25.788-0.473-56.28-0.473-56.28s63.013,73.953,74.797,130.367l-0.345-0.061c11.068,13.173,21.455,26.907,31.443,40.988h0.004
	v723.992H822.803z M851.87,805.309v-21.412V149.87v-21.401c38.947,1.63,76.044,10.235,110.54,24.017
	c46.106,18.4,87.365,46.427,120.923,81.979c57.422,60.692,92.739,142.499,92.739,232.432
	C1176.069,648.806,1031.961,797.664,851.87,805.309z"/>
</svg>
