<?xml version="1.0" encoding="utf-8"?>
<!-- Generator: Adobe Illustrator 16.0.0, SVG Export Plug-In . SVG Version: 6.00 Build 0)  -->
<!DOCTYPE svg PUBLIC "-//W3C//DTD SVG 1.1//EN" "http://www.w3.org/Graphics/SVG/1.1/DTD/svg11.dtd">
<svg version="1.1" id="Layer_1" xmlns="http://www.w3.org/2000/svg" xmlns:xlink="http://www.w3.org/1999/xlink" x="0px" y="0px"
	 width="1600px" height="1600px" viewBox="0 0 1600 1600" enable-background="new 0 0 1600 1600" xml:space="preserve">
<g>
	<path fill="#F2F2F2" stroke="#2F2F2F" stroke-width="11" stroke-miterlimit="10" d="M731.151,744.425
		c-24.327-5.819-36.485,27.494-45.492,54.486c-8.987,26.96-31.192,80.911-12.156,89.364c19.042,8.484,27.503-18.509,27.503-18.509
		l32.234-84.247c2.785-9.307,5.742-18.635,8.697-27.643C741.3,751.99,738.598,746.393,731.151,744.425z"/>
	<path fill="#F2F2F2" stroke="#2F2F2F" stroke-width="11" stroke-miterlimit="10" d="M1314.816,770.336
		c-6.646,9.967-12.985,23.328-18.079,37.93c41.015,0.189,70.462-22.438,74.927-43.46
		C1376.417,742.345,1343.086,728.031,1314.816,770.336z"/>
	<path fill="#F2F2F2" stroke="#2F2F2F" stroke-width="11" stroke-miterlimit="10" d="M-105-87.5v1786h1786v-1786H-105z
		 M1164.857,531.942c34.489,0,62.436,27.955,62.436,62.437c0,34.491-27.945,62.456-62.436,62.456
		c-34.493,0-62.474-27.965-62.474-62.456C1102.385,559.896,1130.364,531.942,1164.857,531.942z M1393.867,831.699
		c-45.788,16.92-87.622,17.348-107.033,16.307c-5.246,35.938,1.195,68.318,31.936,68.318c39.672,0,73.566-26.415,89.382-41.138
		c5.637-5.251,14.362-5.282,20.07-0.116c6.238,5.621,6.58,15.316,0.771,21.383c-91.427,95.395-182.221,71.026-226.238,25.699
		c-17.004,14.502-51.854,38.067-98.733,38.067c-33.058,0-51.976-15.661-61.584-38c-17.043,14.499-51.871,38-98.666,38
		c-32.259,0-51.038-14.911-60.869-36.397c-17.655,14.569-51.617,36.397-96.742,36.397c-47.271,0-65.641-32.001-69.195-69.833
		c-20.875,36.878-51.709,69.833-95.299,69.833c-29.056,0-47.748-10.633-59.244-26.771c-14.365,10.959-43.437,26.771-91.492,26.771
		c-73.513,0-83.576-55.008-70.345-96.265c13.225-41.254,30.675-92.037,30.675-92.037s3.17-13.743-10.575-15.329
		c-7.845-0.903-22.391,15.039-33.439,28.929c-2.669,17.772-6.886,30.656-6.886,30.656l-37.916,120.087l-130.677,15.198
		l65.608-188.718c2.581-7.404-2.924-15.149-10.771-15.149c-4.415,0-8.435,2.557-10.31,6.562l-9.628,29.42l-45.474-1.057
		c0,0,4.217-100.506,116.346-100.506c46.879,0,64.703,25.817,69.97,54.794c16.955-21.616,51.447-54.794,103.522-54.794
		c77.22,0,66.646,82.521,57.649,109.486c-6.611,19.82-25.511,73.703-35.062,100.813c-2.77,7.857,3.066,16.07,11.393,16.07
		c4.755,0,9.059-2.795,11.019-7.088l10.625-23.585c-0.896-32.346,7.573-66.393,15.786-86.211
		c19.037-46.018,71.931-109.486,133.287-109.486c35.343,0,51.012,22.459,57.954,41.521c7.362-20.781,12.917-35.173,12.917-35.173
		h118.997l-69.809,208.4c0,0-2.112,18.504,13.223,17.979c10.584-0.357,28.988-15.865,44.944-35.873
		c-0.237-12.85,0.974-26.09,3.189-38.716c3.731-21.334,11.758-49.281,20.175-75.346h-20.398l25.612-76.447
		c0,0,75.117-8.988,98.378-70.871h66.647l-23.892,70.871h25.864l-26.907,76.447h-24.742l-43.25,128.273
		c-1.26,3.784-1.601,7.857-0.681,11.723c1.176,4.91,4.361,10.227,12.679,9.938c12.219-0.429,31.797-9.596,47.798-29.328
		c-0.867-14.896,0.376-30.47,2.95-45.261c5.267-30.127,19.103-73.346,30.416-105.978c9.528-27.437,35.376-45.814,64.417-45.814
		c34.95,0,59.625,34.26,48.531,67.424l-45.873,137.296c-1.262,3.784-1.604,7.857-0.682,11.723c1.191,4.91,4.361,10.227,12.677,9.938
		c9.61-0.341,23.79-6.085,37.218-18.115c-25.119-48.363-13.566-144.269,62.744-189.229c77.229-45.481,162.383-24.327,195.185,10.59
		C1474.797,752.886,1456.8,808.421,1393.867,831.699z"/>
</g>
</svg>
