<?xml version="1.0" encoding="utf-8"?>
<!-- Generator: Adobe Illustrator 16.0.0, SVG Export Plug-In . SVG Version: 6.00 Build 0)  -->
<!DOCTYPE svg PUBLIC "-//W3C//DTD SVG 1.1//EN" "http://www.w3.org/Graphics/SVG/1.1/DTD/svg11.dtd">
<svg version="1.1" id="Layer_1" xmlns="http://www.w3.org/2000/svg" xmlns:xlink="http://www.w3.org/1999/xlink" x="0px" y="0px"
	 width="2000px" height="2000px" viewBox="0 0 2000 2000" enable-background="new 0 0 2000 2000" xml:space="preserve">
<g id="Layer_1_1_">
	<path fill="#2F2F2F" d="M1480.602,1232.354c19.423-40.05,38.27-80.355,55.137-121.56c24.761-60.482,45.271-122.27,56.047-186.91
		c5.578-33.457,9.142-67.101,7.185-101.182c-1.496-26.094-5.148-51.799-11.116-77.208c-9.337-39.758-24.104-77.439-43.989-113.063
		c-19.873-35.603-43.904-68.173-72.764-97.066c-13.625-13.641-28.387-25.994-43.813-37.53
		c-42.15-31.518-88.267-55.414-138.432-71.39c-51.91-16.533-104.973-25.167-159.559-21.964c-18.14,1.065-36.298,2.783-54.277,5.383
		c-35.715,5.166-70.577,14.062-104.696,25.885c-59.94,20.772-115.34,50.077-166.067,88.164
		c-27.376,20.553-53.018,43.035-75.316,69.12c-42.159,49.312-73.681,104.866-96.091,165.601
		c-6.872,18.623-12.454,37.726-18.491,56.653c-2.362,7.405-8.579,12.427-16.329,12.271c-13.7-0.275-27.293,0.524-40.74,3.305
		c-36.23,7.492-67.969,23.722-93.947,50.105c-19.621,19.928-34.488,43.336-46.001,68.834c-9.351,20.709-15.961,42.311-17.815,64.935
		c-2.161,26.367,3.622,51.337,16.249,74.731c8.337,15.447,21.51,24.31,37.951,28.723c4.893,1.312,10.253,2.091,15.242,1.578
		c9.929-1.021,19.303-4.418,28.239-8.98c14.068-7.181,25.366-17.597,35.809-29.281c7.156-8.006,15.14-15.281,22.865-22.769
		c8.156-7.906,18.333-8.799,28.936-7.93c0.793,0.065,1.771,0.215,2.304,0.714c4.152,3.878,8.695,7.088,8.26,14.188
		c-1.271,20.782,1.714,41.258,5.826,61.587c5.716,28.264,14.087,55.749,24.109,82.756c15.759,42.46,35.243,83.047,60.493,120.76
		c24.516,36.612,52.444,70.259,85.338,99.729c23.481,21.039,48.331,40.269,74.579,57.676c21.229,14.082,43.246,26.841,65.74,38.832
		c35.761,19.066,72.997,34.439,111.908,45.659c60.8,17.533,122.978,25.403,197.446,25.991c11.878-0.703,35.003-1.78,58.073-3.529
		c17.708-1.342,35.431-2.977,53.008-5.46c29.053-4.104,58.088-8.493,86.963-13.691c35.051-6.312,69.653-14.666,103.193-26.881
		c17.932-6.532,35.363-14.096,51.006-25.336c8.211-5.898,12.777-13.965,15.233-23.416c0.602-2.316,0.621-5.002,0.12-7.352
		c-2.494-11.692-8.46-20.289-20.627-24.045c-9.434-2.915-18.993-4.18-28.734-4.16c-11.613,0.02-23.136-0.397-34.609-2.481
		c-17.513-3.179-32.967-9.571-45.722-22.873c-13.018-13.576-19.759-29.439-21.394-47.646c-2.762-30.784,1.953-60.573,12.509-89.618
		C1458.561,1278.227,1469.498,1255.256,1480.602,1232.354z M1410.425,1352.286c-5.964,37.862,3.221,71.847,26.103,102.257
		c7.919,10.523,19.129,16.979,30.678,22.732c13.818,6.886,28.514,11.214,43.751,13.348c6.006,0.841,9.562,4.443,13.11,8.47
		c0.742,0.84,1.034,2.225,1.184,3.402c0.207,1.633,0.094,3.31,0.096,4.965c0.017,9.799-4.101,15.49-13.713,18.558
		c-25.453,8.126-51.39,14.487-77.623,19.324c-31.931,5.886-63.958,11.406-96.113,15.833c-24.16,3.325-48.571,4.974-72.911,6.833
		c-32.262,2.462-64.608,2.13-96.884,0.721c-70.449-3.075-138.875-16.205-203.769-44.599
		c-52.992-23.188-102.228-52.811-147.077-89.451c-33.153-27.083-63.229-57.282-89.788-90.898
		c-33.029-41.808-57.792-88.195-76.267-138.063c-10.369-27.99-19.094-56.417-24.105-85.917c-2.997-17.64-3.94-35.356-3.272-53.206
		c0.155-4.113,0.124-8.305-0.465-12.366c-2.742-18.889-15.357-27.72-32.658-31.939c-7.197-1.755-14.018-0.383-20.757,1.503
		c-18.783,5.256-34.766,15.178-48.074,29.484c-8.041,8.644-16.286,17.095-24.496,25.577c-8.648,8.934-18.94,13.884-31.666,12.893
		c-2.265-0.177-4.558-0.082-6.834-0.02c-4.187,0.114-7.344-1.757-10.578-4.343c-12.936-10.346-17.722-24.555-19.62-40.164
		c-6.832-56.146,11.913-103.389,50.348-143.664c9.298-9.743,18.908-19.162,30.229-26.665c20.221-13.401,42.453-20.076,66.646-20.843
		c16.628-0.528,33.139,0.614,49.435,3.631c5.091,0.942,9.754,4.317,14.544,6.72c2.325,1.166,4.49,2.656,6.728,4
		c0.253-0.235,0.51-0.471,0.763-0.707c-2.787-4.483-5.381-9.104-8.427-13.401c-2.158-3.043-2.753-6.172-2.963-9.817
		c-0.509-8.883,1.777-17.218,4.017-25.619c14.818-55.587,36.689-108.114,67.988-156.533
		c31.181-48.234,70.915-88.503,116.469-123.037c63.978-48.497,135.518-80.766,213.998-97.73
		c44.612-9.644,89.745-12.672,135.237-10.798c92.849,3.826,175.651,34.808,247.456,93.794
		c46.616,38.295,84.659,83.871,111.113,138.53c18.639,38.512,30.718,78.935,35.785,121.485c3.642,30.577,3.379,61.259,1.612,91.821
		c-3.235,55.95-16.688,109.902-34.856,162.756c-15.697,45.66-34.746,89.943-55.079,133.69
		c-14.307,30.783-29.117,61.334-43.091,92.267C1424.321,1294.338,1415.097,1322.627,1410.425,1352.286z"/>
	<g>
		<path fill="#2F2F2F" d="M783.579,885.064c0.93-17.082,1.225-32.649,7.198-47.346c3.388-8.338,7.94-15.917,14.256-22.371
			c22.953-23.449,56.203-22.329,77.393,2.731c3.193,3.775,5.829,8.034,8.615,12.141c4.064,5.994,7.881,12.163,12.071,18.065
			c13.002,18.313,30.264,30.905,51.524,38.145c17.466,5.948,35.254,8.554,53.742,6.857c18.53-1.703,37.105-3.081,55.688-4.048
			c15.238-0.793,30.177,1.392,44.309,7.48c4.729,2.039,9.408,4.368,13.728,7.155c22.107,14.262,31.161,37.563,24.316,63.021
			c-7.152,26.602-24.272,45.35-48.005,58.171c-27.995,15.123-57.677,25.991-88.745,32.942c-17.609,3.94-35.404,6.407-53.515,6.323
			c-41.452-0.192-78-13.751-109.149-40.94c-34.961-30.521-55.052-69.291-61.358-115.191
			C784.523,900.016,784.158,891.728,783.579,885.064z"/>
		<path fill="#2F2F2F" d="M1302.943,790.607c-0.63,24.421-8.312,46.742-26.772,64.619c-11.989,11.612-26.4,17.521-43.126,17.62
			c-6.947,0.041-13.673-1.427-19.777-4.604c-6.948-3.621-14.137-7.175-20.204-12.032c-24.898-19.933-54.033-28.968-84.745-34.377
			c-8.138-1.433-16.356-2.719-24.283-4.975c-17.092-4.861-21.352-12.647-17.545-30.124c2.956-13.576,9.898-25.056,19.299-34.895
			c24.402-25.54,53.293-43.979,87.95-52.024c26.756-6.21,53.144-3.994,78.216,7.712c28.209,13.17,44.264,35.751,49.546,66.226
			c0.423,2.439,0.758,4.901,0.966,7.368C1302.71,784.006,1302.768,786.907,1302.943,790.607z"/>
		<path fill="#2F2F2F" d="M976.005,660.95c-0.644,20.891-5.271,44.498-15.196,66.932c-4.82,10.894-11.165,20.783-20.329,28.627
			c-9.042,7.739-14.927,7.756-23.972-0.2c-4.037-3.551-7.751-7.467-11.684-11.142c-13.562-12.679-28.905-22.034-47.423-25.592
			c-4.048-0.777-7.992-2.11-11.966-3.248c-19.12-5.476-28.9-19.096-32.326-37.84c-2.881-15.764,0.146-30.994,6.331-45.459
			c12.608-29.48,33.082-51.432,63.667-62.507c29.731-10.765,57.233-1.546,75.009,24.615
			C970.846,613.875,976.155,634.873,976.005,660.95z"/>
	</g>
	<path fill="#2F2F2F" d="M1337.355,1230.699c-3.016-1.712-6.117-3.295-9.031-5.166c-6.473-4.16-13.539-6.191-21.179-6.043
		c-7.025,0.136-14.13-0.039-21.049,0.955c-14.033,2.018-25.671,9.522-35.763,18.834c-12.614,11.64-24.622,23.982-36.308,36.564
		c-17.451,18.786-37.977,31.724-63.479,36.356c-5.939,1.079-11.592,0.344-17.184-1.104c-17.208-4.454-30.69-13.703-39.258-29.862
		c-8.079-15.239-12.601-31.401-15.01-48.348c-3.044-21.39,0.419-42.131,6.198-62.568c10.51-37.172,29.105-70.056,55.895-97.709
		c30.948-31.945,69.158-50.06,113.598-54.133c23.405-2.146,44.917,4.309,63.688,18.097c8.277,6.081,13.184,15.565,15.706,26.483
		c-3.66-1.644-7.553-2.908-10.938-4.996c-13.865-8.556-29.058-11.276-45.089-11.637c-20.074-0.448-39.646,1.565-58.592,8.623
		c-21.546,8.028-39.927,20.611-55.987,37.019c-21.646,22.11-38.326,47.201-47.842,76.779c-8.225,25.565-9.297,51.618-4.476,77.929
		c2.225,12.136,7.575,22.672,17.134,30.888c3.295,2.833,6.742,4.116,11.132,4.55c17.811,1.757,31.861-5.194,43.771-17.731
		c9.129-9.608,17.919-19.573,27.498-28.709c20.652-19.693,43.965-35.192,72.045-42.246c18.315-4.602,36.612,2.796,46.933,18.561
		c3.593,5.485,6.94,11.136,8.653,17.531C1338.065,1229.977,1337.709,1230.337,1337.355,1230.699z"/>
</g>
<g id="Layer_2">
	<path fill="#F2F2F2" d="M7.017,7.017V2000H2000V7.017H7.017z M1591.785,923.884c-10.776,64.64-31.286,126.427-56.048,186.91
		c-16.866,41.204-35.712,81.51-55.136,121.56c-11.105,22.902-22.041,45.873-30.76,69.861
		c-10.556,29.046-15.271,58.833-12.509,89.617c1.634,18.209,8.376,34.072,21.393,47.648c12.756,13.302,28.208,19.691,45.724,22.872
		c11.473,2.085,22.994,2.502,34.607,2.481c9.74-0.02,19.301,1.245,28.735,4.16c12.167,3.756,18.134,12.353,20.627,24.045
		c0.501,2.35,0.481,5.035-0.12,7.352c-2.457,9.451-7.022,17.517-15.233,23.416c-15.645,11.24-33.074,18.805-51.006,25.336
		c-33.54,12.216-68.143,20.57-103.194,26.881c-28.875,5.198-57.909,9.587-86.963,13.691c-17.577,2.482-35.299,4.118-53.007,5.46
		c-23.07,1.748-46.195,2.827-58.072,3.53c-74.469-0.59-136.647-8.459-197.447-25.992c-38.911-11.22-76.147-26.594-111.908-45.659
		c-22.494-11.991-44.51-24.75-65.739-38.832c-26.249-17.407-51.097-36.637-74.579-57.676c-32.894-29.472-60.822-63.117-85.338-99.73
		c-25.25-37.712-44.734-78.299-60.493-120.759c-10.024-27.007-18.393-54.492-24.109-82.756c-4.112-20.329-7.097-40.804-5.827-61.587
		c0.435-7.101-4.107-10.312-8.26-14.188c-0.532-0.498-1.511-0.649-2.305-0.715c-10.601-0.869-20.778,0.023-28.935,7.93
		c-7.725,7.487-15.709,14.763-22.865,22.769c-10.443,11.684-21.741,22.1-35.809,29.281c-8.936,4.562-18.31,7.959-28.239,8.98
		c-4.988,0.513-10.349-0.267-15.242-1.578c-16.441-4.413-29.613-13.275-37.951-28.723c-12.626-23.394-18.409-48.363-16.248-74.731
		c1.855-22.625,8.465-44.225,17.815-64.935c11.512-25.498,26.379-48.906,46.002-68.834c25.978-26.383,57.715-42.613,93.945-50.105
		c13.447-2.779,27.041-3.58,40.74-3.304c7.75,0.156,13.967-4.866,16.328-12.271c6.037-18.928,11.619-38.03,18.492-56.653
		c22.411-60.734,53.931-116.289,96.09-165.601c22.3-26.084,47.94-48.567,75.316-69.12c50.729-38.087,106.128-67.393,166.069-88.164
		c34.117-11.823,68.98-20.719,104.695-25.885c17.979-2.6,36.137-4.318,54.277-5.383c54.587-3.204,107.649,5.43,159.559,21.964
		c50.165,15.976,96.282,39.872,138.432,71.39c15.427,11.537,30.187,23.89,43.813,37.531c28.861,28.893,52.89,61.464,72.764,97.066
		c19.885,35.623,34.653,73.305,43.99,113.063c5.967,25.408,9.619,51.114,11.114,77.208
		C1600.927,856.784,1597.362,890.428,1591.785,923.884z"/>
</g>
</svg>
