<?xml version="1.0" encoding="utf-8"?>
<!-- Generator: Adobe Illustrator 16.0.0, SVG Export Plug-In . SVG Version: 6.00 Build 0)  -->
<!DOCTYPE svg PUBLIC "-//W3C//DTD SVG 1.1//EN" "http://www.w3.org/Graphics/SVG/1.1/DTD/svg11.dtd">
<svg version="1.1" id="Layer_1" xmlns="http://www.w3.org/2000/svg" xmlns:xlink="http://www.w3.org/1999/xlink" x="0px" y="0px"
	 width="2000px" height="2000px" viewBox="0 0 2000 2000" enable-background="new 0 0 2000 2000" xml:space="preserve">
<g id="Layer_1_1_">
	<path fill="#2F2F2F" stroke="#2F2F2F" stroke-width="14.0395" stroke-miterlimit="10" d="M1633.771,544.872
		c-37.37,0-75.022,0-112.745,0c-36.382-96.438-100.844-164.917-197.932-198.913c-96.918-33.934-190.714-23.466-277.745,31.291
		c-79.652,50.117-129.367,122.777-144.597,215.64c-20.694,126.183,23.095,229.404,121.291,311.865
		c-3.237,0.561-5.057,0.977-6.899,1.183c-53.994,6.05-107.487,2.958-160.151-10.322c-107.522-27.114-193.329-85.505-254.705-178.584
		c-9.565-14.504-19.08-29.042-28.659-43.537c-1.783-2.701-3.761-5.273-6.061-8.482c-7.473,7.33-14.342,14.129-21.278,20.861
		c-28.791,27.947-57.284,56.171-81.367,88.442c-92.815,124.362-130.283,263.364-108.073,417.226
		c14.104,97.704,53.028,185.531,115.294,261.979c121.811,149.553,281.376,224.314,472.726,233.414
		c59.046,2.809,117.506-3.564,174.92-17.737c133.213-32.885,245.927-99.881,333.427-206.089
		c100.057-121.45,142.746-261.168,125.496-418.07c-8.132-73.978-31.915-143.179-68.921-207.782
		c-4.806-8.39-9.842-16.647-14.456-24.43c9.287-19.843,18.317-39.136,27.785-59.362c12.084,0,24.745,0,37.406,0
		c13.034,0,26.068,0.074,39.103-0.021c12.532-0.092,25.104,0.449,37.388-0.354C1637.246,731.446,1636.272,552.934,1633.771,544.872z
		 M1611.493,729.469c-3.293,0.178-6.816,0.528-10.338,0.534c-29.409,0.046-58.819,0.013-88.228,0.034
		c-10.16,0.009-10.277,0.012-13.267,9.387c-8.166,25.616-19.945,49.508-34.996,72.796c1.898,2.986,3.789,6.027,5.745,9.024
		c41.66,63.848,69.347,133.262,80.55,208.689c19.843,133.593-7.696,257.353-82.055,369.852
		c-74.342,112.477-177.619,188.083-304.697,231.57c-72.522,24.819-147.401,35.568-223.889,31.994
		c-159.021-7.436-297.097-64.752-410.287-177.734c-78.721-78.576-129.863-172.802-149.419-282.615
		c-24.535-137.774,3-265.526,78.82-382.976c27.925-43.254,62.626-80.684,100.046-115.747c0.468-0.44,1.141-0.658,3.474-1.96
		c65.963,113.207,162.231,185.964,289.29,216.829c77.277,18.773,154.655,17.021,233.868-1.773
		c-9.549-5.948-17.41-10.862-25.287-15.748c-36.002-22.337-66.152-50.857-89.963-85.906
		c-38.961-57.347-56.077-120.871-50.999-189.859c9.954-135.2,111.146-246.449,245.018-270.424
		c145.001-25.968,288.322,59.841,334.362,200.185c1.345,4.097,2.715,8.187,4.309,12.98c35.922,0,71.572,0,106.959,0
		C1612.775,576.715,1613.533,712.616,1611.493,729.469z"/>
	<path fill="#2F2F2F" stroke="#2F2F2F" stroke-width="14.0395" stroke-miterlimit="10" d="M1261.674,638.854
		c-38.861-0.165-69.504-31.37-69.205-70.479c0.292-38.212,31.578-69.259,69.78-69.249c38.37,0.012,70.097,31.909,69.956,70.331
		C1332.061,608.14,1300.679,639.019,1261.674,638.854z"/>
</g>
<g id="Layer_2">
	<path fill="#F2F2F2" d="M2002.812,2.812c-666.667,0-1333.333,0-2000,0.001c0,666.666,0,1333.333,0,2000
		c666.667-0.002,1333.333-0.002,2000-0.002C2002.812,1336.145,2002.812,669.478,2002.812,2.812z M1635.021,753.087
		c-12.285,0.804-24.856,0.262-37.389,0.354c-13.034,0.097-26.068,0.021-39.102,0.021c-12.662,0-25.323,0-37.408,0
		c-9.466,20.226-18.497,39.52-27.783,59.362c4.613,7.784,9.649,16.041,14.455,24.43c37.005,64.603,60.788,133.805,68.92,207.782
		c17.252,156.902-25.438,296.619-125.495,418.07c-87.5,106.208-200.213,173.204-333.426,206.089
		c-57.415,14.174-115.875,20.546-174.921,17.737c-191.35-9.1-350.916-83.861-472.725-233.414
		c-62.266-76.447-101.189-164.274-115.295-261.979c-22.21-153.861,15.259-292.863,108.073-417.226
		c24.084-32.271,52.577-60.496,81.368-88.442c6.936-6.732,13.804-13.53,21.278-20.861c2.299,3.209,4.277,5.781,6.06,8.482
		c9.579,14.496,19.095,29.033,28.659,43.537c61.375,93.078,147.183,151.471,254.705,178.584
		c52.664,13.28,106.157,16.373,160.15,10.322c1.844-0.207,3.664-0.622,6.9-1.183c-98.196-82.461-141.985-185.682-121.291-311.865
		c15.23-92.863,64.944-165.523,144.598-215.64c87.031-54.758,180.827-65.225,277.744-31.291
		c97.088,33.996,161.551,102.475,197.932,198.913c37.722,0,75.375,0,112.745,0C1636.272,552.934,1637.246,731.446,1635.021,753.087z
		"/>
</g>
</svg>
