<?xml version="1.0" encoding="utf-8"?>
<!-- Generator: Adobe Illustrator 16.0.0, SVG Export Plug-In . SVG Version: 6.00 Build 0)  -->
<!DOCTYPE svg PUBLIC "-//W3C//DTD SVG 1.1//EN" "http://www.w3.org/Graphics/SVG/1.1/DTD/svg11.dtd">
<svg version="1.1" id="Capa_1" xmlns="http://www.w3.org/2000/svg" xmlns:xlink="http://www.w3.org/1999/xlink" x="0px" y="0px"
	 width="1900px" height="1900px" viewBox="-674 -674 1900 1900" enable-background="new -674 -674 1900 1900" xml:space="preserve">
<g>
	<path fill="#F2F2F2" stroke="#2F2F2F" stroke-width="24" stroke-miterlimit="10" d="M-127.721,484.933
		c-33.574,25.493-86.468,46.107-118.083,46.107c-3.939,0-7.78-0.394-11.417-1.12c-1.997,3.317-4.309,6.479-7.478,9.046
		c-96.26,78.019-248.962,233.949-248.991,320.306c0,10.986,3.144,17.897,10.916,23.819c42.36,32.158,181.631,13.215,267.01-10.463
		c5.375-1.443,10.744-1.184,15.824-0.135c30.148-57.975,163.183-103.788,333.019-114.912v-452.94l-1.114-1.446L-127.721,484.933z"/>
	<path fill="#F2F2F2" stroke="#2F2F2F" stroke-width="24" stroke-miterlimit="10" d="M-736.5-732.5v2000h2000v-2000H-736.5z
		 M1002.561-157.363L700.771,83.85c-13.152,10.506-32.424,8.417-42.943-4.82L576.971-22.066L387.079,128.811l62.084,80.382
		c11.384,14.714,8.686,35.807-6.051,47.227l-195.35,150.854v349.053c205.942,9.055,365.187,68.747,365.187,141.126
		c0,78.635-187.987,142.49-419.853,142.49c-193.971,0-356.772-44.734-404.953-105.388c-1.979,0.968-3.676,2.335-5.903,3.023
		c-15.689,4.345-111.257,29.792-200.084,29.792c-48.689,0-95.372-7.581-125.612-30.652c-24.619-18.668-37.562-45.438-37.596-77.446
		c0-146.685,245.896-349.997,273.956-372.696c3.532-2.835,7.429-4.776,11.478-6.016c0.092-1.458-0.036-2.767,0.163-4.282
		c4.266-30.188,33.25-77.36,64.839-105.318L3.916,163.327l-35.355-45.706c-11.375-14.714-8.661-35.894,6.055-47.294L178.068-86.817
		c14.717-11.371,35.872-8.612,47.237,6.138l55.677,72.112l187.737-149.136l-82.691-103.455
		c-10.561-13.135-8.407-32.366,4.776-42.869l301.861-241.212c65.846-52.668,161.962-41.897,214.553,23.949l119.362,149.366
		C1079.202-306.019,1068.479-209.961,1002.561-157.363z"/>
</g>
</svg>
