<?xml version="1.0" encoding="utf-8"?>
<!-- Generator: Adobe Illustrator 16.0.0, SVG Export Plug-In . SVG Version: 6.00 Build 0)  -->
<!DOCTYPE svg PUBLIC "-//W3C//DTD SVG 1.1//EN" "http://www.w3.org/Graphics/SVG/1.1/DTD/svg11.dtd">
<svg version="1.1" id="Capa_1" xmlns="http://www.w3.org/2000/svg" xmlns:xlink="http://www.w3.org/1999/xlink" x="0px" y="0px"
	 width="2000px" height="2000px" viewBox="-660 -660 2000 2000" enable-background="new -660 -660 2000 2000" xml:space="preserve">
<polygon fill="none" stroke="#2F2F2F" stroke-width="24" stroke-miterlimit="10" points="207.562,654.86 174.392,670.18 
	174.392,686.697 462.402,686.697 462.402,670.18 429.229,654.86 "/>
<path fill="none" stroke="#2F2F2F" stroke-width="24" stroke-miterlimit="10" d="M119.574,243.969v22.75h25.903v-22.75
	c0-13.374,10.914-24.231,24.389-24.231h45.679c13.449,0,24.386,10.826,24.386,24.231v22.72h397.702c0-1.726,0-3.482,0-5.316
	c0-12.988,10.912-23.506,24.378-23.506h71.178l55.909-125.085l13.435,5.983l13.717-24.899H-273.629
	c-16.797,0-30.469,13.614-30.469,30.321v142.528h88.512v-22.748c0-13.375,10.886-24.232,24.367-24.232h45.705
	c13.451,0,24.354,10.826,24.354,24.232v22.748h25.901v-22.748c0-13.375,10.928-24.232,24.397-24.232h45.693
	c13.438,0,24.386,10.826,24.386,24.232v22.748h25.889v-22.748c0-13.375,10.894-24.232,24.376-24.232h45.703
	C108.666,219.735,119.574,230.561,119.574,243.969z"/>
<path fill="none" stroke="#2F2F2F" stroke-width="24" stroke-miterlimit="10" d="M786.54,237.903h30.924
	c13.438,0,24.35,10.519,24.35,23.507v5.316h124.97V124.195c0-16.707-13.649-30.324-30.475-30.324h-92.218l-19.186,34.788
	l8.728,3.882L786.54,237.903z"/>
<path fill="none" stroke="#2F2F2F" stroke-width="24" stroke-miterlimit="10" d="M1.038,459.02
	c14.27-0.968,25.554-12.677,25.554-27.102c0-15.068-12.317-27.285-27.426-27.285c-13.852,0-25.191,10.274-27.072,23.53
	c-33.688-28.771-77.408-46.229-125.333-46.229c-44.978,0-86.24,15.402-119.032,41.09c0.028-0.553,0.18-1.098,0.18-1.674
	c0-15.093-12.312-27.291-27.44-27.291c-15.143,0-27.426,12.198-27.426,27.291c0,15.068,12.284,27.284,27.426,27.284
	c0.15,0,0.259-0.028,0.406-0.028c-29.108,33.585-46.848,77.293-46.848,125.125c0,48.038,17.849,91.812,47.154,125.482
	c-1.226-0.184-2.475-0.417-3.751-0.417c-15.114,0-27.426,12.271-27.426,27.29c0,15.146,12.312,27.345,27.426,27.278
	c15.161,0,27.429-12.245,27.429-27.32c0-1.38-0.215-2.796-0.414-4.142c33.283,27.2,75.865,43.577,122.317,43.577
	c46.479,0,89.071-16.377,122.354-43.577c-0.194,1.346-0.426,2.757-0.426,4.142c0,15.077,12.282,27.32,27.426,27.32
	c15.128,0,27.44-12.245,27.44-27.32c0-15.03-12.312-27.304-27.44-27.304c-1.275,0-2.524,0.233-3.751,0.417
	c29.319-33.672,47.168-77.449,47.168-125.485C39.528,530.648,25.145,491,1.038,459.02z"/>
<path fill="none" stroke="#2F2F2F" stroke-width="24" stroke-miterlimit="10" d="M991.194,431.978
	c0-15.075-12.291-27.288-27.486-27.348c-13.831,0-25.176,10.277-27.034,23.529c-33.677-28.771-77.405-46.229-125.32-46.229
	c-45.028,0-86.267,15.402-119.032,41.093c0-0.55,0.176-1.101,0.176-1.677c0-15.09-12.305-27.288-27.425-27.288
	c-15.164,0-27.455,12.198-27.455,27.288c0,15.071,12.288,27.284,27.455,27.284c0.101,0,0.246-0.028,0.377-0.028
	c-29.112,33.585-46.858,77.293-46.858,125.128c0,48.038,17.849,91.812,47.193,125.482c-1.278-0.187-2.494-0.414-3.772-0.414
	c-15.147,0-27.431,12.268-27.431,27.287c0,15.088,12.28,27.317,27.431,27.317c15.131,0,27.425-12.229,27.425-27.317
	c0-1.366-0.218-2.757-0.404-4.143c33.272,27.218,75.864,43.592,122.324,43.592c46.423,0,89.062-16.374,122.346-43.592
	c-0.245,1.383-0.463,2.771-0.463,4.143c0,15.088,12.318,27.317,27.428,27.317c15.153,0,27.486-12.229,27.486-27.317
	c0-15.014-12.333-27.287-27.486-27.287c-1.275,0-2.514,0.228-3.73,0.414c29.313-33.67,47.193-77.441,47.193-125.482
	c0-43.042-14.426-82.675-38.502-114.656C979.863,458.108,991.194,446.398,991.194,431.978z"/>
<path fill="#F2F2F2" stroke="#2F2F2F" stroke-width="24" stroke-miterlimit="10" d="M-767.434-776.792v2238.224H1470.79V-776.792
	H-767.434z M1193.541,948.307h-77.21v30.623c0,15.788-12.857,28.584-28.744,28.584H918.803c-15.837,0-28.747-12.793-28.747-28.584
	v-30.623H-214.321v30.623c0,15.788-12.828,28.584-28.705,28.584h-168.817c-15.846,0-28.706-12.793-28.706-28.584v-30.659h-89.823
	V257.076h68.25V87.327c0-43.347,35.406-78.593,78.989-78.593H924.931l150.349-272.688c-5.234-5.913-8.603-13.611-8.603-22.137
	c0-18.392,15.017-33.333,33.532-33.333c18.514,0,33.529,14.941,33.529,33.333c0,17.834-14.106,32.252-31.766,33.199L957.704,8.763
	h85.021c43.541,0,79.01,35.271,79.01,78.592v169.757h71.806V948.307z"/>
<polygon fill="none" stroke="#2F2F2F" stroke-width="24" stroke-miterlimit="10" points="97.405,459.264 97.405,686.697 
	149.989,686.697 149.989,654.716 202.148,630.63 434.583,630.63 486.78,654.716 486.78,686.697 539.325,686.697 539.325,459.264 "/>
<g>
	
		<rect x="251.328" y="553.285" fill="none" stroke="#2F2F2F" stroke-width="24" stroke-miterlimit="10" width="134.124" height="40.931"/>
	<path fill="none" stroke="#2F2F2F" stroke-width="24" stroke-miterlimit="10" d="M447.165,545.667
		c15.166,0,27.429,12.24,27.429,27.316c0,15.061-12.266,27.287-27.429,27.287c-15.137,0-27.427-12.229-27.427-27.287
		C419.734,557.904,432.028,545.667,447.165,545.667z"/>
	<path fill="none" stroke="#2F2F2F" stroke-width="24" stroke-miterlimit="10" d="M192.68,545.667
		c15.166,0,27.449,12.24,27.449,27.316c0,15.061-12.283,27.287-27.449,27.287c-15.142,0-27.426-12.229-27.426-27.287
		C165.254,557.904,177.538,545.667,192.68,545.667z"/>
</g>
<g>
	<path fill="none" stroke="#2F2F2F" stroke-width="24" stroke-miterlimit="10" d="M811.356,409.246
		c-91.158,0-165.338,73.782-165.338,164.481s74.18,164.51,165.338,164.51c91.174,0,165.312-73.808,165.312-164.51
		C976.699,483.028,902.53,409.246,811.356,409.246z M811.356,713.987c-77.718,0-140.966-62.896-140.966-140.2
		c0-77.347,63.248-140.269,140.966-140.269c77.706,0,140.981,62.922,140.981,140.269
		C952.333,651.077,889.093,713.987,811.356,713.987z"/>
	<path fill="none" stroke="#2F2F2F" stroke-width="24" stroke-miterlimit="10" d="M-153.239,738.273
		c91.191,0,165.328-73.779,165.328-164.479c0-90.72-74.139-164.51-165.328-164.51c-91.167,0-165.338,73.79-165.338,164.51
		C-318.577,664.438-244.409,738.273-153.239,738.273z M-153.239,433.521c77.731,0,140.962,62.891,140.962,140.209
		c0,77.347-63.231,140.257-140.962,140.257c-77.695,0-140.949-62.91-140.949-140.257
		C-294.194,496.412-230.965,433.521-153.239,433.521z"/>
	<path fill="none" stroke="#2F2F2F" stroke-width="24" stroke-miterlimit="10" d="M-153.239,522.938
		c28.204,0,51.065,22.729,51.065,50.794c0,28.067-22.864,50.823-51.065,50.823c-28.198,0-51.058-22.756-51.058-50.823
		C-204.297,545.667-181.437,522.938-153.239,522.938z"/>
	<path fill="none" stroke="#2F2F2F" stroke-width="24" stroke-miterlimit="10" d="M811.356,522.938
		c28.181,0,51.023,22.729,51.023,50.794c0,28.067-22.843,50.823-51.023,50.823c-28.192,0-51.077-22.756-51.077-50.823
		C760.279,545.667,783.158,522.938,811.356,522.938z"/>
</g>
</svg>
