<?xml version="1.0" encoding="utf-8"?>
<!-- Generator: Adobe Illustrator 16.0.0, SVG Export Plug-In . SVG Version: 6.00 Build 0)  -->
<!DOCTYPE svg PUBLIC "-//W3C//DTD SVG 1.1//EN" "http://www.w3.org/Graphics/SVG/1.1/DTD/svg11.dtd">
<svg version="1.1" id="Capa_1" xmlns="http://www.w3.org/2000/svg" xmlns:xlink="http://www.w3.org/1999/xlink" x="0px" y="0px"
	 width="2000px" height="2000px" viewBox="-723.5 -723.5 2000 2000" enable-background="new -723.5 -723.5 2000 2000"
	 xml:space="preserve">
<g>
	<path fill="#F2F2F2" stroke="#2F2F2F" stroke-width="41.27" stroke-miterlimit="10" d="M515.089,222.999
		c0-146.508-115.949-265.269-259.027-265.269C112.999-42.27-2.956,76.526-2.956,222.999c0,146.508,115.99,265.269,259.018,265.269
		C399.079,488.268,515.089,369.507,515.089,222.999z M186.987,222.999c0-39.056,30.935-70.735,69.078-70.735
		c38.16,0,69.067,31.683,69.067,70.735c0,39.053-30.907,70.747-69.067,70.747C217.922,293.746,186.987,262.049,186.987,222.999z"/>
	<path fill="#F2F2F2" stroke="#2F2F2F" stroke-width="41.27" stroke-miterlimit="10" d="M184.934-200.218
		c-6.826-20.825-28.75-32.019-49.215-25.063C20.722-185.594-80.198-106.841-148.436-3.412
		c-11.996,18.158-7.345,42.891,10.453,55.237c6.667,4.637,14.219,6.76,21.733,6.76c12.458,0,24.689-6.098,32.198-17.487
		c58.737-89.029,145.578-156.882,244.551-190.866C180.842-156.799,191.771-179.396,184.934-200.218z"/>
	<path fill="#F2F2F2" stroke="#2F2F2F" stroke-width="41.27" stroke-miterlimit="10" d="M131.095-298.063
		c20.535-6.365,32.109-28.622,25.895-49.637c-6.212-21.023-28.073-32.852-48.44-26.492
		C-54.179-323.604-193.583-214.011-284.047-65.699c-11.342,18.661-5.814,43.181,12.384,54.839c6.396,4.11,13.527,6.077,20.587,6.077
		c12.915,0,25.613-6.671,32.96-18.767C-137.66-155.6-13.6-253.07,131.095-298.063z"/>
	<path fill="#F2F2F2" stroke="#2F2F2F" stroke-width="41.27" stroke-miterlimit="10" d="M51.403-440.287
		c20.336-6.966,31.265-29.565,24.433-50.392c-6.827-20.828-28.875-32.091-49.214-24.999
		c-176.396,60.857-329.529,182.834-431.202,343.388c-11.66,18.386-6.546,43.084,11.467,55.046
		c6.544,4.294,13.836,6.361,21.104,6.361c12.735,0,25.21-6.361,32.625-18.124C-247.2-274.592-108.366-385.113,51.403-440.287z"/>
	<path fill="#F2F2F2" stroke="#2F2F2F" stroke-width="48.08" stroke-miterlimit="10" d="M-971-1011v2404h2404v-2404H-971z
		 M256.065,1133.757c-491.166,0-889.316-407.738-889.316-910.758c0-503.026,398.15-910.814,889.316-910.814
		c491.185,0,889.319,407.788,889.319,910.814C1145.385,726.013,747.25,1133.757,256.065,1133.757z"/>
	<path fill="#F2F2F2" stroke="#2F2F2F" stroke-width="41.27" stroke-miterlimit="10" d="M302.082,695.896
		c143.003-27.607,272.483-114.158,355.345-237.425c12.177-18.154,7.722-42.888-9.98-55.385
		c-17.686-12.436-41.87-7.842-54.011,10.256c-71.338,106.181-182.768,180.595-305.691,204.394
		c-21.101,4.027-34.973,24.85-31.036,46.452c3.517,19.137,19.84,32.389,38.077,32.36
		C297.28,696.542,299.655,696.368,302.082,695.896z"/>
	<path fill="#F2F2F2" stroke="#2F2F2F" stroke-width="41.27" stroke-miterlimit="10" d="M330.232,843.418
		c176.815-34.292,332.596-135.872,438.695-285.955c12.521-17.838,8.638-42.693-8.708-55.583
		c-17.455-12.883-41.725-8.846-54.276,8.916c-94.355,133.54-232.959,223.885-390.211,254.462
		c-21.058,4.162-34.916,24.988-30.91,46.505c3.523,19.169,19.834,32.438,38.119,32.371
		C325.363,844.134,327.774,843.946,330.232,843.418z"/>
	<path fill="#F2F2F2" stroke="#2F2F2F" stroke-width="41.27" stroke-miterlimit="10" d="M831.771,584.668
		C718.598,765.925,535.697,891.201,329.927,928.422c-21.12,3.773-35.193,24.474-31.505,46.074
		c3.357,19.275,19.75,32.863,38.253,32.863c2.226,0,4.539-0.188,6.798-0.583c227.124-41.061,428.938-179.296,553.755-379.239
		c11.56-18.573,6.294-43.138-11.825-54.984C867.415,560.788,843.332,566.111,831.771,584.668z"/>
</g>
</svg>
