<?xml version="1.0" encoding="utf-8"?>
<!-- Generator: Adobe Illustrator 16.0.0, SVG Export Plug-In . SVG Version: 6.00 Build 0)  -->
<!DOCTYPE svg PUBLIC "-//W3C//DTD SVG 1.1//EN" "http://www.w3.org/Graphics/SVG/1.1/DTD/svg11.dtd">
<svg version="1.1" xmlns="http://www.w3.org/2000/svg" xmlns:xlink="http://www.w3.org/1999/xlink" x="0px" y="0px" width="1800px"
	 height="1800px" viewBox="0 0 1800 1800" enable-background="new 0 0 1800 1800" xml:space="preserve">
<g id="Capa_1">
	<path fill="#2F2F2F" d="M1449.373,550.501c0-91.676-100.209-163.493-228.134-163.493c-54.945,0-106.546,13.465-147.495,38.178
		c-40.137-31.682-85.262-56.55-133.872-73.002c18.143-43.756,28.271-93.487,28.271-140.873
		C968.141,73.868,884.361,12.349,801.331,12.349c-83.031,0-166.813,61.519-166.812,198.959c0,47.385,10.132,97.115,28.272,140.873
		c-48.61,16.455-93.738,41.322-133.872,73.004c-40.953-24.712-92.554-38.181-147.496-38.181
		c-127.927,0-228.136,71.814-228.136,163.492c0,42.33,32.291,70.792,95.978,84.592c36.585,7.927,81.41,10.81,122.401,11.863
		c-18.862,53.48-29.211,111.368-29.211,171.794c0,79.063,17.783,168.706,49.223,255.565c-24.27,7.749-48.497,18.854-71.333,32.917
		c-50.994,31.396-91.904,74.678-115.192,121.872c-25.295,51.26-27.332,101.463-5.729,141.364
		c8.511,15.722,22.072,26.61,39.214,31.48c7.173,2.039,14.906,3.007,23.151,3.007c59.316,0,145.33-49.961,242.323-110.055
		c1.037-0.643,2.034-1.259,3.058-1.895c79.748,107.875,173.129,170.584,268.708,180.083v87.539
		c0,14.993,11.399,27.149,25.457,27.149c14.058,0,25.457-12.156,25.457-27.149v-87.539c95.578-9.499,188.96-72.206,268.705-180.083
		c1.026,0.637,2.028,1.257,3.064,1.898c96.995,60.094,183,110.051,242.315,110.051c8.243,0,15.981-0.965,23.151-3.002
		c17.144-4.872,30.703-15.76,39.215-31.479c42.979-79.396-10.138-195.024-120.923-263.234
		c-22.839-14.064-47.063-25.17-71.331-32.921c31.437-86.856,49.221-176.499,49.221-255.565c0-60.428-10.35-118.312-29.212-171.795
		c40.993-1.057,85.812-3.935,122.4-11.862C1417.082,621.291,1449.373,592.829,1449.373,550.501z M1090.509,512.166
		c73.372,78.706,118.783,187.09,118.783,306.583c0,9.59-0.329,19.409-0.916,29.384h-190.658l-88.664-163.78L1090.509,512.166z
		 M972.369,872.957l-85.52,157.969H715.812l-85.522-157.969l85.522-157.971H886.85L972.369,872.957z M801.331,66.645
		c71.487,0,115.896,55.432,115.896,144.662c0,42.4-10.137,88.6-27.526,127.203c-28.606-5.976-58.146-9.142-88.37-9.142
		c-30.225,0-59.763,3.166-88.371,9.142c-17.395-38.605-27.53-84.803-27.53-127.203C685.431,122.074,729.843,66.645,801.331,66.645z
		 M801.331,383.667c94.6,0,181.777,34.527,251.054,92.37L879.243,660.688H710.951L543.361,481.957
		C613.704,420.56,703.55,383.667,801.331,383.667z M669.04,692.781l-82.902,153.132H394.157c-0.503-9.208-0.791-18.286-0.791-27.165
		c0-116.118,42.875-221.752,112.626-299.854L669.04,692.781z M259.401,581.881c-34.567-7.489-55.202-19.221-55.202-31.381
		c0-59.19,81.159-109.195,177.224-109.195c37.933,0,74.581,7.806,104.925,21.904c-37.062,37.366-68.296,81.229-92.099,129.867
		C350.246,592.523,298.667,590.39,259.401,581.881z M263.001,1350.877c-4.142,0-7.919-0.451-11.255-1.4
		c-5.088-1.447-6.963-3.816-8.232-6.161c-12.549-23.176-10.174-54.76,6.691-88.927c18.87-38.238,52.818-73.797,95.597-100.137
		c21.146-13.022,43.567-23.054,65.796-29.592c17.816,41.505,38.657,81.74,62.09,119.15c1.081,1.729,2.183,3.401,3.27,5.111
		C413.468,1288.255,311.998,1350.882,263.001,1350.877z M399.694,900.21h186.561l82.099,151.646l-152.017,162.122
		C456.765,1118.499,414.905,1003.563,399.694,900.21z M801.331,1420.1c-96.377,0-184.965-66.676-254.797-161.536l162.536-173.34
		h184.519l162.54,173.34C986.296,1353.424,897.706,1420.1,801.331,1420.1z M1086.321,1213.982l-152.014-162.12l80.897-149.432
		h187.421C1187.146,1005.206,1145.471,1119.18,1086.321,1213.982z M1256.86,1154.252c83.195,51.225,130.036,137.803,102.288,189.063
		c-1.271,2.346-3.147,4.717-8.232,6.162c-42.797,12.156-156.355-57.898-225.214-100.556c1.087-1.712,2.188-3.383,3.271-5.11
		c23.432-37.407,44.273-77.645,62.089-119.15C1213.291,1131.195,1235.713,1141.229,1256.86,1154.252z M1208.409,593.075
		c-23.804-48.638-55.034-92.503-92.1-129.867c30.344-14.098,66.995-21.903,104.929-21.903c96.064,0,177.221,50.004,177.221,109.195
		c0,12.164-20.637,23.89-55.203,31.38C1303.991,590.39,1252.412,592.523,1208.409,593.075z"/>
</g>
<g id="Layer_2">
	<path fill="#F2F2F2" d="M-182.679-196.18v2000h2000v-2000H-182.679z M1353.397,635.092c-36.589,7.927-81.407,10.805-122.4,11.862
		c18.862,53.483,29.212,111.367,29.212,171.795c0,79.066-17.784,168.708-49.221,255.565c24.268,7.751,48.492,18.856,71.331,32.921
		c110.785,68.21,163.902,183.838,120.923,263.234c-8.512,15.72-22.071,26.607-39.215,31.479c-7.17,2.037-14.908,3.002-23.151,3.002
		c-59.315,0-145.32-49.957-242.315-110.051c-1.036-0.642-2.038-1.262-3.064-1.898c-79.745,107.877-173.127,170.584-268.705,180.083
		v87.539c0,14.993-11.398,27.149-25.457,27.149c-14.057,0-25.457-12.156-25.457-27.149v-87.539
		c-95.578-9.499-188.96-72.208-268.708-180.083c-1.024,0.636-2.021,1.252-3.058,1.895
		c-96.993,60.094-183.006,110.055-242.323,110.055c-8.245,0-15.979-0.968-23.151-3.007c-17.142-4.87-30.703-15.759-39.214-31.48
		c-21.603-39.901-19.566-90.104,5.729-141.364c23.289-47.194,64.199-90.476,115.192-121.872
		c22.836-14.062,47.062-25.168,71.333-32.917c-31.44-86.859-49.223-176.501-49.223-255.565c0-60.426,10.35-118.314,29.211-171.794
		c-40.991-1.053-85.815-3.936-122.401-11.863c-63.687-13.801-95.978-42.262-95.978-84.592c0-91.678,100.208-163.492,228.136-163.492
		c54.942,0,106.543,13.469,147.496,38.181c40.134-31.682,85.262-56.55,133.872-73.004c-18.141-43.758-28.272-93.488-28.272-140.873
		C634.518,73.868,718.3,12.349,801.331,12.349c83.03,0,166.81,61.519,166.812,198.961c0,47.386-10.129,97.117-28.271,140.873
		c48.61,16.453,93.735,41.32,133.872,73.002c40.949-24.712,92.55-38.178,147.495-38.178c127.925,0,228.134,71.817,228.134,163.493
		C1449.373,592.829,1417.082,621.291,1353.397,635.092z"/>
</g>
</svg>
