<?xml version="1.0" encoding="utf-8"?>
<!-- Generator: Adobe Illustrator 16.0.0, SVG Export Plug-In . SVG Version: 6.00 Build 0)  -->
<!DOCTYPE svg PUBLIC "-//W3C//DTD SVG 1.1//EN" "http://www.w3.org/Graphics/SVG/1.1/DTD/svg11.dtd">
<svg version="1.1" xmlns="http://www.w3.org/2000/svg" xmlns:xlink="http://www.w3.org/1999/xlink" x="0px" y="0px" width="2000px"
	 height="2000px" viewBox="-765.75 -764.75 2000 2000" enable-background="new -765.75 -764.75 2000 2000" xml:space="preserve">
<g id="Capa_1">
	<path fill="#F2F2F2" stroke="#2F2F2F" stroke-width="20.8696" stroke-miterlimit="10" d="M181.888,41.748
		c13.222,20.521,29.057,39.195,47.121,55.477h-94.237C152.833,80.943,168.671,62.27,181.888,41.748z"/>
	<path fill="#2F2F2F" d="M851.148,216.996c-9.932-8.258-22.999-11.683-35.706-9.346l-150.618,27.746V140.7
		c0-24.013-19.467-43.479-43.479-43.479H594.96c55.581-50.107,90.598-122.622,90.598-203.174
		c0.004-150.853-122.721-273.581-273.569-273.581c-96.465,0-181.376,50.236-230.096,125.878
		C133.165-329.296,48.263-379.533-48.206-379.533c-150.853,0-273.578,122.728-273.578,273.581
		c0,80.552,35.012,153.063,90.591,203.174h-26.386c-24.012,0-43.479,19.465-43.479,43.479v519.821
		c0,24.016,19.467,43.479,43.479,43.479h339.13l-169.2,169.205c-16.98,16.98-16.98,44.508,0,61.488
		c16.984,16.983,44.511,16.977,61.488,0l208.045-208.044l208.042,208.044c8.495,8.491,19.623,12.734,30.751,12.734
		c11.117,0,22.255-4.246,30.747-12.734c16.977-16.978,16.977-44.508,0-61.488L282.223,704h339.13
		c24.005,0,43.479-19.463,43.479-43.479v-94.694l150.611,27.752c2.622,0.489,5.262,0.72,7.887,0.72
		c10.075,0,19.939-3.512,27.816-10.068c9.929-8.261,15.662-20.502,15.662-33.41h0.004V250.405
		C866.808,237.5,861.067,225.257,851.148,216.996z M411.994-292.573c102.901,0,186.617,83.718,186.617,186.624
		c0,102.901-83.716,186.619-186.617,186.619c-102.907,0-186.616-83.714-186.616-186.619
		C225.366-208.855,309.087-292.573,411.994-292.573z M-234.824-105.949c0-102.906,83.718-186.624,186.622-186.624
		c102.9,0,186.617,83.718,186.617,186.624c0,102.901-83.716,186.619-186.617,186.619C-151.11,80.669-234.824-3.045-234.824-105.949z
		 M577.878,617.051h-791.969V184.182h791.969V617.051z M779.848,498.603l-115.014-21.188V323.82l115.014-21.189V498.603z"/>
</g>
<g id="Layer_2">
	<path fill="#F2F2F2" d="M-765.75-764.75v2000h2000v-2000H-765.75z M866.812,550.82h-0.004c0,12.908-5.733,25.149-15.662,33.41
		c-7.877,6.557-17.741,10.068-27.816,10.068c-2.625,0-5.265-0.23-7.887-0.72l-150.611-27.752v94.694
		c0,24.016-19.474,43.479-43.479,43.479h-339.13l169.201,169.205c16.977,16.98,16.977,44.511,0,61.488
		c-8.492,8.488-19.63,12.734-30.747,12.734c-11.128,0-22.256-4.243-30.751-12.734L181.884,726.649L-26.161,934.693
		c-16.977,16.977-44.504,16.983-61.488,0c-16.98-16.98-16.98-44.508,0-61.488L81.551,704h-339.13
		c-24.012,0-43.479-19.463-43.479-43.479V140.7c0-24.013,19.467-43.479,43.479-43.479h26.386
		c-55.579-50.11-90.591-122.622-90.591-203.174c0-150.853,122.726-273.581,273.578-273.581c96.469,0,181.371,50.236,230.099,125.878
		c48.72-75.642,133.631-125.878,230.096-125.878c150.849,0,273.573,122.728,273.569,273.581c0,80.552-35.017,153.067-90.598,203.174
		h26.386c24.012,0,43.479,19.465,43.479,43.479v94.696l150.618-27.746c12.707-2.337,25.774,1.088,35.706,9.346
		c9.919,8.261,15.659,20.504,15.663,33.409V550.82z"/>
</g>
</svg>
