<?xml version="1.0" encoding="utf-8"?>
<!-- Generator: Adobe Illustrator 16.0.0, SVG Export Plug-In . SVG Version: 6.00 Build 0)  -->
<!DOCTYPE svg PUBLIC "-//W3C//DTD SVG 1.1//EN" "http://www.w3.org/Graphics/SVG/1.1/DTD/svg11.dtd">
<svg version="1.1" id="Layer_1" xmlns="http://www.w3.org/2000/svg" xmlns:xlink="http://www.w3.org/1999/xlink" x="0px" y="0px"
	 width="1800px" height="1800px" viewBox="0 0 1800 1800" enable-background="new 0 0 1800 1800" xml:space="preserve">
<g id="Layer_2">
</g>
<path fill="#F2F2F2" d="M-277.788-253.786v2118.212h2211.222V-253.786H-277.788z M1327.994,1482.312L1327.994,1482.312
	c-0.001,64.891-52.794,117.684-117.686,117.684H389.691c-64.893,0-117.686-52.793-117.686-117.684V722.119
	c0-114.426,35.848-222.902,103.731-314.315v-95.993c0-64.891,52.793-117.684,117.685-117.684h141.316
	C654.221,92.762,740.395,0,800.018,0s145.8,92.762,165.281,194.13h141.311c64.891,0,117.688,52.793,117.688,117.685l-0.021,96.007
	c67.878,91.409,103.718,199.88,103.718,314.302V1482.312z"/>
<path display="none" fill="#2F2F2F" d="M1224.275,407.821l0.021-96.007c0-64.892-52.797-117.685-117.688-117.685H965.298
	C945.816,92.762,859.641,0,800.018,0S654.221,92.762,634.739,194.126H493.423c-64.892,0-117.685,52.793-117.685,117.684v95.993
	c-67.885,91.413-103.731,199.891-103.731,314.315v760.192c0,64.892,52.793,117.685,117.686,117.685h820.616
	c64.893,0,117.686-52.793,117.686-117.685V722.123C1327.993,607.701,1292.153,499.23,1224.275,407.821z"/>
<g>
	<path fill="#2F2F2F" d="M1194.959,1112.42H934.046c-14.256,0-25.807,11.555-25.807,25.807v85.713v221.254
		c0,14.252,11.551,25.807,25.807,25.807c14.255,0,25.806-11.555,25.806-25.807v-105.321c27.725,25.049,64.435,40.33,104.65,40.33
		s76.928-15.281,104.65-40.33v105.317c0,14.253,11.551,25.807,25.807,25.807s25.807-11.554,25.807-25.807v-221.254v-85.713
		C1220.766,1123.975,1209.215,1112.42,1194.959,1112.42z M1169.153,1223.938L1169.153,1223.938
		c-0.001,57.707-46.948,104.653-104.651,104.653s-104.65-46.947-104.65-104.653v-59.904h209.302V1223.938z"/>
	<path fill="#2F2F2F" d="M667.318,1112.42H406.405c-14.256,0-25.808,11.555-25.808,25.807v85.713v221.254
		c0,14.252,11.552,25.807,25.808,25.807c14.255,0,25.806-11.555,25.806-25.807v-105.321c27.724,25.049,64.434,40.33,104.65,40.33
		c40.216,0,76.928-15.281,104.649-40.33v105.317c0,14.253,11.552,25.807,25.808,25.807s25.807-11.554,25.807-25.807v-221.254
		v-85.713C693.125,1123.975,681.574,1112.42,667.318,1112.42z M641.513,1223.938L641.513,1223.938
		c-0.001,57.707-46.948,104.653-104.65,104.653c-57.703,0-104.65-46.947-104.65-104.653v-59.904h209.301V1223.938z"/>
	<path fill="#2F2F2F" d="M1224.276,407.822l0.021-96.007c0-64.892-52.797-117.685-117.688-117.685H965.299
		C945.817,92.762,859.641,0,800.018,0S654.221,92.762,634.738,194.127H493.422c-64.892,0-117.685,52.793-117.685,117.684v95.993
		c-67.884,91.413-103.731,199.89-103.731,314.315v760.193c0,64.891,52.793,117.684,117.686,117.684h820.617
		c64.892,0,117.685-52.793,117.685-117.684h0.001V722.124C1327.994,607.702,1292.154,499.231,1224.276,407.822z M875.716,114.598
		c15.895,22.559,29.724,49.831,36.88,79.532h-36.88V114.598z M775.932,61.636c9.624-6.462,18.067-10.022,24.086-10.022
		s14.463,3.558,24.086,10.02v132.494h-48.172V61.636z M724.318,114.598v79.529h-36.876
		C694.6,164.428,708.425,137.156,724.318,114.598z M427.348,311.814h0.004c0-36.432,29.641-66.072,66.071-66.072h449.421
		c0.012,0,0.024,0,0.035,0c0.014,0,0.027,0,0.041,0h163.688c36.435,0,66.074,29.64,66.074,66.068l-0.034,169.91
		c0,173.839-119.659,320.244-280.934,361.211v-95.981c0-14.253-11.551-25.808-25.806-25.808c-14.256,0-25.808,11.555-25.808,25.808
		v105.256c-13.179,1.417-26.557,2.164-40.104,2.164s-26.925-0.747-40.104-2.164V746.949c0-14.253-11.551-25.808-25.807-25.808
		c-14.255,0-25.806,11.555-25.806,25.808v95.981C547.008,801.96,427.348,655.556,427.348,481.72V311.814z M759.896,957.592v-53.522
		c13.205,1.245,26.576,1.909,40.104,1.909s26.896-0.664,40.104-1.909v53.522H759.896z M840.104,1009.204v15.832
		c0,22.114-17.991,40.103-40.104,40.103s-40.104-17.991-40.104-40.103v-15.832H840.104z M1276.38,1482.314
		c0,36.434-29.64,66.071-66.071,66.071H389.691c-36.433,0-66.071-29.639-66.071-66.071V722.123c0-77.12,18.054-151.232,52.7-218.175
		c9.987,192.554,148.969,351.527,331.964,392.014v61.63h-4.288c-14.255,0-25.807,11.555-25.807,25.807s11.552,25.807,25.807,25.807
		h4.288v15.832c0,50.573,41.142,91.716,91.716,91.716s91.716-41.146,91.716-91.716v-15.832h4.288
		c14.255,0,25.807-11.555,25.807-25.807s-11.552-25.807-25.807-25.807h-4.288v-61.63
		c182.999-40.487,321.977-199.463,331.964-392.014c34.646,66.938,52.7,141.055,52.7,218.175V1482.314z"/>
</g>
<rect x="-277.788" y="-253.786" fill="none" stroke="#2F2F2F" stroke-width="14" stroke-miterlimit="10" width="2211.222" height="2118.212"/>
<rect x="-277.788" y="-253.786" display="none" fill="none" stroke="#2F2F2F" stroke-width="14" stroke-miterlimit="10" width="2211.222" height="2118.212"/>
<path display="none" fill="none" stroke="#2F2F2F" stroke-width="14" stroke-miterlimit="10" d="M1327.993,1482.312
	c0,64.891-52.793,117.684-117.685,117.684H389.691c-64.893,0-117.686-52.793-117.686-117.684V722.119
	c0-114.426,35.848-222.902,103.731-314.315v-95.993c0-64.891,52.793-117.684,117.685-117.684h141.316
	C654.221,92.762,740.395,0,800.018,0s145.8,92.762,165.281,194.13h141.311c64.891,0,117.688,52.793,117.688,117.685l-0.021,96.007
	c67.878,91.409,103.718,199.88,103.718,314.302L1327.993,1482.312L1327.993,1482.312z"/>
</svg>
