<?xml version="1.0" encoding="utf-8"?>
<!-- Generator: Adobe Illustrator 16.0.0, SVG Export Plug-In . SVG Version: 6.00 Build 0)  -->
<!DOCTYPE svg PUBLIC "-//W3C//DTD SVG 1.1//EN" "http://www.w3.org/Graphics/SVG/1.1/DTD/svg11.dtd">
<svg version="1.1" id="Capa_1" xmlns="http://www.w3.org/2000/svg" xmlns:xlink="http://www.w3.org/1999/xlink" x="0px" y="0px"
	 width="2000px" height="2000px" viewBox="-200 -200 2000 2000" enable-background="new -200 -200 2000 2000" xml:space="preserve">
<path fill="#F2F2F2" stroke="#2F2F2F" stroke-width="20" stroke-miterlimit="10" d="M-310.792-316.792v2262.226h2262.226V-316.792
	H-310.792z M1566.396,997.723h-33.101c0,18.595-15.112,33.672-33.707,33.672c-0.179,0-0.39,0-0.64,0h-113.493
	c-25.993,59.379-85.228,101.05-154.135,101.05s-128.145-41.671-154.135-101.05H434.912c-26.098,59.379-85.299,101.05-154.203,101.05
	s-128.105-41.671-154.132-101.05H84.195c-17.173,0-31.644-13.014-33.422-30.08c-0.036-0.425-0.178-1.811-0.321-3.625H33.636
	C15.041,997.689,0,982.577,0,964.018c0-18.595,15.041-33.671,33.642-33.671H54.69c7.75-45.728,27.84-106.915,78.364-163.842
	c100.658-113.457,310.578-127.855,389.937-129.102c54.363-109.333,74.489-121.245,81.314-125.299
	c50.56-29.972,147.661-44.55,296.746-44.55c230.081,0,413.121,101.477,558.899,290.526c31.18,40.389,50.81,116.585,61.83,172.301
	h44.621c18.56,0,33.601,15.041,33.595,33.669C1599.997,982.613,1584.956,997.723,1566.396,997.723z"/>
<path fill="none" stroke="#2F2F2F" stroke-width="20" stroke-miterlimit="10" d="M280.712,1065.102
	c-55.68,0-101.012-45.296-101.012-101.051c0-55.752,45.296-101.083,101.012-101.083c55.752,0,101.119,45.334,101.119,101.083
	C381.834,1019.806,336.464,1065.102,280.712,1065.102z"/>
<path d="M877.798,673.353c0,9.317-7.503,16.853-16.853,16.853H599.363c-5.76,0-11.128-3.021-14.224-7.928
	c-3.128-4.942-3.413-11.096-0.854-16.284c12.339-25.387,34.704-69.369,45.406-78.507C665.32,564.838,736.75,554.1,843.808,554.1
	c5.831,0,11.663,0.071,17.563,0.179c9.102,0.214,16.391,7.717,16.391,16.853L877.798,673.353L877.798,673.353z"/>
<path d="M911.541,673.353v-97.458c0-4.8,2.096-9.388,5.652-12.588c3.593-3.2,8.356-4.8,13.156-4.16
	c118.542,13.938,209.705,53.155,244.02,104.89c3.449,5.192,3.699,11.806,0.781,17.28c-2.878,5.475-8.639,8.889-14.862,8.889H928.324
	C919.114,690.205,911.541,682.667,911.541,673.353z"/>
<path fill="none" stroke="#2F2F2F" stroke-width="20" stroke-miterlimit="10" d="M1231.327,1065.102
	c-55.68,0-101.048-45.296-101.048-101.051c0-55.752,45.332-101.083,101.048-101.083s101.048,45.334,101.048,101.083
	C1332.375,1019.806,1287.008,1065.102,1231.327,1065.102z"/>
</svg>
