<?xml version="1.0" encoding="utf-8"?>
<!-- Generator: Adobe Illustrator 16.0.0, SVG Export Plug-In . SVG Version: 6.00 Build 0)  -->
<!DOCTYPE svg PUBLIC "-//W3C//DTD SVG 1.1//EN" "http://www.w3.org/Graphics/SVG/1.1/DTD/svg11.dtd">
<svg version="1.1" id="Capa_1" xmlns="http://www.w3.org/2000/svg" xmlns:xlink="http://www.w3.org/1999/xlink" x="0px" y="0px"
	 width="2000px" height="2000px" viewBox="-200 -200 2000 2000" enable-background="new -200 -200 2000 2000" xml:space="preserve">
<path fill="#F2F2F2" d="M-334.794-292.79v2373.237h2373.237V-292.79H-334.794z M1600,1392.943c0,14.1-11.432,25.531-25.531,25.531
	H25.532c-14.1,0-25.532-11.432-25.532-25.531V344.742c0-14.101,11.432-25.532,25.532-25.532c14.101,0,25.532,11.432,25.532,25.532
	v8.889h381.688c12.569-96.953,95.612-172.106,195.933-172.106c6.771,0,13.267,2.689,18.053,7.479
	c4.79,4.79,7.479,11.282,7.479,18.053v146.574h8.51c14.101,0,25.532,11.431,25.532,25.532c0,14.1-11.432,25.532-25.532,25.532
	h-7.775c1.621,30.322,6.118,58.884,13.161,85.798l8.163-2.652c13.399-4.371,27.813,2.979,32.171,16.392
	c4.36,13.409-2.982,27.812-16.392,32.17l-7.908,2.57c11.02,27.228,24.838,52.559,40.977,76.181l5.154-3.745
	c11.408-8.289,27.381-5.76,35.663,5.648c8.289,11.407,5.76,27.373-5.647,35.663l-3.929,2.853
	c18.573,21.396,39.166,41.198,61.368,59.54l2.087-2.869c8.286-11.408,24.256-13.941,35.663-5.648
	c11.408,8.286,13.938,24.256,5.648,35.663l-2.693,3.704c122.74,85.579,280.871,135.288,416.33,169.093
	c19.269,4.811,37.764,9.171,55.649,13.393C1486.924,965.375,1600,992.055,1600,1186.417V1392.943z"/>
<path fill="#2F2F2F" d="M1330.417,928.446c-17.886-4.222-36.381-8.582-55.649-13.393c-135.459-33.805-293.59-83.514-416.33-169.093
	l2.693-3.704c8.289-11.407,5.76-27.377-5.648-35.663c-11.407-8.293-27.377-5.76-35.663,5.648l-2.087,2.869
	c-22.202-18.342-42.795-38.145-61.368-59.54l3.929-2.853c11.407-8.29,13.937-24.256,5.647-35.663
	c-8.282-11.408-24.255-13.938-35.663-5.648l-5.154,3.745c-16.139-23.622-29.957-48.953-40.977-76.181l7.908-2.57
	c13.409-4.357,20.752-18.761,16.392-32.17c-4.357-13.413-18.771-20.763-32.171-16.392l-8.163,2.652
	c-7.043-26.914-11.54-55.476-13.161-85.798h7.775c14.101,0,25.532-11.432,25.532-25.532c0-14.101-11.432-25.532-25.532-25.532h-8.51
	V207.057c0-6.771-2.689-13.263-7.479-18.053c-4.786-4.79-11.282-7.479-18.053-7.479c-100.32,0-183.363,75.153-195.933,172.106
	H51.064v-8.889c0-14.101-11.432-25.532-25.532-25.532C11.432,319.21,0,330.642,0,344.742v1048.201
	c0,14.1,11.432,25.531,25.532,25.531h1548.937c14.1,0,25.531-11.432,25.531-25.531v-206.526
	C1600,992.055,1486.924,965.375,1330.417,928.446z M1294.117,972.323c8.324,1.988,16.521,3.926,24.572,5.825
	c144.371,34.062,221.015,52.166,229.453,182.736h-254.025V972.323z M714.884,685.713c21.27,24.871,45.579,48.432,72.864,70.672
	l-71.234,98.043c-37.609-30.162-70.828-62.758-99.595-97.543L714.884,685.713z M635.4,554.812
	c12.494,31.636,28.623,61.784,48.344,90.403l-97.732,71.01c-27.132-39.01-49.103-80.433-65.702-124.017L635.4,554.812z
	 M603.162,234.815v118.815H484.367C495.02,293.232,542.765,245.467,603.162,234.815z M603.812,404.694
	c1.686,35.258,6.891,69.147,15.592,101.624l-115.111,37.402c-12.497-44.436-19.718-90.873-21.61-139.026H603.812z M51.064,404.694
	h380.507c1.934,53.716,9.978,105.44,23.993,154.859l-8.433,2.741c-13.409,4.357-20.752,18.761-16.392,32.17
	c3.507,10.791,13.516,17.65,24.276,17.65c2.614,0,5.272-0.404,7.894-1.256l8.609-2.798c18.281,48.704,42.662,94.917,73.001,138.312
	l-9.167,6.658c-11.408,8.289-13.938,24.256-5.651,35.663c4.997,6.877,12.783,10.526,20.678,10.526
	c5.201,0,10.454-1.587,14.985-4.879l10.049-7.302c31.922,38.894,68.939,75.258,111.03,108.772l-8.252,11.356
	c-8.289,11.408-5.76,27.377,5.647,35.663c4.531,3.292,9.784,4.879,14.985,4.879c7.895,0,15.681-3.649,20.678-10.526l7.874-10.836
	c88.845,62.403,195.479,113.845,325.814,157.086c13.389,4.433,27.833-2.812,32.272-16.193c4.439-13.386-2.812-27.834-16.194-32.272
	c-125.212-41.542-227.291-90.646-311.874-149.934l71.139-97.913c101.814,70.972,234.189,126.106,414.52,172.568v201.198H51.064
	V404.694z M963.782,1367.411H51.064v-52.201h836.123c14.101,0,25.532-11.432,25.532-25.532c0-14.1-11.432-25.531-25.532-25.531
	H51.064v-52.197h912.718V1367.411z M1548.937,1367.411h-534.091v-155.462h534.091V1367.411z"/>
<path fill="#2F2F2F" d="M255.319,591.901c-84.47,0-153.191,68.722-153.191,153.191s68.722,153.191,153.191,153.191
	s153.191-68.722,153.191-153.191S339.789,591.901,255.319,591.901z M255.319,847.221c-56.313,0-102.128-45.814-102.128-102.128
	s45.814-102.128,102.128-102.128s102.128,45.814,102.128,102.128S311.633,847.221,255.319,847.221z"/>
</svg>
