<?xml version="1.0" encoding="utf-8"?>
<!-- Generator: Adobe Illustrator 16.0.0, SVG Export Plug-In . SVG Version: 6.00 Build 0)  -->
<!DOCTYPE svg PUBLIC "-//W3C//DTD SVG 1.1//EN" "http://www.w3.org/Graphics/SVG/1.1/DTD/svg11.dtd">
<svg version="1.1" id="Capa_1" xmlns="http://www.w3.org/2000/svg" xmlns:xlink="http://www.w3.org/1999/xlink" x="0px" y="0px"
	 width="563px" height="563px" viewBox="-18.5 -32.5 563 563" enable-background="new -18.5 -32.5 563 563" xml:space="preserve">
<g>
	<path fill="#F2F2F2" stroke="#2F2F2F" stroke-width="6" stroke-miterlimit="10" d="M201.886,299.218l-19.71-19.716l-4.277-4.273
		c-3.335-3.333-8.73-3.333-12.057,0l-9.609,9.607c-3.327,3.333-3.327,8.73,0,12.051l25.619,25.62c3.335,3.32,8.73,3.32,12.057,0
		l9.603-9.612c3.331-3.337,3.331-8.725,0-12.051L201.886,299.218z"/>
	<path fill="#F2F2F2" stroke="#2F2F2F" stroke-width="6" stroke-miterlimit="10" d="M139.238,313.883
		c-3.335-3.333-8.728-3.333-12.055,0l-9.605,9.6c-3.327,3.34-3.327,8.729,0,12.07l25.614,25.607c3.335,3.329,8.728,3.329,12.059,0
		l9.605-9.599c3.327-3.341,3.327-8.729,0-12.071L139.238,313.883z"/>
	<path fill="#F2F2F2" stroke="#2F2F2F" stroke-width="6" stroke-miterlimit="10" d="M-32.5-47.5v606h606v-606H-32.5z
		 M499.218,30.159c-19.456-0.366-48.282,33.863-48.282,33.863c-7.614-3.103-16.677,3.441-20.308,6.461L228.779,272.345
		c-4.988,13.374-6.246,25.7,1.035,32.98c16.709,16.711,41.635,4.12,53.605-3.67c3.95-2.567,5.057-1.647,2.745,2.456l-15.962,28.379
		c-2.294,4.104-7.996,7.452-12.683,7.865c-12.048,1.096-34.029,4.814-46.888,17.674c-14.864,14.867-29.374,73.953-34.378,95.972
		c-1.042,4.593-5.185,10.143-9.328,12.375l-76.606,41.352c-4.146,2.229-6.287,0.43-4.837-4.039
		c8.141-25.07,31.677-100.242,23.815-108.108c-9.046-9.055-48.528-21.807-104.479,4.099c-4.271,1.979-5.971,0.323-4.001-3.95
		c8.154-17.754,27.364-63.01,30.507-101.617c0.384-4.699,4.187-9.16,8.815-9.989c25.381-4.646,100.401-19.219,112.935-31.75
		c11.14-11.14,18.467-39.575,21.562-53.794c1.003-4.6,5.131-9.969,9.396-11.957l39.124-18.208c4.271-1.988,5.256-0.691,2.411,3.056
		c-9.884,13.042-28.908,41.804-15.757,54.955c5.552,5.544,13.416,5.936,21.538,3.916L410.171,51.514
		c9.904-12.349,1.489-25.682,1.489-25.682L512,3.317C505.875,15.21,499.218,30.159,499.218,30.159z"/>
</g>
</svg>
