<?xml version="1.0" encoding="utf-8"?>
<!-- Generator: Adobe Illustrator 16.0.0, SVG Export Plug-In . SVG Version: 6.00 Build 0)  -->
<!DOCTYPE svg PUBLIC "-//W3C//DTD SVG 1.1//EN" "http://www.w3.org/Graphics/SVG/1.1/DTD/svg11.dtd">
<svg version="1.1" id="Capa_1" xmlns="http://www.w3.org/2000/svg" xmlns:xlink="http://www.w3.org/1999/xlink" x="0px" y="0px"
	 width="543px" height="543px" viewBox="-14.5 -14.5 543 543" enable-background="new -14.5 -14.5 543 543" xml:space="preserve">
<path fill="#F2F2F2" stroke="#2F2F2F" stroke-width="5" stroke-miterlimit="10" d="M-26.5-30.5v572h579v-572H-26.5z
	 M221.991,256.912v-1.43v-4.337v-4.337v-3.294c0-19.234,15.649-34.883,34.883-34.883c16.083,0,29.52,11.001,33.536,25.827
	c0.42,1.549,0.709,3.137,0.903,4.769c0.183,1.415,0.442,2.82,0.442,4.287v0.446v73.265c0,19.232-15.654,34.878-34.882,34.878
	c-19.234,0-34.883-15.637-34.883-34.878V256.912z M134.875,256.914c0-4.503,0.92-8.797,2.486-12.76
	c0.538-1.345,1.225-2.603,1.919-3.869c0.695-1.267,1.397-2.524,2.237-3.689c6.341-8.777,16.595-14.563,28.24-14.563
	c15.691,0,28.843,10.487,33.207,24.776c0.437,1.423,0.834,2.847,1.083,4.337c0.245,1.414,0.38,2.862,0.444,4.337
	c0.027,0.483,0.149,0.939,0.149,1.43v60.311c0,19.232-15.651,34.878-34.883,34.878c-19.235,0-34.882-15.637-34.882-34.878V256.914z
	 M500.73,391.517l-17.899,85.847c-4.185,20.083-21.877,34.488-42.402,34.519l-93.648,0.119c-0.018,0-0.035,0-0.048,0
	c-3.043,0-6.001-0.323-8.854-0.916H82.451c-26.312,0-47.712-21.407-47.712-47.713V251.901c0-10.465-3.309-37.981-7.376-61.341
	l-13.038-74.98c-6.967-40.024-4.772-66.05,6.533-77.347c9.039-9.047,21.062-14.038,33.881-14.047
	c12.797,0,24.832,4.981,33.87,14.029c12.031,12.034,15.607,38.882,18.762,62.565c0.636,4.774,1.242,9.344,1.893,13.5l14.548,93.333
	c0.884,5.637,2.976,10.973,5.908,15.825c-0.97,1.151-1.864,2.358-2.732,3.591c-0.885,1.268-1.699,2.576-2.473,3.911
	c-4.413,7.662-6.981,16.52-6.981,25.972v60.312c0,28.799,23.43,52.229,52.234,52.229c18.172,0,34.196-9.334,43.558-23.466
	c9.348,14.132,25.372,23.466,43.558,23.466c28.799,0,52.234-23.431,52.234-52.229v-73.711c0-4.703-0.688-9.247-1.865-13.584
	c-0.451-1.661-0.965-3.28-1.577-4.875c-0.62-1.614-1.312-3.194-2.077-4.732c2.484-3.737,4.61-7.659,5.939-11.797l38.659-120.642
	c1.989-6.239,3.835-13.467,5.792-21.116c5.297-20.78,10.783-42.258,21.266-52.737C384.293,4.979,396.324,0,409.113,0
	c12.804,0,24.831,4.979,33.875,14.03c18.094,18.094,3.656,66.891,0.584,76.486l-38.66,120.647
	c-7.684,23.967-13.028,45.6-13.028,50.037v164l13.21-0.018l10.717-51.374c4.88-23.449,27.819-38.527,51.313-33.616
	C490.572,345.081,505.619,368.064,500.73,391.517z"/>
</svg>
