<?xml version="1.0" encoding="utf-8"?>
<!-- Generator: Adobe Illustrator 16.0.0, SVG Export Plug-In . SVG Version: 6.00 Build 0)  -->
<!DOCTYPE svg PUBLIC "-//W3C//DTD SVG 1.1//EN" "http://www.w3.org/Graphics/SVG/1.1/DTD/svg11.dtd">
<svg version="1.1" id="Capa_1" xmlns="http://www.w3.org/2000/svg" xmlns:xlink="http://www.w3.org/1999/xlink" x="0px" y="0px"
	 width="552px" height="552px" viewBox="-20 -20 552 552" enable-background="new -20 -20 552 552" xml:space="preserve">
<g>
	<path fill="#F2F2F2" stroke="#2F2F2F" stroke-width="6" stroke-miterlimit="10" d="M141.439,335.339
		c-10.475,7.954-26.978,14.386-36.842,14.386c-1.229,0-2.427-0.123-3.562-0.35c-0.623,1.035-1.344,2.021-2.333,2.822
		c-30.033,24.342-77.676,72.993-77.685,99.936c0,3.428,0.981,5.584,3.406,7.431c13.216,10.034,56.669,4.124,83.307-3.264
		c1.677-0.45,3.352-0.369,4.937-0.042c9.406-18.088,50.913-32.382,103.902-35.853V279.088l-0.348-0.451L141.439,335.339z"/>
	<path fill="#F2F2F2" stroke="#2F2F2F" stroke-width="6" stroke-miterlimit="10" d="M-48.5-44.5v624h624v-624H-48.5z
		 M494.087,134.943l-94.158,75.258c-4.104,3.278-10.117,2.626-13.399-1.504l-25.227-31.542l-59.246,47.074l19.37,25.079
		c3.551,4.591,2.71,11.172-1.888,14.735L258.59,311.11v108.904c64.254,2.825,113.938,21.449,113.938,44.031
		c0,24.534-58.652,44.457-130.994,44.457c-60.519,0-111.313-13.957-126.345-32.881c-0.618,0.302-1.147,0.729-1.842,0.944
		c-4.895,1.355-34.712,9.294-62.426,9.294c-15.191,0-29.756-2.365-39.191-9.563C4.049,470.472,0.011,462.119,0,452.133
		c0-45.766,76.72-109.199,85.474-116.281c1.102-0.885,2.318-1.491,3.581-1.877c0.029-0.456-0.011-0.863,0.051-1.336
		c1.331-9.419,10.374-24.137,20.23-32.859l73.174-64.782l-11.031-14.26c-3.549-4.591-2.702-11.199,1.889-14.756l63.477-49.029
		c4.592-3.548,11.192-2.687,14.738,1.915l17.371,22.499l58.574-46.53l-25.8-32.278c-3.294-4.098-2.623-10.098,1.491-13.375
		l94.18-75.258c20.544-16.433,50.533-13.072,66.941,7.472l37.241,46.602C517.999,88.562,514.653,118.532,494.087,134.943z"/>
</g>
</svg>
