<?xml version="1.0" encoding="utf-8"?>
<!-- Generator: Adobe Illustrator 16.0.0, SVG Export Plug-In . SVG Version: 6.00 Build 0)  -->
<!DOCTYPE svg PUBLIC "-//W3C//DTD SVG 1.1//EN" "http://www.w3.org/Graphics/SVG/1.1/DTD/svg11.dtd">
<svg version="1.1" id="Capa_1" xmlns="http://www.w3.org/2000/svg" xmlns:xlink="http://www.w3.org/1999/xlink" x="0px" y="0px"
	 width="553px" height="553px" viewBox="-12.5 -18.5 553 553" enable-background="new -12.5 -18.5 553 553" xml:space="preserve">
<g>
	<path fill="#F2F2F2" stroke="#2F2F2F" stroke-width="6" stroke-miterlimit="10" d="M330.562,256.008
		c0-41.18-33.377-74.561-74.563-74.561c-41.182,0-74.561,33.391-74.561,74.561c0,41.18,33.389,74.561,74.561,74.561
		C297.168,330.568,330.562,297.188,330.562,256.008z M236.115,256.008c0-10.978,8.905-19.882,19.885-19.882
		c10.985,0,19.882,8.905,19.882,19.882c0,10.977-8.897,19.885-19.882,19.885C245.02,275.893,236.115,266.984,236.115,256.008z"/>
	<path fill="#F2F2F2" stroke="#2F2F2F" stroke-width="6" stroke-miterlimit="10" d="M235.524,137.052
		c-1.965-5.854-8.276-9-14.167-7.045c-33.103,11.155-62.154,33.291-81.797,62.362c-3.453,5.104-2.114,12.056,3.009,15.526
		c1.919,1.303,4.093,1.9,6.256,1.9c3.586,0,7.107-1.714,9.269-4.915c16.908-25.024,41.906-44.096,70.396-53.648
		C234.346,149.256,237.492,142.904,235.524,137.052z"/>
	<path fill="#F2F2F2" stroke="#2F2F2F" stroke-width="6" stroke-miterlimit="10" d="M220.026,109.55
		c5.911-1.789,9.243-8.045,7.454-13.952c-1.788-5.909-8.081-9.234-13.944-7.446c-46.843,14.219-86.972,45.023-113.013,86.71
		c-3.265,5.245-1.674,12.137,3.565,15.414c1.841,1.155,3.894,1.708,5.926,1.708c3.718,0,7.373-1.875,9.488-5.275
		C142.662,149.593,178.374,122.196,220.026,109.55z"/>
	<path fill="#F2F2F2" stroke="#2F2F2F" stroke-width="6" stroke-miterlimit="10" d="M197.086,69.574
		c5.854-1.958,9-8.31,7.033-14.164c-1.965-5.854-8.312-9.02-14.167-7.026c-50.777,17.105-94.858,51.39-124.126,96.518
		c-3.356,5.168-1.884,12.11,3.301,15.472c1.884,1.207,3.983,1.788,6.075,1.788c3.666,0,7.257-1.788,9.392-5.094
		C111.13,116.147,151.095,85.082,197.086,69.574z"/>
	<path fill="#F2F2F2" stroke="#2F2F2F" stroke-width="6" stroke-miterlimit="10" d="M-38.5-33.5v580h594v-580H-38.5z M256,512
		C114.613,512,0.001,397.395,0.001,256.008C0.001,114.619,114.613,0,256,0c141.393,0,256,114.619,256,256.008
		C512,397.393,397.393,512,256,512z"/>
	<path fill="#F2F2F2" stroke="#2F2F2F" stroke-width="6" stroke-miterlimit="10" d="M269.246,388.928
		c41.165-7.76,78.438-32.087,102.29-66.735c3.505-5.102,2.223-12.054-2.873-15.567c-5.091-3.495-12.053-2.204-15.548,2.883
		c-20.535,29.844-52.611,50.761-87.996,57.45c-6.074,1.132-10.067,6.984-8.934,13.056c1.012,5.379,5.711,9.104,10.961,9.096
		C267.864,389.109,268.548,389.061,269.246,388.928z"/>
	<path fill="#F2F2F2" stroke="#2F2F2F" stroke-width="6" stroke-miterlimit="10" d="M277.35,430.393
		c50.898-9.639,95.741-38.191,126.283-80.375c3.604-5.014,2.486-12-2.507-15.624c-5.024-3.62-12.011-2.486-15.624,2.506
		c-27.161,37.536-67.06,62.929-112.326,71.524c-6.062,1.17-10.051,7.023-8.898,13.071c1.014,5.388,5.709,9.117,10.973,9.099
		C275.948,430.594,276.642,430.541,277.35,430.393z"/>
	<path fill="#F2F2F2" stroke="#2F2F2F" stroke-width="6" stroke-miterlimit="10" d="M421.723,357.664
		c-32.578,50.947-85.228,86.159-144.461,96.621c-6.08,1.061-10.131,6.879-9.069,12.95c0.966,5.418,5.685,9.238,11.011,9.238
		c0.641,0,1.307-0.053,1.957-0.164c65.38-11.541,123.475-50.396,159.404-106.595c3.328-5.221,1.812-12.125-3.404-15.455
		C431.983,350.952,425.051,352.448,421.723,357.664z"/>
</g>
</svg>
