<?xml version="1.0" encoding="utf-8"?>
<!-- Generator: Adobe Illustrator 16.0.0, SVG Export Plug-In . SVG Version: 6.00 Build 0)  -->
<!DOCTYPE svg PUBLIC "-//W3C//DTD SVG 1.1//EN" "http://www.w3.org/Graphics/SVG/1.1/DTD/svg11.dtd">
<svg version="1.1" id="Capa_1" xmlns="http://www.w3.org/2000/svg" xmlns:xlink="http://www.w3.org/1999/xlink" x="0px" y="0px"
	 width="1800px" height="1800px" viewBox="-100 -100 1800 1800" enable-background="new -100 -100 1800 1800" xml:space="preserve">
<path fill="#F2F2F2" stroke="#2F2F2F" stroke-width="12" stroke-miterlimit="10" d="M-265.787-211.782v2031.204H1900.43V-211.782
	H-265.787z M1397.95,632.46c-39.629,8.051-88.173,10.974-132.573,12.047c20.429,54.317,31.64,113.104,31.64,174.475
	c0,80.3-19.262,171.341-53.312,259.552c26.284,7.873,52.523,19.152,77.26,33.435c119.992,69.274,177.523,186.706,130.973,267.341
	c-9.22,15.966-23.907,27.023-42.475,31.971c-7.766,2.069-16.147,3.049-25.075,3.049c-64.246,0-157.398-50.736-262.455-111.768
	c-1.122-0.652-2.206-1.281-3.318-1.928c-86.373,109.56-187.515,173.245-291.037,182.893v88.905
	c0,15.227-12.346,27.572-27.572,27.572s-27.572-12.346-27.572-27.572v-88.905c-103.522-9.647-204.664-73.336-291.04-182.893
	c-1.109,0.646-2.189,1.271-3.312,1.924c-105.054,61.032-198.216,111.771-262.462,111.771c-8.93,0-17.306-0.982-25.075-3.053
	c-18.567-4.946-33.255-16.004-42.474-31.971c-23.398-40.524-21.192-91.511,6.205-143.57c25.224-47.93,69.534-91.887,124.766-123.773
	c24.734-14.282,50.974-25.562,77.261-33.431c-34.053-88.215-53.315-179.256-53.315-259.553c0-61.369,11.21-120.16,31.64-174.474
	c-44.398-1.07-92.948-3.997-132.574-12.048c-68.979-14.017-103.954-42.922-103.954-85.912c0-93.109,108.537-166.043,247.096-166.043
	c59.508,0,115.398,13.679,159.754,38.777c43.47-32.176,92.348-57.432,144.998-74.144c-19.648-44.44-30.622-94.946-30.622-143.071
	C619.325,62.479,710.07,0,800.002,0c89.931,0,180.673,62.479,180.676,202.066c0,48.125-10.971,98.631-30.621,143.071
	c52.65,16.709,101.527,41.965,144.998,74.141c44.352-25.098,100.242-38.773,159.753-38.773
	c138.556,0,247.094,72.937,247.094,166.044C1501.901,589.537,1466.927,618.443,1397.95,632.46z"/>
<path fill="none" stroke="#2F2F2F" stroke-width="12" stroke-miterlimit="10" d="M1241.868,818.981
	c0,9.741-0.356,19.712-0.992,29.843h-206.504L938.34,682.488l174.873-174.873C1192.683,587.549,1241.868,697.624,1241.868,818.981z"
	/>
<path fill="none" stroke="#2F2F2F" stroke-width="12" stroke-miterlimit="10" d="M1108.678,1220.382l-164.648-164.649
	l87.621-151.764h202.997C1217.881,1008.348,1172.743,1124.1,1108.678,1220.382z"/>
<path fill="none" stroke="#2F2F2F" stroke-width="12" stroke-miterlimit="10" d="M364.985,901.714h202.066l88.922,154.013
	l-164.651,164.651C426.8,1123.408,381.461,1006.68,364.985,901.714z"/>
<path fill="none" stroke="#2F2F2F" stroke-width="12" stroke-miterlimit="10" d="M358.132,818.981
	c0-117.929,46.438-225.211,121.986-304.531l176.599,176.599l-89.792,155.521H358.988
	C358.443,837.218,358.132,827.999,358.132,818.981z"/>
<path fill="none" stroke="#2F2F2F" stroke-width="12" stroke-miterlimit="10" d="M800.002,377.111
	c102.462,0,196.885,35.066,271.918,93.811L884.389,658.455H702.11l-181.517-181.52C596.781,414.58,694.095,377.111,800.002,377.111z
	"/>
<polygon fill="none" stroke="#2F2F2F" stroke-width="12" stroke-miterlimit="10" points="707.375,1034.47 614.745,874.035 
	707.375,713.6 892.628,713.6 985.255,874.035 892.628,1034.47 707.375,1034.47 "/>
<path fill="none" stroke="#2F2F2F" stroke-width="12" stroke-miterlimit="10" d="M674.47,202.062
	c0-90.625,48.103-146.918,125.532-146.918S925.53,111.44,925.53,202.062c0,43.062-10.978,89.983-29.813,129.188
	c-30.985-6.069-62.979-9.284-95.715-9.284s-64.73,3.215-95.715,9.284C685.447,292.042,674.47,245.124,674.47,202.062z"/>
<path fill="none" stroke="#2F2F2F" stroke-width="12" stroke-miterlimit="10" d="M213.033,578.418
	c-37.44-7.606-59.79-19.521-59.79-31.87c0-60.114,87.904-110.899,191.952-110.899c41.086,0,80.78,7.928,113.646,22.246
	c-40.143,37.949-73.972,82.496-99.753,131.893C311.428,589.227,255.562,587.06,213.033,578.418z"/>
<path fill="none" stroke="#2F2F2F" stroke-width="12" stroke-miterlimit="10" d="M216.932,1359.411
	c-4.486,0-8.577-0.458-12.19-1.421c-5.511-1.47-7.542-3.877-8.917-6.258c-13.591-23.537-11.019-55.614,7.247-90.313
	c20.439-38.835,57.208-74.948,103.542-101.699c22.904-13.226,47.188-23.414,71.264-30.054c19.297,42.152,41.87,83.015,67.25,121.01
	c1.171,1.755,2.364,3.454,3.542,5.189C379.904,1295.812,270.001,1359.417,216.932,1359.411z"/>
<path fill="none" stroke="#2F2F2F" stroke-width="12" stroke-miterlimit="10" d="M800.002,1429.714
	c-104.386,0-200.337-67.715-275.973-164.056l176.044-176.044h199.854l176.048,176.044
	C1000.339,1361.999,904.387,1429.714,800.002,1429.714z"/>
<path fill="none" stroke="#2F2F2F" stroke-width="12" stroke-miterlimit="10" d="M1293.39,1159.72
	c90.109,52.023,140.843,139.953,110.789,192.013c-1.376,2.381-3.409,4.791-8.917,6.258
	c-46.354,12.346-169.35-58.801-243.931-102.125c1.177-1.738,2.371-3.435,3.542-5.189c25.38-37.992,47.953-78.857,67.25-121.01
	C1246.199,1136.303,1270.485,1146.494,1293.39,1159.72z"/>
<path fill="none" stroke="#2F2F2F" stroke-width="12" stroke-miterlimit="10" d="M1240.912,589.787
	c-25.782-49.396-59.608-93.946-99.754-131.893c32.866-14.318,72.563-22.246,113.65-22.246c104.048,0,191.948,50.785,191.948,110.899
	c0,12.353-22.351,24.264-59.79,31.87C1344.438,587.06,1288.572,589.227,1240.912,589.787z"/>
</svg>
