<?xml version="1.0" encoding="utf-8"?>
<!-- Generator: Adobe Illustrator 16.0.0, SVG Export Plug-In . SVG Version: 6.00 Build 0)  -->
<!DOCTYPE svg PUBLIC "-//W3C//DTD SVG 1.1//EN" "http://www.w3.org/Graphics/SVG/1.1/DTD/svg11.dtd">
<svg version="1.1" id="Capa_1" xmlns="http://www.w3.org/2000/svg" xmlns:xlink="http://www.w3.org/1999/xlink" x="0px" y="0px"
	 width="500px" height="500px" viewBox="-59.25 -59.25 500 500" enable-background="new -59.25 -59.25 500 500"
	 xml:space="preserve">
<path fill="#F2F2F2" stroke="#2F2F2F" stroke-width="6" stroke-miterlimit="10" d="M-107.75-110.75v575h575v-575H-107.75z
	 M361.61,267.477c0,3.711-1.648,7.23-4.503,9.605c-2.264,1.885-5.1,2.895-7.997,2.895c-0.755,0-1.513-0.067-2.267-0.207
	l-43.301-7.979v27.225c0,6.904-5.598,12.5-12.5,12.5h-97.5l48.646,48.646c4.881,4.882,4.881,12.797,0,17.678
	c-2.442,2.44-5.644,3.661-8.84,3.661c-3.199,0-6.399-1.22-8.841-3.661l-59.812-59.812l-59.813,59.812
	c-4.881,4.881-12.795,4.883-17.678,0c-4.882-4.882-4.882-12.796,0-17.678l48.645-48.646h-97.5c-6.903,0-12.5-5.596-12.5-12.5
	V149.567c0-6.904,5.597-12.5,12.5-12.5h7.586C29.956,122.66,19.89,101.813,19.89,78.654C19.89,35.284,55.174,0,98.544,0
	c27.735,0,52.144,14.443,66.153,36.19C178.704,14.443,203.116,0,230.85,0c43.369,0,78.652,35.284,78.651,78.654
	c0,23.159-10.067,44.007-26.047,58.413h7.586c6.903,0,12.5,5.596,12.5,12.5v27.225l43.303-7.977
	c3.653-0.672,7.41,0.313,10.265,2.687c2.852,2.375,4.502,5.895,4.503,9.605V267.477z"/>
<path fill="none" stroke="#2F2F2F" stroke-width="6" stroke-miterlimit="10" d="M230.852,25.001
	c29.584,0,53.652,24.069,53.652,53.654c0,29.584-24.068,53.653-53.652,53.653c-29.586,0-53.653-24.068-53.653-53.653
	C177.196,49.07,201.266,25.001,230.852,25.001z"/>
<path fill="#F2F2F2" stroke="#2F2F2F" stroke-width="6" stroke-miterlimit="10" d="M164.696,121.118
	c3.801,5.9,8.354,11.269,13.547,15.95H151.15C156.343,132.387,160.896,127.018,164.696,121.118z"/>
<path fill="none" stroke="#2F2F2F" stroke-width="6" stroke-miterlimit="10" d="M44.891,78.655
	c0-29.585,24.069-53.654,53.654-53.654c29.584,0,53.652,24.069,53.652,53.654c0,29.584-24.068,53.653-53.652,53.653
	C68.959,132.308,44.891,108.24,44.891,78.655z"/>
<rect x="50.852" y="162.068" fill="none" stroke="#2F2F2F" stroke-width="6" stroke-miterlimit="10" width="227.691" height="124.45"/>
<polygon fill="none" stroke="#2F2F2F" stroke-width="6" stroke-miterlimit="10" points="336.609,252.464 303.543,246.372 
	303.543,202.214 336.609,196.122 "/>
</svg>
