<?xml version="1.0" encoding="utf-8"?>
<!-- Generator: Adobe Illustrator 16.0.0, SVG Export Plug-In . SVG Version: 6.00 Build 0)  -->
<!DOCTYPE svg PUBLIC "-//W3C//DTD SVG 1.1//EN" "http://www.w3.org/Graphics/SVG/1.1/DTD/svg11.dtd">
<svg version="1.1" xmlns="http://www.w3.org/2000/svg" xmlns:xlink="http://www.w3.org/1999/xlink" x="0px" y="0px" width="800px"
	 height="800px" viewBox="-94 -94 800 800" enable-background="new -94 -94 800 800" xml:space="preserve">
<g id="Capa_1">
	<path d="M231.655,209.58c-6.377-13.812-20.367-22.393-36.519-22.393c-6.585,0-13.011,1.426-19.113,4.241
		c-21.481,9.915-31.475,34.188-22.283,54.107c6.383,13.813,20.373,22.393,36.524,22.393c6.585,0,13.011-1.426,19.113-4.241
		C230.859,253.772,240.853,229.5,231.655,209.58z M197.432,237.812c-2.295,1.059-4.773,1.616-7.167,1.616
		c-4.902,0-8.984-2.234-10.643-5.833c-2.558-5.557,1.261-13.011,8.348-16.285c2.295-1.059,4.773-1.616,7.167-1.616
		c4.902,0,8.984,2.234,10.644,5.832C208.344,227.083,204.519,234.544,197.432,237.812z"/>
	<path d="M158.808,364.38c0,6.903,5.765,12.668,12.668,12.668c6.904,0,12.668-5.759,12.668-12.668
		c0-6.903-5.759-12.669-12.668-12.669C164.573,351.711,158.808,357.47,158.808,364.38z"/>
	<path d="M203.141,378.309c-6.903,0-12.668,5.76-12.668,12.67c0,6.902,5.759,12.668,12.668,12.668
		c6.903,0,12.668-5.76,12.668-12.668C215.81,384.074,210.044,378.309,203.141,378.309z"/>
	<path d="M227.841,351.075c0-6.904-5.765-12.669-12.668-12.669c-6.903,0-12.668,5.759-12.668,12.669
		c0,6.903,5.759,12.668,12.668,12.668C222.083,363.743,227.841,357.984,227.841,351.075z"/>
	<path d="M487.066,295.972l-12.718,7.061l-12.717,6.432c6.053,11.958,9.118,24.872,9.118,38.385c0,46.959-38.2,85.159-85.159,85.159
		c-26.519,0-51.064-12.037-67.339-33.035l-1.561-2.014c-0.882-21.744-1.579-58.844,2.612-78.617l16.311-16.31l17.057-17.552
		c3.537-3.537,1.028-10.08-3.972-10.08H306h-42.699c-5,0-7.509,6.542-3.972,10.08l17.056,17.308l16.31,16.432
		c4.192,19.774,3.494,56.936,2.613,78.68l-1.561,2.045c-16.279,20.99-40.82,33.048-67.344,33.048
		c-46.953,0-85.16-38.195-85.16-85.147c0-13.514,3.066-26.421,9.119-38.379l-12.717-6.432l-12.717-6.432
		c-8.085,15.985-12.185,31.977-12.185,50c0.006,62.662,50.998,112.399,113.667,112.399c0.021,0,0.028,0,0.031,0v61.2H306h79.56
		v-61.2c0.003,0,0.009,0,0.031,0c62.675,0,113.66-49.731,113.66-112.405C499.251,328.574,495.15,311.958,487.066,295.972z
		 M293.76,495.721h-36.72v-37.834c12.24-3.358,24.48-9.002,36.72-16.683V495.721z M354.96,495.721h-36.72v-54.517
		c12.24,7.681,24.479,13.323,36.72,16.683V495.721z"/>
	<path d="M435.977,191.435c-6.096-2.815-12.526-4.241-19.111-4.241c-16.151,0-30.143,8.58-36.52,22.393
		c-9.199,19.914,0.796,44.186,22.277,54.101c6.095,2.815,12.527,4.241,19.112,4.241c16.149,0,30.141-8.58,36.518-22.387
		C467.445,225.622,457.452,201.35,435.977,191.435z M432.379,233.595c-1.658,3.599-5.74,5.833-10.643,5.833
		c-2.394,0-4.872-0.557-7.167-1.616c-7.094-3.274-10.912-10.734-8.349-16.286c1.659-3.598,5.741-5.832,10.644-5.832
		c2.394,0,4.872,0.557,7.167,1.616C431.118,220.584,434.943,228.038,432.379,233.595z"/>
	<path d="M440.523,351.711c-6.903,0-12.668,5.759-12.668,12.669c0,6.903,5.759,12.668,12.668,12.668
		c6.902,0,12.669-5.759,12.669-12.668C453.192,357.47,447.427,351.711,440.523,351.711z"/>
	<path d="M408.858,403.646c6.902,0,12.669-5.76,12.669-12.668c0-6.903-5.767-12.67-12.669-12.67c-6.903,0-12.668,5.76-12.668,12.67
		C396.19,397.881,401.949,403.646,408.858,403.646z"/>
	<path d="M409.489,351.075c0-6.904-5.766-12.669-12.668-12.669c-6.903,0-12.669,5.759-12.669,12.669
		c0,6.903,5.766,12.668,12.669,12.668C403.73,363.743,409.489,357.984,409.489,351.075z"/>
	<polygon points="354.96,250.921 354.96,233.791 354.96,220.321 306,220.321 257.04,220.321 257.04,233.791 257.04,250.921 
		306,250.921 	"/>
	<path d="M612,465.831c0-43.299-16.817-100.899-26.041-131.386c-8.732-28.848-19.112-55.593-27.154-73.555
		c25.351-8.844,43.25-32.993,43.25-61.316c0-35.796-29.29-64.915-65.086-64.915c-13.609,0-26.781,4.29-37.619,11.977
		c-16.004-27.932-39.585-51.916-69.021-70.086c-36.642-22.625-80.497-33.874-124.31-33.709
		c-43.808-0.171-87.658,11.083-124.297,33.703c-29.437,18.176-52.981,42.154-68.985,70.086
		c-10.838-7.681-23.929-11.977-37.54-11.977c-35.796,0-64.921,29.119-64.921,64.915c0,28.324,18.238,52.473,43.587,61.316
		c-8.048,17.962-19.095,44.707-27.828,73.556C16.818,364.932,0,422.532,0,465.831v23.115l30.765-14.8
		c-1.432,18.158-0.447,42.97,6.812,68.538l7.534,25.367l36.188-41.04c26.928,26.982,60.362,42.148,95.307,42.148H306h129.396
		c34.943,0,68.213-15.166,95.142-42.144l36.016,41.285l7.203-25.489c7.259-25.568,8.911-50.44,7.485-68.6L612,488.952V465.831z
		 M574.43,211.227l-26.15,25.979c-0.03-1.053-0.049-2.075-0.036-3.066c0.085-9.908,2.282-16.94,6.462-20.306
		c4.271-3.446,11.017-3.709,16.738-3.048C572.482,210.908,573.48,211.062,574.43,211.227z M37.571,211.227
		c0.948-0.165,1.946-0.318,2.986-0.44c5.722-0.661,12.466-0.398,16.738,3.048c4.18,3.372,6.377,10.404,6.463,20.306
		c0.006,0.992,0,2.014-0.037,3.066L37.571,211.227z M540.151,422.27l7.82,30.373c0.073,0.293,6.034,24.42,3.396,54.4l-20.899-24.101
		l-10.717,12.509c-23.103,28.158-53.061,43.108-84.357,43.108H306H176.605c-31.298,0-61.261-14.95-84.358-43.107l-10.716-12.785
		l-20.895,24.235c-2.638-29.982,3.323-54.04,3.397-54.327l7.821-30.337L32.632,441.98c3.917-35.521,14.927-75.789,22.038-99.278
		c13.403-44.29,27.412-77.277,32.363-84.058l16.652-22.791l-11.444,0.055c0.202-20.092-5.502-34.945-17.05-44.254
		c-8.299-6.695-19.266-9.963-31.897-9.584c6.2-11.254,18.183-18.905,31.916-18.905c11.849,0,22.999,5.808,29.829,15.545
		l14.645,20.875l10.104-23.409c13.109-30.374,36.243-55.092,66.91-74.021C228.351,82.59,265.713,73.44,304.735,73.44h0.257h0.3
		c0.239,0,0.471,0.006,0.71,0.006c0.238,0,0.471-0.006,0.71-0.006h0.3h0.257c39.021,0,76.378,9.149,108.05,28.703
		c30.66,18.929,53.801,44.321,66.909,74.695l10.104,23.072l14.646-21.041c6.83-9.73,17.98-15.624,29.829-15.624
		c13.733,0,25.717,7.601,31.916,18.861c-12.632-0.379-23.6,2.871-31.896,9.566c-11.549,9.314-17.253,24.156-17.051,44.248
		l-11.444-0.062l16.652,22.791c4.956,6.781,18.96,39.774,32.368,84.064c7.105,23.488,18.121,63.765,22.038,99.285L540.151,422.27z"
		/>
</g>
<g id="Layer_3">
</g>
<g id="Layer_2">
	<path fill="#F2F2F2" d="M-147.5-134.5v879h879v-879H-147.5z M612,488.952l-30.758-14.739c1.426,18.159-0.227,43.031-7.485,68.6
		l-7.203,25.489l-36.016-41.285c-26.929,26.978-60.198,42.144-95.142,42.144H306H176.606c-34.945,0-68.379-15.166-95.307-42.148
		l-36.188,41.04l-7.534-25.367c-7.259-25.568-8.244-50.38-6.812-68.538L0,488.946v-23.115c0-43.299,16.818-100.899,26.035-131.392
		c8.733-28.849,19.78-55.594,27.828-73.556c-25.349-8.843-43.587-32.992-43.587-61.316c0-35.796,29.125-64.915,64.921-64.915
		c13.611,0,26.702,4.296,37.54,11.977c16.004-27.932,39.548-51.91,68.985-70.086c36.64-22.62,80.49-33.874,124.297-33.703
		c43.812-0.165,87.668,11.084,124.31,33.709c29.436,18.17,53.017,42.154,69.021,70.086c10.838-7.687,24.01-11.977,37.619-11.977
		c35.796,0,65.086,29.119,65.086,64.915c0,28.323-17.899,52.472-43.25,61.316c8.042,17.962,18.422,44.707,27.154,73.555
		C595.183,364.932,612,422.532,612,465.831V488.952z"/>
</g>
</svg>
