<?xml version="1.0" encoding="utf-8"?>
<!-- Generator: Adobe Illustrator 16.0.0, SVG Export Plug-In . SVG Version: 6.00 Build 0)  -->
<!DOCTYPE svg PUBLIC "-//W3C//DTD SVG 1.1//EN" "http://www.w3.org/Graphics/SVG/1.1/DTD/svg11.dtd">
<svg version="1.1" xmlns="http://www.w3.org/2000/svg" xmlns:xlink="http://www.w3.org/1999/xlink" x="0px" y="0px" width="2000px"
	 height="2000px" viewBox="-200 -200 2000 2000" enable-background="new -200 -200 2000 2000" xml:space="preserve">
<g id="Layer_2">
</g>
<g id="Capa_1">
	<path fill="#F2F2F2" stroke="#2F2F2F" stroke-width="20" stroke-miterlimit="10" d="M-340.794-292.79v2208.221h2304.23V-292.79
		H-340.794z M1597.737,748.319l-231.054,483.113c-28.261,59.093-88.848,97.276-154.353,97.276H235.459
		c-77.392,0-145.378-52.229-165.318-127.014L0.783,941.604c-1.853-6.942-0.373-14.348,4.004-20.045
		c4.375-5.696,11.151-9.035,18.334-9.035h346.821V615.029c0-39.948,32.499-72.447,72.447-72.447h248.169v-52.408H590.366
		c-26.35,0-47.784-21.436-47.784-47.784v-49.326c0-26.349,21.435-47.784,47.784-47.784h100.192v-50.867
		c0-12.769,10.353-23.121,23.121-23.121c12.77,0,23.122,10.352,23.122,23.121v50.867h100.192c26.35,0,47.784,21.435,47.784,47.784
		v49.326c0,26.349-21.435,47.784-47.784,47.784H736.802v52.408h150.106c54.193,0,101.065,34.876,116.637,86.779l43.266,144.216
		c53.462-37.913,117.191-58.355,184.064-58.355h346.004c7.938,0,15.324,4.072,19.561,10.793
		C1600.672,732.735,1601.165,741.154,1597.737,748.319z"/>
	<path fill="none" stroke="#2F2F2F" stroke-width="20" stroke-miterlimit="10" d="M393.063,1035.838
		c-39.947,0-72.447,32.5-72.447,72.447s32.5,72.447,72.447,72.447c39.948,0,72.447-32.5,72.447-72.447
		S433.011,1035.838,393.063,1035.838z"/>
	<path fill="none" stroke="#2F2F2F" stroke-width="20" stroke-miterlimit="10" d="M836.994,1035.838
		c-39.947,0-72.447,32.5-72.447,72.447s32.5,72.447,72.447,72.447s72.447-32.5,72.447-72.447S876.941,1035.838,836.994,1035.838z"/>
	<path fill="none" stroke="#2F2F2F" stroke-width="20" stroke-miterlimit="10" d="M615.029,1035.838
		c-39.948,0-72.447,32.5-72.447,72.447s32.499,72.447,72.447,72.447c39.947,0,72.446-32.5,72.446-72.447
		S654.977,1035.838,615.029,1035.838z"/>
	<path fill="#2F2F2F" d="M1596.439,726.015c-4.236-6.721-11.623-10.793-19.561-10.793h-346.004
		c-66.873,0-130.603,20.442-184.064,58.355l-43.266-144.216c-15.571-51.903-62.443-86.779-116.637-86.779H736.802v-52.408h100.192
		c26.35,0,47.784-21.436,47.784-47.784v-49.326c0-26.349-21.435-47.784-47.784-47.784H736.802v-50.867
		c0-12.769-10.353-23.121-23.122-23.121c-12.769,0-23.121,10.352-23.121,23.121v50.867H590.366
		c-26.35,0-47.784,21.435-47.784,47.784v49.326c0,26.349,21.435,47.784,47.784,47.784h100.192v52.408H442.39
		c-39.948,0-72.447,32.499-72.447,72.447v297.495H23.122c-7.183,0-13.959,3.339-18.334,9.035
		c-4.377,5.697-5.857,13.103-4.004,20.045l69.358,260.091c19.94,74.784,87.926,127.014,165.318,127.014h976.872
		c65.505,0,126.092-38.184,154.353-97.276l231.054-483.113C1601.165,741.154,1600.672,732.735,1596.439,726.015z M1003.222,789.21
		H886.32c-41.646,0-75.53-33.884-75.53-75.53v-24.662c0-0.852,0.69-1.542,1.541-1.542h160.37L1003.222,789.21z M590.366,443.931
		c-0.851,0-1.542-0.69-1.542-1.541v-49.326c0-0.851,0.691-1.542,1.542-1.542h246.628c0.851,0,1.541,0.691,1.541,1.542v49.326
		c0,0.851-0.69,1.541-1.541,1.541H590.366z M416.185,687.476h101.734V789.21H416.185V687.476z M416.185,835.453h248.17
		c26.349,0,47.784-21.436,47.784-47.784v-98.651c0-26.35-21.436-47.784-47.784-47.784h-248.17v-26.204
		c0-14.449,11.755-26.205,26.205-26.205h444.519c33.116,0,61.827,21.001,71.904,52.409H812.331
		c-26.349,0-47.784,21.435-47.784,47.784v24.662c0,67.145,54.629,121.773,121.773,121.773h92.158l-77.071,77.071H416.185V835.453z
		 M564.162,789.21V687.476h100.192c0.851,0,1.542,0.69,1.542,1.542v98.651c0,0.851-0.691,1.541-1.542,1.541H564.162z
		 M1324.967,1211.48c-20.625,43.123-64.836,70.986-112.636,70.986H235.459c-56.478,0-106.087-38.113-120.641-92.687L53.216,958.767
		h857.766c6.132,0,12.014-2.436,16.349-6.772l110.619-110.619c51.532-51.53,120.049-79.91,192.925-79.91h309.317L1324.967,1211.48z"
		/>
	<path fill="#2F2F2F" d="M1246.854,1199.75c3.218,1.539,6.615,2.27,9.957,2.27c8.626,0,16.903-4.85,20.874-13.151l98.087-205.09
		c5.51-11.521,0.639-25.326-10.882-30.835c-11.518-5.506-25.326-0.639-30.835,10.883l-98.087,205.09
		C1230.459,1180.437,1235.332,1194.241,1246.854,1199.75z"/>
	<path fill="#2F2F2F" d="M1386.777,907.182c3.219,1.538,6.616,2.269,9.958,2.269c8.626,0,16.903-4.849,20.874-13.151l23.59-49.325
		c5.509-11.521,0.639-25.326-10.883-30.835c-11.518-5.509-25.325-0.638-30.834,10.883l-23.59,49.325
		C1370.387,887.864,1375.257,901.673,1386.777,907.182z"/>
</g>
</svg>
