<?xml version="1.0" encoding="utf-8"?>
<!-- Generator: Adobe Illustrator 16.0.0, SVG Export Plug-In . SVG Version: 6.00 Build 0)  -->
<!DOCTYPE svg PUBLIC "-//W3C//DTD SVG 1.1//EN" "http://www.w3.org/Graphics/SVG/1.1/DTD/svg11.dtd">
<svg version="1.1" xmlns="http://www.w3.org/2000/svg" xmlns:xlink="http://www.w3.org/1999/xlink" x="0px" y="0px" width="1600px"
	 height="1600px" viewBox="0 0 1600 1600" enable-background="new 0 0 1600 1600" xml:space="preserve">
<g id="Layer_1">
	<path fill-rule="evenodd" clip-rule="evenodd" fill="#2F2F2F" d="M1197.779,497.329c-1.822,1.588-3.19,2.671-4.434,3.883
		c-35.774,34.868-71.467,69.819-107.393,104.529c-4.028,3.892-5.655,7.682-5.647,13.255c0.157,102.143,0.115,204.285,0.113,306.428
		c0,2.221,0.113,4.453-0.093,6.656c-0.1,1.079-0.814,2.102-1.307,3.287c-0.78-0.611-1.299-0.809-1.416-1.145
		c-0.724-2.087-1.436-4.186-2.008-6.317c-15.465-57.627-36.334-113.207-63.381-166.41c-23.849-46.913-51.95-90.964-88.177-129.466
		c-0.702-0.747-1.216-1.673-1.778-2.46c9.013-7.077,18.157-13.438,26.368-20.834c68.111-61.359,97.865-137.6,88.228-228.978
		c-0.556-5.262-1.89-10.746-1.011-15.804c4.591-26.445,9.789-52.784,14.758-79.163c8.584-45.564,17.159-91.129,25.706-136.702
		c0.355-1.899,0.38-3.86,0.612-6.381c-1.626,0.214-2.284,0.268-2.929,0.391c-58.173,11.144-116.354,22.244-174.504,33.512
		c-6.062,1.175-11.373,0.838-17.237-1.707c-42.667-18.52-87.192-24.9-133.43-19.551c-26.232,3.035-51.344,10.013-75.399,20.801
		c-3.43,1.538-6.543,1.863-10.22,1.118c-15.436-3.125-30.933-5.95-46.404-8.903c-43.581-8.321-87.159-16.654-130.743-24.956
		c-1.393-0.265-2.844-0.226-4.757-0.364c2.936,15.651,5.757,30.673,8.569,45.696c10.98,58.658,21.971,117.314,32.884,175.985
		c0.433,2.326,0.456,4.844,0.094,7.184c-4.691,30.344-4.641,60.666,1.479,90.755c14.006,68.858,50.033,123.488,107.26,164.194
		c1.568,1.116,3.055,2.348,4.783,3.684c-1.006,1.205-1.664,2.083-2.413,2.873c-26.246,27.716-48.376,58.513-67.403,91.497
		c-51.781,89.761-86.189,185.722-101.691,288.292c-5.028,33.264-6.849,66.653-2.499,100.191
		c4.811,37.093,16.542,71.683,37.08,103.082c26.817,41.003,63.839,69.859,108.053,89.94c43.196,19.619,88.929,28.826,135.987,31.995
		c41.576,2.801,82.977,1.029,124.037-6.449c36.485-6.645,71.502-17.723,103.972-35.912
		c68.438-38.338,109.649-96.023,122.495-173.612c0.732-4.423,2.572-6.8,6.876-8.469c48.411-18.765,96.736-37.748,145.079-56.687
		c2.437-0.955,4.822-2.041,7.523-3.188c0-3.206,0-6.07,0-8.933c0-117.465,0.04-234.929-0.127-352.393
		c-0.008-5.614,1.641-9.477,5.639-13.303c18.448-17.65,36.636-35.572,54.902-53.414c1.395-1.362,2.676-2.842,4.353-4.633
		C1277.953,579.265,1237.951,538.384,1197.779,497.329z M1292.359,624.16c-16.197,15.83-32.328,31.729-48.705,47.372
		c-4.113,3.928-5.963,7.923-5.953,13.807c0.186,116.141,0.139,232.282,0.139,348.424c0,2.848-0.001,5.695-0.001,8.864
		c-52.463,20.562-104.476,40.948-156.753,61.438c-1.308,7.703-2.418,15.36-3.924,22.939
		c-14.34,72.155-55.314,124.147-120.049,157.979c-33.404,17.457-69.195,27.435-106.321,32.919
		c-35.493,5.242-71.166,6.474-106.94,3.909c-49.127-3.522-96.654-13.538-140.955-35.956c-40.997-20.745-74.242-49.964-97.216-90.161
		c-14.84-25.964-23.548-53.97-27.579-83.54c-4.081-29.941-3.015-59.808,1.125-89.61c14.471-104.2,49.085-201.447,101.804-292.296
		c21.598-37.221,47.091-71.574,78.53-101.24c0.63-0.595,1.118-1.341,2.138-2.586c-3.189-1.947-6.188-3.734-9.144-5.591
		c-55.685-34.976-92.556-83.996-109.578-147.603c-8.967-33.51-9.896-67.482-4.416-101.693c0.442-2.762,0.456-5.742-0.054-8.486
		c-12.243-65.869-24.587-131.721-36.9-197.578c-0.195-1.043-0.237-2.116-0.472-4.304c13.355,2.538,25.744,4.873,38.125,7.249
		c42.265,8.112,84.53,16.223,126.785,24.388c3.44,0.664,6.45,0.083,9.608-1.42c34.489-16.396,70.926-24.049,109.034-23.255
		c33.932,0.707,66.416,8.231,97.178,22.68c4.25,1.997,8.154,2.469,12.771,1.576c52.925-10.242,105.886-20.305,158.838-30.405
		c1.048-0.2,2.116-0.289,4.089-0.55c-0.421,3.008-0.671,5.562-1.144,8.073c-12.147,64.532-24.412,129.041-36.306,193.619
		c-0.967,5.247,0.337,10.985,0.991,16.447c9.28,77.536-13.06,144.702-66.206,201.696c-15.083,16.175-32.482,29.563-51.423,40.958
		c-1.897,1.142-3.757,2.352-5.596,3.587c-0.326,0.219-0.463,0.721-1.24,2.009c1.862,1.531,4.05,3.085,5.953,4.932
		c34.771,33.734,61.712,73.262,84.87,115.502c34.652,63.21,59.867,130.102,77.271,199.994c0.59,2.367,1.157,4.741,1.797,7.095
		c0.104,0.379,0.536,0.667,1.438,1.729c9.049-3.712,18.37-7.536,28.006-11.49c0-3.312,0-6.174,0-9.037
		c0-103.482,0.042-206.966-0.111-310.449c-0.009-5.787,1.657-9.806,5.865-13.858c30.71-29.569,61.159-59.408,91.695-89.157
		c1.104-1.076,2.269-2.092,4.005-3.688c32.807,33.518,65.494,66.915,98.497,100.633
		C1294.576,621.601,1293.566,622.981,1292.359,624.16z"/>
</g>
<g id="Layer_2">
	<path fill-rule="evenodd" clip-rule="evenodd" fill="#F2F2F2" d="M-200-200v2000h2000V-200H-200z M1313.877,625.061
		c-18.267,17.841-36.454,35.763-54.902,53.414c-3.998,3.826-5.646,7.688-5.639,13.303c0.167,117.464,0.127,234.928,0.127,352.393
		c0,2.862,0,5.727,0,8.933c-2.701,1.147-5.087,2.233-7.523,3.188c-48.343,18.938-96.668,37.922-145.079,56.687
		c-4.304,1.669-6.144,4.046-6.876,8.469c-12.846,77.589-54.057,135.274-122.495,173.612c-32.47,18.189-67.486,29.268-103.972,35.912
		c-41.061,7.479-82.461,9.25-124.037,6.449c-47.059-3.169-92.791-12.376-135.987-31.995c-44.214-20.081-81.236-48.938-108.053-89.94
		c-20.537-31.399-32.269-65.989-37.08-103.082c-4.35-33.538-2.529-66.928,2.499-100.191
		c15.502-102.57,49.911-198.531,101.691-288.292c19.027-32.983,41.157-63.781,67.403-91.497c0.749-0.791,1.406-1.668,2.413-2.873
		c-1.728-1.336-3.214-2.568-4.783-3.684c-57.227-40.706-93.254-95.335-107.26-164.194c-6.12-30.089-6.17-60.411-1.479-90.755
		c0.362-2.34,0.339-4.858-0.094-7.184c-10.913-58.671-21.904-117.327-32.884-175.985c-2.812-15.023-5.634-30.044-8.569-45.696
		c1.914,0.138,3.365,0.099,4.757,0.364c43.584,8.301,87.163,16.635,130.743,24.956c15.471,2.954,30.968,5.778,46.404,8.903
		c3.677,0.745,6.79,0.42,10.22-1.118c24.056-10.789,49.167-17.767,75.399-20.801c46.238-5.35,90.763,1.031,133.43,19.551
		c5.864,2.545,11.175,2.882,17.237,1.707c58.149-11.268,116.331-22.368,174.504-33.512c0.645-0.124,1.303-0.177,2.929-0.391
		c-0.232,2.521-0.257,4.482-0.612,6.381c-8.547,45.572-17.122,91.137-25.706,136.702c-4.969,26.379-10.167,52.718-14.758,79.163
		c-0.879,5.058,0.455,10.542,1.011,15.804c9.638,91.378-20.116,167.618-88.228,228.978c-8.211,7.396-17.355,13.757-26.368,20.834
		c0.562,0.787,1.076,1.713,1.778,2.46c36.227,38.502,64.328,82.553,88.177,129.466c27.047,53.203,47.916,108.783,63.381,166.41
		c0.572,2.132,1.284,4.23,2.008,6.317c0.117,0.336,0.636,0.533,1.416,1.145c0.492-1.186,1.207-2.208,1.307-3.287
		c0.206-2.203,0.093-4.436,0.093-6.656c0.002-102.143,0.044-204.285-0.113-306.428c-0.008-5.574,1.619-9.363,5.647-13.255
		c35.926-34.71,71.618-69.661,107.393-104.529c1.243-1.211,2.611-2.294,4.434-3.883c40.172,41.055,80.174,81.937,120.45,123.099
		C1316.553,622.219,1315.271,623.699,1313.877,625.061z"/>
</g>
</svg>
