<?xml version="1.0" encoding="utf-8"?>
<!-- Generator: Adobe Illustrator 16.0.0, SVG Export Plug-In . SVG Version: 6.00 Build 0)  -->
<!DOCTYPE svg PUBLIC "-//W3C//DTD SVG 1.1//EN" "http://www.w3.org/Graphics/SVG/1.1/DTD/svg11.dtd">
<svg version="1.1" id="Capa_1" xmlns="http://www.w3.org/2000/svg" xmlns:xlink="http://www.w3.org/1999/xlink" x="0px" y="0px"
	 width="533.333px" height="533.333px" viewBox="-11.5 -11.5 533.333 533.333" enable-background="new -11.5 -11.5 533.333 533.333"
	 xml:space="preserve">
<path fill="none" stroke="#2F2F2F" stroke-width="3" stroke-miterlimit="10" d="M122.325,202.175V65.172l-11.896-11.896H34.591
	L22.695,65.174v137l11.896,11.896h75.838v0.001L122.325,202.175z M95.963,190.567H49.059c-6.268,0-11.348-5.08-11.348-11.348
	s5.08-11.348,11.348-11.348h46.904c6.267,0,11.348,5.08,11.348,11.348S102.23,190.567,95.963,190.567z"/>
<path fill="none" stroke="#2F2F2F" stroke-width="3" stroke-miterlimit="10" d="M410.83,214.071l11.897-11.897v-137L410.83,53.276
	h-75.838l-11.896,11.896v137.003l11.896,11.896H410.83z M349.459,167.872h46.906c6.268,0,11.348,5.08,11.348,11.348
	s-5.08,11.348-11.348,11.348h-46.906c-6.268,0-11.348-5.08-11.348-11.348S343.191,167.872,349.459,167.872z"/>
<path fill="none" stroke="#2F2F2F" stroke-width="3" stroke-miterlimit="10" d="M211.599,397.561h19.735v-12.655
	c0-6.268,5.08-11.348,11.348-11.348s11.348,5.08,11.348,11.348v12.655h17.252v-12.655c0-6.268,5.08-11.348,11.348-11.348
	s11.348,5.08,11.348,11.348v12.655h17.25v-12.655c0-6.268,5.081-11.348,11.348-11.348c6.268,0,11.348,5.08,11.348,11.348v12.655
	h33.057v-38.468h-155.38V397.561z"/>
<path fill="none" stroke="#2F2F2F" stroke-width="3" stroke-miterlimit="10" d="M164.757,140.252c0-6.268,5.08-11.348,11.348-11.348
	s11.348,5.08,11.348,11.348v12.655h17.253v-12.655c0-6.268,5.08-11.348,11.348-11.348s11.348,5.08,11.348,11.348v12.655h17.251
	v-12.655c0-6.268,5.08-11.348,11.348-11.348c6.267,0,11.348,5.08,11.348,11.348v12.655h33.055v-38.468h-155.38v38.468h19.735
	V140.252z"/>
<path fill="none" stroke="#2F2F2F" stroke-width="3" stroke-miterlimit="10" d="M101.167,297.93l-11.895,11.896v137.002
	l11.895,11.896h75.84l11.896-11.896V309.826l-11.896-11.896H101.167z M162.541,435.219h-46.905c-6.268,0-11.348-5.08-11.348-11.348
	s5.08-11.348,11.348-11.348h46.905c6.266,0,11.348,5.08,11.348,11.348S168.809,435.219,162.541,435.219z"/>
<path fill="#F2F2F2" stroke="#2F2F2F" stroke-width="3" stroke-miterlimit="10" d="M-18.5-20.5v554h547v-554H-18.5z M21.866,233.443
	L3.324,214.899C1.196,212.771,0,209.884,0,206.875V60.473c0-3.01,1.196-5.896,3.324-8.024l18.543-18.543
	c2.128-2.127,5.014-3.323,8.024-3.323h85.239c3.01,0,5.896,1.196,8.023,3.323l18.543,18.543c2.128,2.128,3.324,5.014,3.324,8.024
	v31.272h155.38V60.473c0-3.01,1.196-5.896,3.323-8.024l18.543-18.543c2.129-2.127,5.015-3.323,8.024-3.323h85.237
	c3.011,0,5.896,1.196,8.025,3.323l18.543,18.543c2.128,2.127,3.324,5.014,3.324,8.024v146.401c0,3.01-1.196,5.897-3.324,8.024
	l-18.543,18.543c-2.129,2.127-5.015,3.323-8.025,3.323h-85.237c-3.01,0-5.896-1.196-8.024-3.323l-18.543-18.543
	c-2.127-2.128-3.323-5.015-3.323-8.024v-31.272h-155.38v31.272c0,3.01-1.196,5.896-3.324,8.024l-18.543,18.543
	c-2.128,2.128-5.014,3.324-8.024,3.324H29.891C26.881,236.767,23.995,235.571,21.866,233.443z M512,451.528
	c0,3.01-1.195,5.896-3.324,8.024l-18.546,18.543c-2.127,2.127-5.013,3.323-8.023,3.323h-85.235c-3.011,0-5.896-1.196-8.025-3.323
	l-18.543-18.543c-2.127-2.129-3.323-5.015-3.323-8.024v-31.272H211.599v31.272c0,3.01-1.196,5.896-3.323,8.024l-18.544,18.543
	c-2.127,2.127-5.014,3.323-8.023,3.323H96.467c-3.01,0-5.897-1.196-8.024-3.324L69.901,459.55c-2.128-2.127-3.323-5.013-3.323-8.023
	V305.125c0-3.01,1.195-5.896,3.323-8.022l18.541-18.544c2.127-2.128,5.014-3.324,8.024-3.324h85.241c3.01,0,5.896,1.196,8.023,3.323
	l18.544,18.544c2.127,2.128,3.323,5.014,3.323,8.023v31.272h155.38v-31.272c0-3.01,1.195-5.896,3.323-8.023l18.543-18.544
	c2.129-2.127,5.015-3.323,8.024-3.323h85.236c3.01,0,5.896,1.196,8.023,3.323l18.546,18.544c2.13,2.128,3.325,5.016,3.325,8.023
	V451.528z"/>
<path fill="none" stroke="#2F2F2F" stroke-width="3" stroke-miterlimit="10" d="M401.569,297.93l-11.896,11.896v137.002
	l11.896,11.896h75.837l11.898-11.897V309.827l-11.898-11.897H401.569z M462.941,435.219h-46.906c-6.268,0-11.348-5.08-11.348-11.348
	s5.08-11.348,11.348-11.348h46.906c6.268,0,11.348,5.08,11.348,11.348S469.209,435.219,462.941,435.219z"/>
</svg>
