<?xml version="1.0" encoding="utf-8"?>
<!-- Generator: Adobe Illustrator 16.0.0, SVG Export Plug-In . SVG Version: 6.00 Build 0)  -->
<!DOCTYPE svg PUBLIC "-//W3C//DTD SVG 1.1//EN" "http://www.w3.org/Graphics/SVG/1.1/DTD/svg11.dtd">
<svg version="1.1" xmlns="http://www.w3.org/2000/svg" xmlns:xlink="http://www.w3.org/1999/xlink" x="0px" y="0px" width="2000px"
	 height="2000px" viewBox="-200 -200 2000 2000" enable-background="new -200 -200 2000 2000" xml:space="preserve">
<g id="Capa_1">
	<path fill="#2F2F2F" d="M1088.203,384.268H511.661v-3.393c0-54.664-34.568-101.404-82.99-119.513
		c18.162-43.949,53.084-94.249,103.185-84.232c17.053,3.41,33.631-7.646,37.041-24.691c3.41-17.047-7.646-33.631-24.691-37.042
		c-39.962-7.988-74.992,2.567-104.024,24.482c18.33-41.137,45.774-72.809,84.357-77.114c17.277-1.927,29.722-17.494,27.794-34.768
		c-1.923-17.274-17.483-29.76-34.768-27.794C398.075,13.528,356.079,158.366,348.388,258.427
		c-52.993,15.487-91.811,64.517-91.811,122.448v15.605C108.885,436.774,0.007,572.104,0.007,732.39v719.449
		c0,17.386,14.091,31.477,31.477,31.477h96.067c14.752,0,27.524-10.243,30.725-24.643l84.004-377.738l37.153,0.249
		c152.025,9.684,274.953,126.361,294.29,275.561c0.924,7.117,2.679,47.152,2.679,47.152v164.627
		c0,17.386,14.091,31.477,31.478,31.477h288.189c17.386,0,31.477-14.091,31.477-31.477v-422.558h157.713
		c86.956,0,157.702,70.746,157.702,157.702v118.38c0,0.102,0,0.207,0,0.309v146.171c0,17.385,14.091,31.477,31.477,31.477h294.083
		c17.386,0,31.477-14.092,31.477-31.477V896.068C1599.996,613.859,1370.405,384.268,1088.203,384.268z M1056.726,447.221v3.393
		c0,35.614-28.972,64.587-64.59,64.587c-35.617,0-64.59-28.973-64.59-64.587v-3.393H1056.726z M864.592,447.221v3.393
		c0,70.323,57.215,127.541,127.547,127.541c70.323,0,127.541-57.215,127.541-127.541v-2.297c11.163,0.775,22.181,1.958,33.109,3.542
		V708.52c0,33.093-26.919,60.013-60.012,60.013H891.49c-33.089,0-60.008-26.92-60.008-60.013V447.221H864.592z M319.527,380.875
		h0.003c0-34.001,26.413-61.949,59.799-64.408c0.725-0.018,1.441-0.06,2.151-0.122c0.604-0.028,1.217-0.042,1.825-0.053
		c2.103,0.291,4.193,0.36,6.243,0.22c33.082,2.767,59.159,30.575,59.159,64.36v3.392H348.125c-9.631,0-19.162,0.392-28.598,1.165
		V380.875z M639.355,1537.047v-79.102c38.125,10.87,68.23,40.976,79.101,79.102H639.355z M1305.913,1537.047v-80.619
		c20.229,4.571,38.863,14.563,54.217,29.336c14.899,14.34,25.401,31.942,30.848,51.283H1305.913z M1455.508,1537.047
		c-6.48-36.695-24.286-70.242-51.727-96.647c-27.266-26.234-61.208-42.725-97.864-47.964v-88.771
		c0-121.668-98.987-220.655-220.655-220.655H896.072c-17.386,0-31.477,14.091-31.477,31.477v422.558h-81.595
		c-13.07-72.928-70.722-130.576-143.646-143.646c0,0-0.427-22.95-1.221-25.713c-14.836-188.203-166.596-337.851-355.701-349.392
		c-0.57-0.035-1.14-0.056-1.707-0.06l-24.468-0.164L292.17,856.59c3.774-16.973-6.921-33.785-23.891-37.559
		c-16.966-3.784-33.785,6.922-37.559,23.891l-128.418,577.44H62.957V732.39c0-157.243,127.925-285.169,285.168-285.169h138.131
		c77.744,0,140.991,63.248,140.991,140.992v281.122c0,49.632-40.378,90.013-90.01,90.013s-90.013-40.381-90.013-90.013V588.213
		c0-17.386-14.091-31.478-31.477-31.478s-31.477,14.092-31.477,31.478v281.122c0,84.347,68.619,152.966,152.966,152.966
		c84.344,0,152.963-68.619,152.963-152.966V588.213c0-54.641-21.606-104.339-56.718-140.992h135.043v261.296
		c0,67.804,55.157,122.966,122.962,122.966h201.286c67.805,0,122.966-55.162,122.966-122.966V465.674
		c185.562,55.088,321.301,227.188,321.301,430.395v640.979H1455.508z"/>
	<path fill="#2F2F2F" d="M289.033,617.633c0,17.386-14.091,31.477-31.477,31.477h-7.506c-17.385,0-31.477-14.091-31.477-31.477
		s14.091-31.477,31.477-31.477h7.506C274.942,586.156,289.033,600.251,289.033,617.633z"/>
</g>
<g id="Layer_2">
	<path fill="#F2F2F2" d="M-565.817-427.804v2616.263h2616.262V-427.804H-565.817z M1598.996,1570.527
		c0,17.385-14.091,31.477-31.477,31.477h-294.083c-17.386,0-31.477-14.092-31.477-31.477v-146.171c0-0.102,0-0.207,0-0.309v-118.38
		c0-86.956-70.746-157.702-157.702-157.702H926.545v422.558c0,17.386-14.091,31.477-31.477,31.477H606.879
		c-17.387,0-31.478-14.091-31.478-31.477v-164.627c0,0-1.755-40.035-2.679-47.152c-19.337-149.199-142.265-265.877-294.29-275.561
		l-37.153-0.249l-84.004,377.738c-3.2,14.399-15.973,24.643-30.725,24.643H30.484c-17.386,0-31.477-14.091-31.477-31.477V734.39
		c0-160.286,108.878-295.615,256.57-335.909v-15.605c0-57.931,38.818-106.961,91.811-122.448
		c7.691-100.061,49.688-244.899,169.177-258.224c17.284-1.966,32.845,10.52,34.768,27.794c1.928,17.273-10.517,32.84-27.794,34.768
		c-38.583,4.305-66.027,35.978-84.357,77.114c29.032-21.915,64.062-32.47,104.024-24.482c17.046,3.41,28.102,19.995,24.691,37.042
		c-3.41,17.046-19.988,28.102-37.041,24.691c-50.101-10.017-85.022,40.283-103.185,84.232c48.422,18.109,82.99,64.849,82.99,119.513
		v3.393h576.542c282.202,0,511.793,229.592,511.793,511.801V1570.527z"/>
</g>
</svg>
