<?xml version="1.0" encoding="utf-8"?>
<!-- Generator: Adobe Illustrator 16.0.0, SVG Export Plug-In . SVG Version: 6.00 Build 0)  -->
<!DOCTYPE svg PUBLIC "-//W3C//DTD SVG 1.1//EN" "http://www.w3.org/Graphics/SVG/1.1/DTD/svg11.dtd">
<svg version="1.1" xmlns="http://www.w3.org/2000/svg" xmlns:xlink="http://www.w3.org/1999/xlink" x="0px" y="0px" width="2000px"
	 height="2000px" viewBox="0 0 2000 2000" enable-background="new 0 0 2000 2000" xml:space="preserve">
<g id="Layer_1">
	<g>
		<path d="M1265.945,1272.786c-0.035-0.002-0.077-0.005-0.121-0.01c-0.146-0.017-0.296-0.045-0.437-0.088
			c-0.031,0.031-0.062,0.062-0.093,0.093C1265.658,1272.781,1265.854,1272.784,1265.945,1272.786z"/>
		<path d="M1716.269,314.588c-0.088-1.927-0.389-3.843-0.612-5.978c-2.142-0.194-3.875-0.464-5.613-0.492
			c-37.735-0.591-75.47-1.575-113.206-1.629c-63.312-0.09-126.488,3.04-189.507,9.312c-39.999,3.981-79.771,9.443-119.114,17.733
			c-31.751,6.691-62.991,15.198-92.902,28.006c-22.994,9.845-44.658,21.89-62.886,39.36c-13.877,13.299-24.202,28.869-29.812,47.381
			c-1.672,5.521-2.996,11.167-5.011,16.558c-1.478,3.958-0.503,6.506,2.373,9.365c14.959,14.873,29.736,29.929,44.569,44.929
			c34.662,35.052,69.323,70.106,103.974,105.171c1.975,1.999,3.847,4.099,4.738,5.053c-16.817,16.826-33.06,33.079-49.633,49.662
			c-11.909-11.92-24.446-24.471-36.987-37.018c-12.56-12.565-25.124-25.125-37.687-37.688
			c-12.562-12.562-25.125-25.124-37.687-37.686c-12.562-12.562-25.124-25.125-37.687-37.687s-25.112-25.137-37.691-37.683
			c-12.506-12.475-24.912-25.056-37.056-36.955c-40.375,40.381-80.07,80.083-120.102,120.12
			c74.952,74.952,150.272,150.271,224.893,224.892c-8.848,8.825-17.246,17.202-25.926,25.859
			c-60.932-60.932-122.422-122.42-182.821-182.818c-40.291,40.29-80.097,80.095-120.184,120.182
			c60.781,60.781,122.257,122.257,183.01,183.01c-8.93,8.95-17.191,17.23-25.935,25.994
			c-46.55-46.549-93.537-93.534-139.821-139.817c-40.373,40.373-80.047,80.048-120.105,120.106
			c46.407,46.408,93.305,93.306,140.838,140.84c-16.978,16.924-33.13,33.096-49.423,49.125c-1.257,1.237-3.456,1.786-5.309,2.084
			c-2.611,0.42-5.31,0.304-7.97,0.422c-32.156,1.425-64.33,2.527-96.462,4.359c-42.577,2.426-84.902,7.326-126.886,14.9
			c-33.9,6.115-67.312,14.151-99.496,26.678c-21.447,8.347-41.889,18.579-60.019,32.979c-19.305,15.335-33.385,34.192-39.722,58.403
			c-2.358,9.01-5.322,17.86-7.961,26.797c-0.483,1.637-0.729,3.344-1.145,5.304c2.668,0.884,4.927,1.721,7.236,2.386
			c66.729,19.226,133.461,38.438,200.196,57.643c36.032,10.369,72.05,20.789,108.129,30.991c4.57,1.293,7.191,3.372,8.132,8.189
			c1.061,5.427,2.898,10.7,4.383,16.044c27.274,98.116,54.543,196.233,81.834,294.345c0.697,2.511,1.615,4.958,2.496,7.638
			c1.485-0.275,2.566-0.383,3.59-0.683c10.437-3.042,20.833-6.23,31.303-9.156c19.601-5.479,35.867-16.197,49.545-31.075
			c10.902-11.859,19.573-25.243,26.881-39.539c15.268-29.862,24.736-61.715,32.144-94.256
			c11.16-49.027,17.391-98.796,20.942-148.854c2.701-38.075,3.874-76.26,5.554-114.403c0.161-3.661,1.459-6.186,3.959-8.662
			c15.305-15.158,30.496-30.431,45.741-45.649c1.229-1.228,2.587-2.328,4.393-3.942c47.21,47.209,94.206,94.204,140.184,140.182
			c40.374-40.373,80.157-80.155,120.185-120.185c-46.229-46.228-93.114-93.114-140.412-140.412
			c8.918-8.883,17.297-17.227,25.447-25.343c1.105,0.555,1.346,0.611,1.493,0.759c60.343,60.249,120.678,120.504,181.017,180.758
			c0.471,0.47,0.948,0.938,1.451,1.371c0.335,0.287,0.708,0.533,1.088,0.757c0.056,0.032,0.122,0.047,0.187,0.066
			c40.259-40.26,79.921-79.923,119.909-119.914c-61.079-61.079-122.586-122.587-183.197-183.2
			c8.725-8.868,17.033-17.315,25.651-26.076c74.863,74.775,150.189,150.013,224.899,224.636
			c40.264-40.264,79.934-79.934,120.062-120.062c-74.856-74.857-150.154-150.155-225.039-225.041
			c16.447-16.451,32.397-32.405,48.667-48.677c0.988,0.883,2.514,2.106,3.881,3.486c21.875,22.089,43.729,44.199,65.589,66.303
			c28.262,28.578,56.56,57.12,84.729,85.789c2.544,2.588,4.777,3.29,8.182,2.09c5.016-1.768,10.175-3.138,15.306-4.561
			c18.189-5.044,33.691-14.61,47.077-27.784c15.56-15.312,26.981-33.484,36.409-52.987c13.299-27.51,22.269-56.524,29.415-86.141
			c12.421-51.478,19.157-103.837,23.816-156.491c3.797-42.913,5.862-85.926,7.026-128.994
			C1719.216,421.547,1718.709,368.062,1716.269,314.588z M1702.15,475.374c-1.18,43.515-3.31,86.967-7.21,130.314
			c-4.477,49.76-10.882,99.259-22.434,147.955c-7.496,31.595-16.924,62.534-31.783,91.583
			c-5.882,11.498-12.699,22.383-20.773,32.484c-15.845,19.827-35.886,32.798-61.729,37.613
			c-53.683-54.292-107.705-108.928-162.592-164.438c-23.951,23.817-47.364,47.099-71.293,70.895
			c76.081,76.082,151.379,151.379,226.179,226.179c-32.723,32.724-65.003,65.004-97.986,97.986
			c-74.594-74.593-149.87-149.869-224.544-224.542c-16.053,16.071-31.815,31.851-48.139,48.192
			c60.542,60.542,122.033,122.035,183.016,183.016c-32.613,32.618-64.91,64.919-97.901,97.914
			c-60.744-60.743-122.211-122.21-183.105-183.104c-16.088,16.1-31.856,31.881-48.138,48.177
			c46.13,46.133,93.14,93.143,139.755,139.76c-32.767,32.778-65.07,65.093-97.977,98.009
			c-46.561-46.559-93.566-93.562-140.793-140.785c-1.671,1.527-3.006,2.656-4.238,3.888c-20.423,20.404-40.794,40.86-61.294,61.187
			c-2.703,2.68-3.909,5.384-4.052,9.27c-1.284,34.828-2.161,69.69-4.423,104.459c-3.317,50.96-9.026,101.68-19.644,151.722
			c-6.784,31.975-15.421,63.383-29.416,93.079c-7.128,15.125-15.633,29.398-26.833,41.926
			c-12.115,13.55-26.526,23.467-44.307,28.143c-6.185,1.626-12.282,3.585-18.904,5.535c-0.851-2.618-1.597-4.653-2.177-6.735
			c-27.966-100.442-55.892-200.896-83.908-301.324c-3.253-11.662-0.622-9.021-11.994-12.307
			c-99.741-28.813-199.508-57.535-299.264-86.293c-2.088-0.602-4.144-1.319-6.352-2.025c4.981-23.895,13.387-45.363,32.002-61.761
			c14.323-12.617,30.429-22.241,47.682-30.096c28.425-12.941,58.32-21.293,88.753-27.785c37.154-7.924,74.749-12.929,112.565-16.458
			c41.137-3.84,82.356-6.011,123.652-6.927c7.102-0.158,14.201-0.43,21.303-0.568c2.527-0.05,4.617-0.587,6.542-2.525
			c20.81-20.957,41.71-41.826,62.568-62.735c0.439-0.441,0.67-1.09,1.286-2.125c-46.893-46.894-93.795-93.796-140.128-140.129
			c32.737-32.735,65.157-65.157,97.636-97.636c46.156,46.157,93.074,93.076,139.6,139.602c16.314-16.46,32.038-32.326,48.302-48.736
			c-60.51-60.51-122.001-122.001-182.904-182.904c32.654-32.652,64.938-64.936,97.91-97.906
			c60.541,60.541,121.996,121.994,182.859,182.858c15.981-16.01,31.725-31.782,48.122-48.209
			c-74.302-74.302-149.587-149.587-224.274-224.275c32.705-32.706,65.107-65.108,97.988-97.987
			c74.615,74.614,149.918,149.917,224.833,224.833c24.094-24.089,47.74-47.73,71.727-71.712c-3.788-3.9-7.905-8.204-12.092-12.439
			c-48.392-48.958-96.751-97.947-145.277-146.771c-3.586-3.607-4.383-6.548-3.063-11.551c6.479-24.562,20.928-43.278,41.022-58.12
			c21.129-15.606,44.837-26.04,69.494-34.509c32.195-11.058,65.318-18.374,98.823-24.066c42.701-7.255,85.709-11.844,128.897-15.012
			c47.187-3.461,94.427-5.347,141.73-5.441c28.635-0.058,57.271,0.333,85.906,0.625c6.187,0.062,12.369,0.563,18.839,0.876
			c1.683,4.32,1.28,8.555,1.418,12.671C1703.172,382.578,1703.408,428.964,1702.15,475.374z"/>
	</g>
	<path fill-rule="evenodd" clip-rule="evenodd" d="M1379.005,409.217c41.025,0.132,73.577,33.174,73.412,74.519
		c-0.163,40.611-33.254,73.271-74.131,73.166c-40.921-0.104-73.631-33.298-73.468-74.552
		C1304.979,441.782,1338.146,409.086,1379.005,409.217z"/>
</g>
<g id="Layer_2">
	<path fill-rule="evenodd" clip-rule="evenodd" fill="#F2F2F2" d="M0,0v2000h2000V0H0z M1717.77,475.064
		c-1.164,43.068-3.229,86.082-7.026,128.994c-4.659,52.654-11.396,105.013-23.816,156.491
		c-7.146,29.617-16.116,58.631-29.415,86.141c-9.428,19.503-20.85,37.675-36.409,52.987c-13.386,13.173-28.888,22.739-47.077,27.784
		c-5.131,1.422-10.29,2.793-15.306,4.561c-3.404,1.2-5.638,0.499-8.182-2.09c-28.169-28.669-56.467-57.211-84.729-85.789
		c-21.859-22.104-43.714-44.214-65.589-66.303c-1.367-1.38-2.893-2.603-3.881-3.486c-16.27,16.272-32.22,32.226-48.667,48.677
		c74.885,74.886,150.183,150.184,225.039,225.041c-40.128,40.129-79.798,79.799-120.062,120.062
		c-74.71-74.623-150.036-149.86-224.899-224.636c-8.618,8.761-16.927,17.208-25.651,26.076
		c60.611,60.613,122.118,122.121,183.197,183.2c-39.988,39.991-79.65,79.654-119.909,119.914c0.141,0.043,0.291,0.071,0.437,0.088
		c0.044,0.005,0.086,0.008,0.121,0.01c-0.092-0.002-0.287-0.005-0.65-0.005c0.031-0.031,0.062-0.062,0.093-0.093
		c-0.064-0.02-0.131-0.034-0.187-0.066c-0.38-0.224-0.753-0.47-1.088-0.757c-0.503-0.434-0.98-0.901-1.451-1.371
		c-60.339-60.254-120.674-120.509-181.017-180.758c-0.147-0.147-0.388-0.204-1.493-0.759c-8.15,8.116-16.529,16.46-25.447,25.343
		c47.298,47.298,94.184,94.185,140.412,140.412c-40.027,40.029-79.811,79.812-120.185,120.185
		c-45.979-45.978-92.974-92.973-140.184-140.182c-1.806,1.614-3.164,2.715-4.393,3.942c-15.246,15.219-30.437,30.491-45.741,45.649
		c-2.5,2.477-3.798,5.001-3.959,8.662c-1.68,38.144-2.854,76.328-5.554,114.403c-3.552,50.058-9.783,99.826-20.942,148.854
		c-7.408,32.541-16.876,64.394-32.144,94.256c-7.309,14.296-15.979,27.68-26.881,39.539c-13.678,14.878-29.944,25.597-49.545,31.075
		c-10.47,2.926-20.866,6.114-31.303,9.156c-1.024,0.3-2.105,0.407-3.59,0.683c-0.881-2.68-1.799-5.127-2.496-7.638
		c-27.291-98.111-54.56-196.229-81.834-294.345c-1.485-5.344-3.323-10.617-4.383-16.044c-0.941-4.817-3.562-6.896-8.132-8.189
		c-36.079-10.202-72.097-20.622-108.129-30.991c-66.734-19.204-133.467-38.417-200.196-57.643c-2.309-0.665-4.568-1.502-7.236-2.386
		c0.416-1.96,0.661-3.667,1.145-5.304c2.639-8.937,5.603-17.787,7.961-26.797c6.336-24.211,20.417-43.068,39.722-58.403
		c18.129-14.4,38.571-24.633,60.019-32.979c32.184-12.526,65.595-20.562,99.496-26.678c41.984-7.574,84.309-12.475,126.886-14.9
		c32.133-1.832,64.307-2.935,96.462-4.359c2.661-0.118,5.359-0.002,7.97-0.422c1.853-0.298,4.052-0.847,5.309-2.084
		c16.293-16.029,32.445-32.201,49.423-49.125c-47.534-47.534-94.431-94.433-140.838-140.84
		c40.058-40.058,79.733-79.733,120.105-120.106c46.285,46.284,93.271,93.268,139.821,139.817
		c8.743-8.763,17.004-17.043,25.935-25.994c-60.753-60.753-122.229-122.229-183.01-183.01
		c40.087-40.087,79.893-79.892,120.184-120.182c60.399,60.398,121.889,121.887,182.821,182.818
		c8.68-8.658,17.078-17.035,25.926-25.859c-74.621-74.621-149.941-149.94-224.893-224.892
		c40.032-40.037,79.727-79.738,120.102-120.12c12.144,11.899,24.55,24.48,37.056,36.955c12.579,12.546,25.129,25.121,37.691,37.683
		s25.124,25.125,37.687,37.687c12.562,12.562,25.125,25.125,37.687,37.686c12.562,12.563,25.127,25.123,37.687,37.688
		c12.541,12.547,25.078,25.098,36.987,37.018c16.573-16.583,32.815-32.835,49.633-49.662c-0.892-0.954-2.764-3.055-4.738-5.053
		c-34.65-35.065-69.312-70.119-103.974-105.171c-14.833-15-29.61-30.056-44.569-44.929c-2.876-2.859-3.851-5.407-2.373-9.365
		c2.015-5.391,3.339-11.038,5.011-16.558c5.61-18.513,15.936-34.083,29.812-47.381c18.228-17.47,39.892-29.515,62.886-39.36
		c29.911-12.808,61.151-21.315,92.902-28.006c39.343-8.29,79.115-13.751,119.114-17.733c63.019-6.271,126.195-9.402,189.507-9.312
		c37.736,0.054,75.471,1.039,113.206,1.629c1.738,0.027,3.472,0.298,5.613,0.492c0.224,2.135,0.524,4.051,0.612,5.978
		C1718.709,368.062,1719.216,421.547,1717.77,475.064z"/>
</g>
</svg>
