<?xml version="1.0" encoding="utf-8"?>
<!-- Generator: Adobe Illustrator 16.0.0, SVG Export Plug-In . SVG Version: 6.00 Build 0)  -->
<!DOCTYPE svg PUBLIC "-//W3C//DTD SVG 1.1//EN" "http://www.w3.org/Graphics/SVG/1.1/DTD/svg11.dtd">
<svg version="1.1" id="Capa_1" xmlns="http://www.w3.org/2000/svg" xmlns:xlink="http://www.w3.org/1999/xlink" x="0px" y="0px"
	 width="550px" height="550px" viewBox="-19 -19 550 550" enable-background="new -19 -19 550 550" xml:space="preserve">
<path fill="#F2F2F2" stroke="#2F2F2F" stroke-width="6" stroke-miterlimit="10" d="M-37.5-32.5v574h595v-574H-37.5z M252.091,4.361
	c129.699,0,225.124,98.245,231.967,235.816c-10.617-9.504-23.07-16.955-36.785-21.758C432.392,112.463,354.912,38.96,252.091,38.96
	c-103.881,0-181.945,75.004-195.666,182.705c-14.003,6.244-26.407,15.35-36.58,26.558C23.313,106.444,119.87,4.361,252.091,4.361z
	 M96.445,225.315v192.588v4.384C42.874,420.021,0,375.729,0,321.601c0-25.017,9.242-47.86,24.393-65.5
	c8.596-10.007,19.094-18.29,30.96-24.316c12.451-6.32,26.338-10.23,41.093-10.854V225.315z M406.904,429.307
	c-33.725,47.348-88.939,78.333-151.507,78.333c-61.839,0-116.474-30.291-150.305-76.722V216.099v-3.801v-0.108h-4.322
	c-0.077,0-0.157,0.007-0.233,0.007c4.902-15.208,14.737-41.905,28.417-60.514c0,0-6.221,14.292-4.835,24.967
	c1.255,9.614,9.449-4.033,36.138-37.047c14.933-18.475,15.705-11.727,13.489-2.206c6.566-9.737,15.359-20.33,26.082-27.593
	c24.965-16.913,29.801-31.411,29.801-31.411s-2.019,17.014-5.632,25.39c7.793-8.069,25.166-25.77,31.4-43.912
	c8.858-25.771,36.236,50.927,36.236,50.927s20.945,21.47,12.086-2.649c-8.858-24.117,20.933,14.548,27.378,23.401
	c6.445,8.854,5.632-12.882,0-18.52c0,0,33.297,23.798,39.605,62.63c0.008,0.051,0.017,0.097,0.025,0.148
	c1.62,1.28,3.244,2.559,4.812,3.894c0.137-7.672-0.141-16.743-0.141-16.743s18.747,22.001,22.252,38.784l-0.102-0.018
	c3.293,3.919,6.383,8.005,9.354,12.194h0.001V429.307z M415.552,422.296v-6.37V227.303v-6.367
	c11.587,0.485,22.623,3.045,32.886,7.145c13.716,5.474,25.991,13.812,35.974,24.389c17.083,18.056,27.59,42.393,27.59,69.148
	C512.001,375.736,469.129,420.021,415.552,422.296z"/>
</svg>
