<?xml version="1.0" encoding="utf-8"?>
<!-- Generator: Adobe Illustrator 16.0.0, SVG Export Plug-In . SVG Version: 6.00 Build 0)  -->
<!DOCTYPE svg PUBLIC "-//W3C//DTD SVG 1.1//EN" "http://www.w3.org/Graphics/SVG/1.1/DTD/svg11.dtd">
<svg version="1.1" xmlns="http://www.w3.org/2000/svg" xmlns:xlink="http://www.w3.org/1999/xlink" x="0px" y="0px"
	 width="3001.874px" height="3001.874px" viewBox="0 0 3001.874 3001.874" enable-background="new 0 0 3001.874 3001.874"
	 xml:space="preserve">
<g id="Layer_1">
	<path fill-rule="evenodd" clip-rule="evenodd" fill="#2F2F2F" d="M2500.844,1025.915c-7.273-44.256-30.158-80.503-62.814-110.969
		c-26.695-24.905-57.488-41.876-93.084-49.863c-30.355-6.811-60.797-6.271-91.211,0.001c-6.841,1.41-13.72,2.968-20.654,3.515
		c-13.346,1.052-20.648-4.074-24.913-16.712c-1.596-4.729-2.784-9.594-4.251-14.368c-11.183-36.384-24.217-72.024-44.974-104.22
		c-29.583-45.885-69.509-77.857-124.072-88.609c-40.116-7.904-80.341-6.666-119.856,3.756
		c-86.602,22.839-144.141,77.039-172.303,162.174c-1.984,5.997-3.44,12.171-5.056,18.287c-0.821,3.106-2.538,3.742-5.073,1.977
		c-4.922-3.424-9.75-6.981-14.647-10.438c-74.877-52.853-155.755-93.396-243.804-119.422
		c-86.822-25.663-175.423-34.83-265.684-29.94c-59.094,3.201-117.058,12.995-174.11,28.543
		c-55.086,15.012-108.074,35.515-159.814,59.595c-72.717,33.84-137.351,78.61-191.788,137.852
		c-42.762,46.536-76.82,98.7-103,156.117c-39.494,86.617-58.371,178.163-63.191,272.673c-3.072,60.227-0.59,120.408,6.985,180.389
		c7.9,62.562,20.648,124.05,37.309,184.805c6.07,22.137,13.493,43.879,18.248,66.407c8.552,40.52,4.559,79.439-13.443,116.797
		c-7.541,15.647-17.13,30.072-26.925,44.376c-11.095,16.204-22.792,32.02-31.086,50.003c-8.625,18.701-11.508,38.297-8.618,58.471
		c5.612,39.182,21.144,74.073,47.153,104.102c12.013,13.869,25.009,26.752,39.161,38.451c46.448,38.4,99.258,65.715,154.625,88.506
		c56.777,23.371,115.407,40.882,175.105,55.012c77.234,18.28,155.475,30.416,234.418,38.005c44.731,4.3,89.608,6.743,134.543,7.972
		c53.965,1.475,107.921,1.051,161.837-1.404c48.218-2.196,96.324-6.014,144.263-11.812c40.003-4.837,79.838-10.732,119.428-18.253
		c74.698-14.189,148.14-33.023,219.308-60.065c56.544-21.485,110.913-47.237,159.871-83.309
		c28.057-20.671,53.485-44.045,73.121-73.095c18.935-28.01,29.89-58.513,28.457-92.911c-0.36-8.66-2.364-17.327-1.581-25.859
		c1.733-18.922,2.072-37.921,2.473-56.83c1.273-60.255,1.321-120.517-2.639-180.74c-3.17-48.172-7.705-96.163-14.681-143.925
		c-12.439-85.187-31.978-168.666-60.073-250.094c-1.055-3.056-3.195-5.961-2.065-9.408c1.086-1.166,2.413-1.207,3.729-1.287
		c15.615-0.95,31.17-2.614,46.752-3.947c63.418-5.424,123.762-21.722,180.885-49.856c38.878-19.149,74.101-43.259,103.304-75.642
		C2496.841,1164.791,2512.846,1098.946,2500.844,1025.915z M2119.513,1503.575c7.56,31.703,13.999,63.641,19.252,95.779
		c4.393,26.874,8.088,53.87,11.149,80.958c3.06,27.079,5.648,54.212,7.334,81.371c1.834,29.537,2.651,59.157,3.219,88.782
		c0.618,32.266-0.421,64.474-1.192,96.682c-0.437,18.271-1.876,36.537-1.751,54.846c0.014,2-0.201,4.026,0.049,5.996
		c3.692,29.07-7.24,54.208-21.274,78.409c-15.819,27.279-38.341,48.281-63.448,66.808c-31.441,23.2-65.386,42.171-100.707,58.597
		c-32.271,15.01-65.487,27.673-99.277,39.037c-53.405,17.962-107.866,31.648-162.989,42.857
		c-39.778,8.088-79.869,14.389-120.163,19.416c-37.956,4.736-75.989,8.461-114.169,10.873c-29.883,1.889-59.757,3.405-89.698,4.172
		c-13.633,0.348-27.273,0.604-41.592,0.924c-39.931,0.014-80.498-1.77-121.007-4.239c-58.108-3.542-115.985-9.777-173.45-19.132
		c-56.132-9.137-111.816-20.515-166.706-35.661c-50.095-13.824-99.273-30.252-146.843-51.144
		c-53.235-23.379-103.977-51.276-146.854-91.15c-24.443-22.732-41.874-50.656-51.584-82.965c-0.766-2.546-1.216-5.227-2.285-7.635
		c-9.648-21.748-3.341-41.663,7.232-60.885c9.627-17.505,21.672-33.471,32.941-49.919c21.424-31.27,36.525-64.938,38.512-103.357
		c2.202-42.542-1.708-84.276-15.59-124.979c-10.626-31.156-17.544-63.398-24.901-95.474c-9.446-41.18-15.987-82.884-20.916-124.778
		c-2.791-23.72-4.705-47.612-5.331-71.587c-0.303-11.608-1.313-23.237-1.034-34.864c0.866-35.9,3.532-71.667,8.58-107.239
		c6.749-47.547,17.618-94.136,33.442-139.468c10.959-31.395,24.229-61.816,40.06-91.155c14.402-26.692,30.513-52.215,48.721-76.419
		c20.055-26.659,42.352-51.269,67.446-73.338c27.046-23.785,56.175-44.737,87.179-62.901c26.105-15.295,53.305-28.6,81.052-40.785
		c25.871-11.361,51.975-22.03,78.678-31.302c46.617-16.185,94.203-28.41,142.849-36.71c45.725-7.803,91.738-12.167,138.092-10.588
		c39.903,1.359,79.461,6.216,118.719,13.995c58.949,11.682,115.519,30.456,170.242,54.97
		c37.086,16.613,72.397,36.567,106.597,58.496c15.964,10.235,31.772,20.7,46.839,32.233c1.91,1.462,4.126,2.065,6.195,3.074
		c5.381,2.622,8.949,6.743,9.083,13.106c0.07,3.332,0.261,6.672,0.109,9.995c-2.631,57.673,8.878,113.033,26.332,167.622
		c9.471,29.622,23.645,57.176,35.135,85.891c6.553,16.373,12.39,32.966,15.213,50.48c1.137,7.045,0.909,13.981-1.385,20.699
		c-1.97,5.772-4.981,10.93-10.996,13.53c-3.719,1.607-6.877,4.065-9.842,6.746c-11.916,10.777-12.2,23.654-1.238,35.509
		c17.792,19.243,39.779,32.038,63.682,41.911c10.146,4.19,20.361,8.238,30.685,11.96c43.492,15.678,88.504,23.889,134.499,27.469
		c17.614,1.371,35.221,1.74,52.86,1.728c3.318-0.002,6.651-0.246,9.927,0.734c2.123,0.636,3.602,1.421,3.076,4.075
		c-0.385,1.949-0.206,4.115-3.032,4.264c-0.998,0.053-1.995,0.124-2.991,0.21c-3.278,0.286-4.545,2.246-4.602,5.362
		c-0.058,3.178,1.448,5.704,4.508,5.346c8.667-1.014,10.285,4.811,12.427,11.107
		C2098.182,1421.913,2109.715,1462.485,2119.513,1503.575z M2469.113,1099.595c-7.635,38.754-25.008,72.883-51.309,102.168
		c-14.729,16.401-32.457,29.618-51.115,41.304c-63.966,40.062-133.802,63-208.73,71.012c-29.442,3.149-58.89,5.911-93.417,6.068
		c-63.567-1.175-130.293-11.183-193.747-38.279c-16.243-6.936-31.98-14.839-47.021-24.103c-7.021-4.326-6.999-4.387-1.03-10.534
		c2.321-2.389,4.765-4.665,7.033-7.102c5.435-5.837,8.405-12.73,8.424-20.76c0.033-13.994,0.574-28.02-0.163-41.976
		c-0.813-15.413-6.364-29.832-11.63-44.193c-6.535-17.824-14.897-34.872-22.419-52.278c-16.564-38.334-27.938-78.286-36.109-119.17
		c-4.971-24.87-7.94-49.941-5.655-75.371c3.648-40.615,14.522-78.967,35.637-114.155c20.514-34.189,49.557-58.786,85.195-75.917
		c31.266-15.03,64.474-22.982,98.969-24.714c15.236-0.765,30.47,2.182,45.338,5.898c28.201,7.048,53.276,20.139,74.934,39.604
		c10.994,9.882,19.33,21.956,27.024,34.383c21.699,35.052,35.675,73.4,46.773,112.85c4.079,14.496,14.504,23.535,25.527,32.127
		c3.9,3.041,9.114,3.644,14.276,3.665c19.988,0.079,39.741-0.253,59.46-5.276c24.597-6.264,48.825-1.545,72.542,6.427
		c26.873,9.033,51.311,22.546,71.238,42.569c24.356,24.472,40.834,53.954,48.659,87.837c2.315,10.023,4.347,20.185,5.436,30.399
		C2474.586,1074.764,2471.548,1087.244,2469.113,1099.595z"/>
	<path fill-rule="evenodd" clip-rule="evenodd" fill="#2F2F2F" d="M1680.471,1049.367c0.057,25.975-7.332,49.327-25.375,68.467
		c-23.171,24.581-52.553,31.944-84.894,27.538c-68.06-9.274-123.383-74.696-122.069-143.273
		c1.138-59.307,50.314-101.21,109.002-92.881C1625.162,918.872,1680.42,981.673,1680.471,1049.367z"/>
	<path fill-rule="evenodd" clip-rule="evenodd" fill="#2F2F2F" d="M1063.896,1186.365c-14.719-4.341-29.316-4.941-43.813-6.118
		c-22.567-1.832-45.198-2.743-67.856-3.05c-18.458-0.251-32.544-10.131-37.878-25.713c-8.22-24.013,8.416-48.771,33.799-49.629
		c23.992-0.811,47.965,0.717,71.876,2.463c46.186,3.371,92.133,8.815,137.615,17.738c16.988,3.333,33.89,7.056,50.566,11.719
		c18.352,5.131,29.271,18.172,29.871,35.439c0.603,17.327-9.246,31.464-27.01,37.711c-58.262,20.488-114.265,45.873-167.581,77.073
		c-12.065,7.061-23.642,14.949-35.645,22.119c-17.716,10.582-38.192,6.896-50.104-8.695c-13.682-17.908-9.683-41.76,9.591-55.062
		c17.824-12.302,36.372-23.48,55.353-33.909C1036.339,1200.944,1050.151,1193.717,1063.896,1186.365z"/>
	<path fill-rule="evenodd" clip-rule="evenodd" fill="#2F2F2F" d="M1657.361,1489.712c0.262-20.905,5.007-38.271,9.531-55.667
		c2.345-9.017,4.878-17.985,7.366-26.964c1.355-4.889,1.734-9.85,1.012-14.848c-2.321-16.071-13.572-25.254-29.797-24.498
		c-7.761,0.361-14.956,3.101-22.317,5.142c-5.776,1.602-11.504,3.417-17.611,3.119c-14.111-0.689-20.329-10.182-15.084-23.213
		c2.38-5.91,6.092-11.056,9.804-16.195c4.872-6.744,10.134-13.277,14.337-20.424c11.479-19.519,3.268-40.996-18.247-48.166
		c-10.227-3.408-20.961-3.678-31.623-3.704c-28.844-0.069-57.022-4.45-84.646-12.618c-8.024-2.374-15.821-5.222-22.062-11.148
		c-11.237-10.67-9.408-21.897,4.828-28.098c13.938-6.07,28.559-5.825,43.223-3.673c5.916,0.867,11.819,2.083,17.588,3.659
		c24.932,6.809,50.429,8.974,76.122,9.467c11.338,0.219,22.628,1.011,33.887,2.199c29.837,3.151,53.068,25.417,57.598,55.144
		c1.012,6.642,0.722,13.2-1.401,19.728c-3.661,11.266-3.219,12.587,7.212,18.132c21.942,11.665,34.271,29.812,37.784,54.277
		c2.113,14.718,0.894,29.3-2.005,43.69c-4.205,20.875-9.164,41.597-13.605,62.426c-1.456,6.826-2.359,13.774-3.41,20.683
		c-0.904,5.951-2.141,11.822-4.731,17.273c-5.243,11.029-14.062,16.582-26.297,16.351c-11.323-0.215-19.092-6.265-23.572-18.279
		c-1.158-3.105-2.204-6.34-2.646-9.604C1657.84,1498.308,1657.6,1492.643,1657.361,1489.712z"/>
</g>
<g id="Layer_2">
	<path fill="#F0F0F0" d="M3001.748,0.125c-1000.541,0-2001.083,0-3001.623,0.001c0,1000.541,0,2001.083,0,3001.623
		c1000.542-0.001,2001.084-0.001,3001.624-0.002C3001.748,2001.207,3001.748,1000.666,3001.748,0.125z M2446.406,1220.719
		c-29.203,32.383-64.426,56.493-103.304,75.642c-57.123,28.134-117.467,44.432-180.885,49.856
		c-15.582,1.333-31.137,2.997-46.752,3.947c-1.315,0.08-2.643,0.121-3.729,1.287c-1.13,3.447,1.011,6.352,2.065,9.408
		c28.096,81.428,47.634,164.908,60.073,250.094c6.976,47.762,11.511,95.753,14.681,143.925c3.96,60.224,3.912,120.485,2.639,180.74
		c-0.4,18.909-0.739,37.908-2.473,56.83c-0.783,8.532,1.221,17.199,1.581,25.859c1.433,34.398-9.522,64.901-28.457,92.911
		c-19.636,29.05-45.064,52.424-73.121,73.095c-48.958,36.071-103.327,61.823-159.871,83.309
		c-71.168,27.042-144.609,45.876-219.308,60.065c-39.59,7.521-79.425,13.416-119.428,18.253
		c-47.939,5.798-96.045,9.615-144.263,11.812c-53.916,2.455-107.872,2.879-161.837,1.404c-44.935-1.229-89.812-3.672-134.543-7.972
		c-78.943-7.589-157.184-19.725-234.418-38.005c-59.698-14.13-118.328-31.641-175.105-55.012
		c-55.367-22.791-108.177-50.105-154.625-88.506c-14.152-11.699-27.148-24.582-39.161-38.451
		c-26.009-30.028-41.541-64.92-47.153-104.102c-2.89-20.174-0.007-39.77,8.618-58.471c8.294-17.983,19.991-33.799,31.086-50.003
		c9.794-14.304,19.384-28.729,26.925-44.376c18.001-37.357,21.995-76.277,13.443-116.797c-4.754-22.528-12.177-44.271-18.248-66.407
		c-16.661-60.755-29.409-122.242-37.309-184.805c-7.575-59.981-10.057-120.162-6.985-180.389
		c4.82-94.51,23.697-186.056,63.191-272.673c26.18-57.417,60.238-109.581,103-156.117
		c54.437-59.242,119.071-104.012,191.788-137.852c51.74-24.08,104.728-44.583,159.814-59.595
		c57.053-15.548,115.016-25.342,174.11-28.543c90.26-4.889,178.861,4.277,265.684,29.94
		c88.049,26.026,168.927,66.569,243.804,119.422c4.897,3.457,9.726,7.014,14.647,10.438c2.535,1.765,4.252,1.129,5.073-1.977
		c1.615-6.115,3.071-12.29,5.056-18.287c28.162-85.135,85.701-139.335,172.303-162.174c39.516-10.422,79.74-11.66,119.856-3.756
		c54.563,10.752,94.489,42.725,124.072,88.609c20.757,32.196,33.791,67.836,44.974,104.22c1.467,4.774,2.655,9.638,4.251,14.368
		c4.265,12.639,11.567,17.764,24.913,16.712c6.935-0.547,13.813-2.105,20.654-3.515c30.414-6.272,60.855-6.812,91.211-0.001
		c35.596,7.986,66.389,24.958,93.084,49.863c32.656,30.465,55.541,66.712,62.814,110.969
		C2512.846,1098.946,2496.841,1164.791,2446.406,1220.719z"/>
</g>
</svg>
