<?xml version="1.0" encoding="utf-8"?>
<!-- Generator: Adobe Illustrator 16.0.0, SVG Export Plug-In . SVG Version: 6.00 Build 0)  -->
<!DOCTYPE svg PUBLIC "-//W3C//DTD SVG 1.1//EN" "http://www.w3.org/Graphics/SVG/1.1/DTD/svg11.dtd">
<svg version="1.1" xmlns="http://www.w3.org/2000/svg" xmlns:xlink="http://www.w3.org/1999/xlink" x="0px" y="0px" width="2000px"
	 height="2000px" viewBox="0 0 2000 2000" enable-background="new 0 0 2000 2000" xml:space="preserve">
<g id="Layer_1">
	<path fill-rule="evenodd" clip-rule="evenodd" fill="#2F2F2F" d="M1516.391,1247.3c20.817-42.929,41.018-86.131,59.098-130.296
		c26.54-64.829,48.525-131.057,60.076-200.343c5.978-35.86,9.797-71.923,7.7-108.453c-1.604-27.969-5.519-55.522-11.915-82.757
		c-10.008-42.615-25.837-83.005-47.151-121.188c-21.301-38.161-47.059-73.073-77.993-104.042
		c-14.604-14.621-30.427-27.863-46.962-40.228c-45.18-33.783-94.61-59.396-148.381-76.521
		c-55.64-17.721-112.516-26.975-171.025-23.542c-19.443,1.141-38.907,2.983-58.179,5.77c-38.281,5.537-75.649,15.072-112.219,27.745
		c-64.248,22.265-123.629,53.676-178.003,94.5c-29.343,22.03-56.827,46.128-80.729,74.087
		c-45.188,52.857-78.975,112.403-102.996,177.502c-7.366,19.962-13.35,40.438-19.82,60.726c-2.532,7.937-9.196,13.32-17.502,13.153
		c-14.685-0.295-29.255,0.562-43.668,3.542c-38.834,8.03-72.854,25.427-100.698,53.706c-21.032,21.36-36.967,46.45-49.308,73.781
		c-10.023,22.198-17.108,45.352-19.096,69.602c-2.316,28.262,3.882,55.026,17.416,80.102c8.937,16.557,23.056,26.057,40.679,30.787
		c5.244,1.406,10.99,2.241,16.337,1.691c10.642-1.094,20.69-4.735,30.268-9.625c15.079-7.697,27.189-18.861,38.383-31.386
		c7.67-8.581,16.228-16.38,24.508-24.405c8.742-8.475,19.65-9.431,31.015-8.499c0.85,0.069,1.899,0.231,2.47,0.765
		c4.451,4.156,9.32,7.597,8.854,15.208c-1.362,22.276,1.838,44.222,6.245,66.013c6.127,30.295,15.099,59.755,25.842,88.703
		c16.891,45.512,37.775,89.016,64.84,129.438c26.278,39.244,56.213,75.308,91.471,106.897
		c25.169,22.551,51.804,43.163,79.939,61.822c22.755,15.093,46.353,28.769,70.464,41.623c38.331,20.436,78.243,36.914,119.951,48.94
		c65.169,18.793,131.815,27.229,211.636,27.859c12.732-0.753,37.518-1.909,62.247-3.783c18.98-1.438,37.976-3.19,56.816-5.852
		c31.142-4.4,62.263-9.104,93.213-14.676c37.57-6.765,74.66-15.72,110.61-28.813c19.221-7.001,37.904-15.108,54.672-27.156
		c8.801-6.323,13.695-14.969,16.327-25.099c0.646-2.483,0.667-5.362,0.13-7.879c-2.674-12.533-9.068-21.747-22.109-25.775
		c-10.111-3.124-20.36-4.479-30.801-4.459c-12.447,0.022-24.797-0.425-37.095-2.659c-18.772-3.408-35.337-10.259-49.009-24.516
		c-13.953-14.552-21.178-31.556-22.93-51.072c-2.961-32.997,2.094-64.926,13.407-96.058
		C1492.765,1296.47,1504.487,1271.848,1516.391,1247.3z M1441.169,1375.852c-6.393,40.584,3.452,77.009,27.98,109.606
		c8.487,11.279,20.503,18.199,32.881,24.366c14.812,7.38,30.564,12.02,46.896,14.307c6.438,0.901,10.249,4.763,14.053,9.078
		c0.794,0.9,1.108,2.385,1.268,3.647c0.222,1.75,0.101,3.546,0.103,5.322c0.017,10.503-4.395,16.603-14.699,19.891
		c-27.282,8.709-55.082,15.529-83.202,20.713c-34.224,6.309-68.553,12.226-103.02,16.97c-25.897,3.564-52.062,5.331-78.152,7.324
		c-34.579,2.64-69.252,2.283-103.845,0.773c-75.513-3.295-148.857-17.368-218.414-47.803
		c-56.801-24.854-109.574-56.606-157.648-95.881c-35.535-29.029-67.772-61.398-96.24-97.431
		c-35.403-44.812-61.946-94.534-81.748-147.985c-11.114-30.003-20.466-60.472-25.838-92.093
		c-3.212-18.906-4.224-37.896-3.507-57.028c0.166-4.41,0.133-8.902-0.499-13.256c-2.939-20.246-16.461-29.711-35.005-34.234
		c-7.715-1.882-15.025-0.41-22.249,1.61c-20.132,5.634-37.264,16.27-51.529,31.604c-8.618,9.264-17.456,18.323-26.256,27.415
		c-9.27,9.576-20.302,14.882-33.942,13.819c-2.428-0.189-4.885-0.088-7.325-0.021c-4.489,0.123-7.872-1.883-11.339-4.655
		c-13.866-11.089-18.995-26.319-21.03-43.051c-7.322-60.181,12.769-110.819,53.966-153.988
		c9.966-10.443,20.268-20.539,32.402-28.581c21.673-14.364,45.504-21.518,71.436-22.341c17.824-0.566,35.521,0.659,52.987,3.892
		c5.457,1.01,10.456,4.628,15.59,7.203c2.493,1.25,4.813,2.848,7.211,4.287c0.272-0.252,0.546-0.505,0.818-0.758
		c-2.988-4.805-5.768-9.757-9.033-14.364c-2.313-3.263-2.951-6.616-3.175-10.522c-0.546-9.522,1.904-18.456,4.304-27.46
		c15.884-59.582,39.326-115.884,72.875-167.783c33.422-51.701,76.012-94.865,124.84-131.879
		c68.575-51.983,145.257-86.571,229.377-104.754c47.819-10.337,96.195-13.583,144.957-11.575
		c99.522,4.101,188.275,37.31,265.24,100.536c49.966,41.046,90.743,89.898,119.098,148.485
		c19.978,41.28,32.926,84.607,38.358,130.216c3.903,32.774,3.621,65.662,1.728,98.42c-3.469,59.97-17.888,117.801-37.361,174.453
		c-16.826,48.942-37.245,96.407-59.038,143.299c-15.336,32.995-31.21,65.742-46.188,98.897
		C1456.065,1313.738,1446.178,1344.06,1441.169,1375.852z"/>
	<g>
		<path fill-rule="evenodd" clip-rule="evenodd" fill="#2F2F2F" d="M769.274,875.052c0.996-18.31,1.312-34.995,7.714-50.749
			c3.632-8.938,8.511-17.061,15.282-23.979c24.601-25.135,60.241-23.933,82.954,2.927c3.423,4.047,6.248,8.611,9.234,13.014
			c4.357,6.424,8.447,13.037,12.939,19.363c13.936,19.63,32.439,33.126,55.227,40.886c18.721,6.376,37.788,9.169,57.604,7.35
			c19.863-1.825,39.772-3.302,59.691-4.338c16.333-0.85,32.345,1.492,47.492,8.018c5.069,2.185,10.084,4.682,14.714,7.669
			c23.696,15.287,33.4,40.263,26.064,67.551c-7.665,28.513-26.017,48.609-51.455,62.351c-30.006,16.209-61.822,27.86-95.123,35.31
			c-18.875,4.223-37.948,6.868-57.361,6.778c-44.431-0.207-83.606-14.739-116.993-43.884
			c-37.474-32.713-59.009-74.269-65.768-123.468C770.286,891.077,769.895,882.193,769.274,875.052z"/>
		<path fill-rule="evenodd" clip-rule="evenodd" fill="#2F2F2F" d="M1325.963,773.806c-0.674,26.176-8.909,50.1-28.695,69.262
			c-12.852,12.447-28.298,18.78-46.226,18.887c-7.446,0.044-14.655-1.53-21.198-4.936c-7.45-3.88-15.154-7.691-21.657-12.896
			c-26.688-21.365-57.917-31.05-90.836-36.848c-8.722-1.536-17.532-2.915-26.028-5.332c-18.32-5.211-22.886-13.556-18.806-32.289
			c3.168-14.552,10.61-26.856,20.686-37.402c26.155-27.375,57.123-47.14,94.271-55.763c28.679-6.657,56.962-4.281,83.836,8.266
			c30.238,14.117,47.446,38.321,53.107,70.985c0.453,2.615,0.813,5.254,1.036,7.898
			C1325.714,766.73,1325.775,769.84,1325.963,773.806z"/>
		<path fill-rule="evenodd" clip-rule="evenodd" fill="#2F2F2F" d="M975.528,634.831c-0.689,22.392-5.649,47.695-16.288,71.742
			c-5.166,11.677-11.967,22.277-21.79,30.685c-9.691,8.295-16,8.313-25.694-0.214c-4.327-3.807-8.309-8.004-12.523-11.943
			c-14.537-13.59-30.983-23.618-50.832-27.431c-4.338-0.833-8.566-2.262-12.826-3.482c-20.494-5.869-30.976-20.467-34.648-40.559
			c-3.089-16.897,0.155-33.221,6.785-48.726c13.514-31.599,35.459-55.128,68.242-66.999c31.867-11.538,61.347-1.657,80.399,26.384
			C969.999,584.372,975.69,606.88,975.528,634.831z"/>
	</g>
	<path fill-rule="evenodd" clip-rule="evenodd" fill="#2F2F2F" d="M1362.849,1245.527c-3.233-1.836-6.557-3.532-9.68-5.539
		c-6.938-4.458-14.513-6.634-22.701-6.476c-7.529,0.146-15.145-0.042-22.562,1.023c-15.042,2.163-27.515,10.207-38.333,20.189
		c-13.52,12.475-26.391,25.706-38.917,39.191c-18.706,20.137-40.706,34.004-68.042,38.97c-6.366,1.157-12.424,0.368-18.418-1.183
		c-18.445-4.774-32.896-14.688-42.079-32.009c-8.66-16.335-13.506-33.658-16.089-51.821c-3.262-22.928,0.45-45.159,6.644-67.066
		c11.265-39.843,31.197-75.09,59.912-104.732c33.172-34.241,74.128-53.656,121.761-58.022c25.088-2.3,48.146,4.618,68.265,19.397
		c8.872,6.518,14.131,16.684,16.835,28.386c-3.923-1.761-8.096-3.116-11.723-5.354c-14.863-9.171-31.146-12.087-48.33-12.473
		c-21.517-0.481-42.496,1.678-62.803,9.243c-23.094,8.605-42.796,22.092-60.011,39.678c-23.201,23.7-41.08,50.595-51.28,82.298
		c-8.815,27.402-9.965,55.328-4.797,83.529c2.385,13.008,8.12,24.302,18.365,33.107c3.533,3.037,7.227,4.412,11.932,4.877
		c19.091,1.884,34.151-5.568,46.916-19.006c9.785-10.299,19.207-20.979,29.475-30.772c22.136-21.108,47.124-37.722,77.222-45.282
		c19.632-4.932,39.243,2.997,50.306,19.894c3.85,5.88,7.439,11.937,9.274,18.792
		C1363.61,1244.752,1363.229,1245.139,1362.849,1245.527z"/>
</g>
<g id="Layer_2">
	<path fill-rule="evenodd" clip-rule="evenodd" fill="#F2F2F2" d="M-63.098-66.099v2136.214h2136.214V-66.099H-63.098z
		 M1635.565,916.661c-11.551,69.286-33.536,135.514-60.076,200.343c-18.08,44.165-38.28,87.367-59.098,130.296
		c-11.904,24.548-23.626,49.17-32.972,74.882c-11.313,31.132-16.368,63.061-13.407,96.058c1.752,19.517,8.977,36.521,22.93,51.072
		c13.672,14.257,30.236,21.107,49.009,24.516c12.298,2.234,24.647,2.682,37.095,2.659c10.44-0.02,20.689,1.335,30.801,4.459
		c13.041,4.028,19.436,13.242,22.109,25.775c0.537,2.517,0.516,5.396-0.13,7.879c-2.632,10.13-7.526,18.775-16.327,25.099
		c-16.768,12.048-35.451,20.155-54.672,27.156c-35.95,13.094-73.04,22.049-110.61,28.813c-30.95,5.572-62.071,10.275-93.213,14.676
		c-18.841,2.661-37.836,4.414-56.816,5.852c-24.729,1.874-49.515,3.03-62.247,3.783c-79.82-0.631-146.467-9.066-211.636-27.859
		c-41.708-12.026-81.62-28.505-119.951-48.94c-24.111-12.854-47.709-26.53-70.464-41.623c-28.135-18.659-54.77-39.271-79.939-61.822
		c-35.257-31.59-65.193-67.653-91.471-106.897c-27.065-40.422-47.949-83.926-64.84-129.438
		c-10.744-28.948-19.715-58.408-25.842-88.703c-4.407-21.791-7.607-43.736-6.245-66.013c0.466-7.611-4.403-11.052-8.854-15.208
		c-0.57-0.533-1.62-0.695-2.47-0.765c-11.364-0.932-22.272,0.024-31.015,8.499c-8.28,8.025-16.838,15.824-24.508,24.405
		c-11.194,12.524-23.304,23.688-38.383,31.386c-9.578,4.89-19.626,8.531-30.268,9.625c-5.347,0.55-11.093-0.285-16.337-1.691
		c-17.623-4.73-31.742-14.23-40.679-30.787c-13.534-25.075-19.732-51.84-17.416-80.102c1.988-24.25,9.073-47.403,19.096-69.602
		c12.34-27.331,28.275-52.421,49.308-73.781c27.845-28.279,61.864-45.676,100.698-53.706c14.413-2.98,28.983-3.838,43.668-3.542
		c8.306,0.167,14.97-5.216,17.502-13.153c6.47-20.288,12.454-40.764,19.82-60.726c24.021-65.099,57.807-124.645,102.996-177.502
		c23.902-27.959,51.386-52.057,80.729-74.087c54.375-40.824,113.755-72.236,178.003-94.5
		c36.569-12.673,73.938-22.208,112.219-27.745c19.271-2.787,38.735-4.629,58.179-5.77c58.51-3.434,115.386,5.821,171.025,23.542
		c53.771,17.125,103.201,42.738,148.381,76.521c16.535,12.365,32.357,25.607,46.962,40.228
		c30.935,30.969,56.692,65.881,77.993,104.042c21.314,38.183,37.144,78.573,47.151,121.188
		c6.396,27.234,10.311,54.788,11.915,82.757C1645.362,844.738,1641.542,880.801,1635.565,916.661z"/>
</g>
</svg>
