<?xml version="1.0" encoding="utf-8"?>
<!-- Generator: Adobe Illustrator 16.0.0, SVG Export Plug-In . SVG Version: 6.00 Build 0)  -->
<!DOCTYPE svg PUBLIC "-//W3C//DTD SVG 1.1//EN" "http://www.w3.org/Graphics/SVG/1.1/DTD/svg11.dtd">
<svg version="1.1" xmlns="http://www.w3.org/2000/svg" xmlns:xlink="http://www.w3.org/1999/xlink" x="0px" y="0px" width="2000px"
	 height="2000px" viewBox="0 0 2000 2000" enable-background="new 0 0 2000 2000" xml:space="preserve">
<g id="Layer_1">
	<path fill-rule="evenodd" clip-rule="evenodd" d="M1631.997,546.159c-37.265,0-74.812,0-112.428,0
		c-36.279-96.167-100.56-164.453-197.375-198.353c-96.645-33.838-190.177-23.4-276.963,31.203
		C965.802,428.984,916.227,501.44,901.04,594.042c-20.636,125.828,23.03,228.759,120.95,310.988c-3.228,0.56-5.043,0.974-6.881,1.18
		c-53.842,6.033-107.184,2.949-159.7-10.293c-107.22-27.037-192.785-85.265-253.988-178.082
		c-9.538-14.464-19.027-28.96-28.578-43.415c-1.779-2.693-3.75-5.258-6.044-8.458c-7.452,7.31-14.302,14.09-21.218,20.803
		c-28.71,27.868-57.123,56.013-81.139,88.193c-92.553,124.013-129.917,262.623-107.768,416.053
		c14.064,97.428,52.879,185.009,114.97,261.241c121.467,149.132,280.584,223.684,471.396,232.758
		c58.881,2.801,117.176-3.555,174.429-17.688c132.838-32.792,245.235-99.599,332.489-205.509
		c99.775-121.109,142.345-260.434,125.143-416.894c-8.109-73.771-31.826-142.777-68.727-207.198
		c-4.792-8.366-9.814-16.601-14.415-24.362c9.261-19.787,18.266-39.025,27.706-59.195c12.051,0,24.676,0,37.302,0
		c12.997,0,25.995,0.074,38.992-0.021c12.497-0.092,25.033,0.448,37.283-0.354C1635.462,732.209,1634.491,554.199,1631.997,546.159z
		 M1609.781,730.237c-3.283,0.178-6.796,0.527-10.309,0.533c-29.326,0.045-58.653,0.012-87.979,0.034
		c-10.132,0.008-10.248,0.011-13.229,9.36c-8.143,25.544-19.889,49.369-34.898,72.592c1.894,2.977,3.778,6.01,5.729,8.999
		c41.544,63.668,69.152,132.887,80.324,208.102c19.786,133.217-7.675,256.629-81.824,368.812
		c-74.133,112.16-177.121,187.554-303.841,230.919c-72.319,24.75-146.987,35.469-223.259,31.904
		c-158.574-7.414-296.262-64.569-409.133-177.234c-78.5-78.356-129.498-172.317-148.999-281.822
		c-24.466-137.386,2.991-264.779,78.599-381.898c27.846-43.133,62.45-80.457,99.764-115.422c0.467-0.438,1.138-0.656,3.464-1.955
		c65.778,112.889,161.776,185.441,288.477,216.22c77.06,18.72,154.22,16.973,233.21-1.769c-9.522-5.931-17.361-10.831-25.216-15.703
		c-35.9-22.274-65.966-50.714-89.71-85.664c-38.852-57.186-55.919-120.531-50.855-189.325
		c9.925-134.82,110.833-245.756,244.328-269.664c144.593-25.895,287.511,59.673,333.422,199.622
		c1.341,4.086,2.708,8.164,4.296,12.944c35.822,0,71.371,0,106.659,0C1611.061,577.913,1611.816,713.432,1609.781,730.237z"/>
	<path fill-rule="evenodd" clip-rule="evenodd" d="M1260.946,639.877c-38.753-0.164-69.308-31.281-69.011-70.281
		c0.291-38.105,31.49-69.065,69.585-69.054c38.262,0.012,69.899,31.819,69.758,70.133
		C1331.135,609.25,1299.841,640.042,1260.946,639.877z"/>
</g>
<g id="Layer_2">
	<path fill="#F2F2F2" d="M2503.624-498C1503.082-498,502.541-498-498-497.999c0,1000.541,0,2001.083,0,3001.624
		c1000.542-0.001,2001.083-0.001,3001.625-0.002C2503.625,1503.082,2503.625,502.541,2503.624-498z M1633.243,753.789
		c-12.25,0.802-24.786,0.262-37.283,0.354c-12.997,0.096-25.995,0.021-38.992,0.021c-12.626,0-25.251,0-37.302,0
		c-9.44,20.169-18.445,39.408-27.706,59.195c4.601,7.762,9.623,15.996,14.415,24.362c36.9,64.421,60.617,133.428,68.727,207.198
		c17.202,156.46-25.367,295.784-125.143,416.894c-87.254,105.91-199.651,172.717-332.489,205.509
		c-57.253,14.134-115.548,20.489-174.429,17.688c-190.812-9.074-349.929-83.626-471.396-232.758
		c-62.091-76.232-100.905-163.813-114.97-261.241c-22.149-153.43,15.215-292.04,107.768-416.053
		c24.017-32.181,52.429-60.326,81.139-88.193c6.917-6.713,13.766-13.493,21.218-20.803c2.294,3.2,4.265,5.765,6.044,8.458
		c9.551,14.455,19.04,28.951,28.578,43.415c61.203,92.816,146.768,151.045,253.988,178.082
		c52.516,13.243,105.858,16.327,159.7,10.293c1.838-0.206,3.653-0.62,6.881-1.18c-97.92-82.229-141.586-185.16-120.95-310.988
		c15.187-92.602,64.762-165.058,144.191-215.033c86.786-54.604,180.318-65.042,276.963-31.203
		c96.815,33.9,161.096,102.187,197.375,198.353c37.615,0,75.163,0,112.428,0C1634.491,554.199,1635.462,732.209,1633.243,753.789z"
		/>
</g>
</svg>
