<?xml version="1.0" encoding="utf-8"?>
<!-- Generator: Adobe Illustrator 16.0.0, SVG Export Plug-In . SVG Version: 6.00 Build 0)  -->
<!DOCTYPE svg PUBLIC "-//W3C//DTD SVG 1.1//EN" "http://www.w3.org/Graphics/SVG/1.1/DTD/svg11.dtd">
<svg version="1.1" id="Capa_1" xmlns="http://www.w3.org/2000/svg" xmlns:xlink="http://www.w3.org/1999/xlink" x="0px" y="0px"
	 width="680px" height="680px" viewBox="-84 -84 680 680" enable-background="new -84 -84 680 680" xml:space="preserve">
<polygon fill="none" stroke="#2F2F2F" stroke-width="6" stroke-miterlimit="10" points="212.147,366.049 200.537,371.438 
	200.537,377.248 301.341,377.248 301.341,371.438 289.73,366.049 "/>
<path fill="none" stroke="#2F2F2F" stroke-width="6" stroke-miterlimit="10" d="M181.351,221.511v8.002h9.066v-8.002
	c0-4.705,3.82-8.524,8.536-8.524h15.988c4.707,0,8.535,3.808,8.535,8.524v7.992h139.196c0-0.607,0-1.225,0-1.87
	c0-4.569,3.819-8.269,8.532-8.269h24.912l19.569-44.001l4.702,2.105l4.8-8.759H43.73c-5.879,0-10.664,4.789-10.664,10.666v50.137
	h30.979v-8.002c0-4.705,3.81-8.524,8.528-8.524H88.57c4.708,0,8.524,3.808,8.524,8.524v8.002h9.065v-8.002
	c0-4.705,3.825-8.524,8.539-8.524h15.993c4.703,0,8.535,3.808,8.535,8.524v8.002h9.061v-8.002c0-4.705,3.813-8.524,8.532-8.524
	h15.996C177.533,212.986,181.351,216.794,181.351,221.511z"/>
<path fill="none" stroke="#2F2F2F" stroke-width="6" stroke-miterlimit="10" d="M414.789,219.377h10.823
	c4.703,0,8.523,3.7,8.523,8.269v1.87h43.739v-50.138c0-5.877-4.777-10.667-10.666-10.667h-32.276l-6.715,12.237l3.054,1.366
	L414.789,219.377z"/>
<path fill="none" stroke="#2F2F2F" stroke-width="6" stroke-miterlimit="10" d="M139.863,297.158
	c4.995-0.34,8.944-4.459,8.944-9.533c0-5.301-4.311-9.598-9.599-9.598c-4.848,0-8.817,3.614-9.475,8.277
	c-11.791-10.121-27.093-16.262-43.867-16.262c-15.742,0-30.184,5.418-41.661,14.454c0.01-0.194,0.063-0.386,0.063-0.589
	c0-5.309-4.309-9.6-9.604-9.6c-5.3,0-9.599,4.291-9.599,9.6c0,5.301,4.299,9.598,9.599,9.598c0.053,0,0.091-0.01,0.142-0.01
	c-10.188,11.814-16.397,27.189-16.397,44.015c0,16.898,6.247,32.297,16.504,44.141c-0.429-0.065-0.866-0.147-1.313-0.147
	c-5.29,0-9.599,4.317-9.599,9.6c0,5.328,4.309,9.619,9.599,9.595c5.306,0,9.6-4.307,9.6-9.61c0-0.486-0.075-0.984-0.145-1.457
	c11.649,9.568,26.553,15.329,42.811,15.329c16.268,0,31.175-5.761,42.824-15.329c-0.068,0.473-0.149,0.97-0.149,1.457
	c0,5.304,4.299,9.61,9.599,9.61c5.295,0,9.604-4.307,9.604-9.61c0-5.287-4.309-9.604-9.604-9.604c-0.446,0-0.883,0.081-1.313,0.146
	c10.262-11.845,16.509-27.244,16.509-44.142C153.335,322.355,148.301,308.408,139.863,297.158z"/>
<path fill="none" stroke="#2F2F2F" stroke-width="6" stroke-miterlimit="10" d="M486.418,287.646c0-5.303-4.302-9.599-9.62-9.62
	c-4.841,0-8.812,3.615-9.462,8.277c-11.787-10.121-27.092-16.262-43.862-16.262c-15.76,0-30.194,5.418-41.662,14.455
	c0-0.193,0.062-0.387,0.062-0.59c0-5.308-4.307-9.599-9.599-9.599c-5.307,0-9.609,4.291-9.609,9.599
	c0,5.302,4.301,9.598,9.609,9.598c0.035,0,0.086-0.01,0.132-0.01c-10.189,11.814-16.4,27.189-16.4,44.016
	c0,16.898,6.247,32.297,16.517,44.141c-0.447-0.066-0.873-0.146-1.32-0.146c-5.302,0-9.6,4.316-9.6,9.599
	c0,5.307,4.297,9.609,9.6,9.609c5.296,0,9.599-4.302,9.599-9.609c0-0.481-0.076-0.97-0.142-1.458
	c11.646,9.575,26.553,15.335,42.814,15.335c16.248,0,31.171-5.76,42.821-15.335c-0.086,0.487-0.162,0.975-0.162,1.458
	c0,5.307,4.311,9.609,9.599,9.609c5.304,0,9.62-4.302,9.62-9.609c0-5.282-4.316-9.599-9.62-9.599c-0.446,0-0.879,0.08-1.305,0.146
	c10.259-11.844,16.517-27.242,16.517-44.141c0-15.141-5.049-29.082-13.475-40.332C482.452,296.838,486.418,292.719,486.418,287.646z
	"/>
<path fill="#F2F2F2" stroke="#2F2F2F" stroke-width="6" stroke-miterlimit="10" d="M-91.5-99.768v703.535h700V-99.768H-91.5z
	 M557.239,469.273h-27.023v10.773c0,5.554-4.5,10.055-10.061,10.055h-59.074c-5.543,0-10.061-4.5-10.061-10.055v-10.773H64.488
	v10.773c0,5.554-4.49,10.055-10.047,10.055H-4.645c-5.546,0-10.047-4.5-10.047-10.055v-10.785h-31.438V226.121h23.888v-59.712
	c0-15.248,12.392-27.646,27.646-27.646h457.822l52.622-95.923c-1.832-2.08-3.011-4.788-3.011-7.787
	c0-6.47,5.256-11.726,11.736-11.726s11.736,5.256,11.736,11.726c0,6.273-4.938,11.345-11.119,11.678l-50.494,92.042h29.758
	c15.239,0,27.653,12.407,27.653,27.646v59.715h25.132V469.273z"/>
<polygon fill="none" stroke="#2F2F2F" stroke-width="6" stroke-miterlimit="10" points="173.592,297.244 173.592,377.248 
	191.996,377.248 191.996,365.998 210.252,357.525 291.604,357.525 309.873,365.998 309.873,377.248 328.264,377.248 
	328.264,297.244 "/>
<g>
	
		<rect x="227.465" y="330.318" fill="none" stroke="#2F2F2F" stroke-width="6" stroke-miterlimit="10" width="46.943" height="14.398"/>
	<path fill="none" stroke="#2F2F2F" stroke-width="6" stroke-miterlimit="10" d="M296.008,327.638c5.308,0,9.6,4.306,9.6,9.609
		c0,5.298-4.293,9.599-9.6,9.599c-5.298,0-9.6-4.302-9.6-9.599C286.407,331.943,290.71,327.638,296.008,327.638z"/>
	<path fill="none" stroke="#2F2F2F" stroke-width="6" stroke-miterlimit="10" d="M206.938,327.638c5.308,0,9.607,4.306,9.607,9.609
		c0,5.298-4.299,9.599-9.607,9.599c-5.3,0-9.599-4.302-9.599-9.599C197.339,331.943,201.638,327.638,206.938,327.638z"/>
</g>
<g>
	<path fill="none" stroke="#2F2F2F" stroke-width="6" stroke-miterlimit="10" d="M423.475,279.65
		c-31.906,0-57.869,25.954-57.869,57.859s25.963,57.869,57.869,57.869c31.911,0,57.859-25.963,57.859-57.869
		C481.345,305.604,455.386,279.65,423.475,279.65z M423.475,386.847c-27.202,0-49.338-22.124-49.338-49.317
		c0-27.208,22.136-49.342,49.338-49.342c27.197,0,49.343,22.134,49.343,49.342C472.816,364.718,450.683,386.847,423.475,386.847z"/>
	<path fill="none" stroke="#2F2F2F" stroke-width="6" stroke-miterlimit="10" d="M85.866,395.391
		c31.917,0,57.865-25.954,57.865-57.859c0-31.912-25.949-57.869-57.865-57.869c-31.908,0-57.868,25.957-57.868,57.869
		C27.998,369.418,53.957,395.391,85.866,395.391z M85.866,288.189c27.206,0,49.337,22.123,49.337,49.321
		c0,27.208-22.131,49.337-49.337,49.337c-27.193,0-49.332-22.129-49.332-49.337C36.532,310.312,58.662,288.189,85.866,288.189z"/>
	<path fill="none" stroke="#2F2F2F" stroke-width="6" stroke-miterlimit="10" d="M85.866,319.643
		c9.872,0,17.873,7.995,17.873,17.868s-8.002,17.878-17.873,17.878c-9.869,0-17.87-8.005-17.87-17.878
		S75.997,319.643,85.866,319.643z"/>
	<path fill="none" stroke="#2F2F2F" stroke-width="6" stroke-miterlimit="10" d="M423.475,319.643
		c9.863,0,17.858,7.995,17.858,17.868s-7.995,17.878-17.858,17.878c-9.868,0-17.877-8.005-17.877-17.878
		S413.606,319.643,423.475,319.643z"/>
</g>
</svg>
