<?xml version="1.0" encoding="utf-8"?>
<!-- Generator: Adobe Illustrator 16.0.0, SVG Export Plug-In . SVG Version: 6.00 Build 0)  -->
<!DOCTYPE svg PUBLIC "-//W3C//DTD SVG 1.1//EN" "http://www.w3.org/Graphics/SVG/1.1/DTD/svg11.dtd">
<svg version="1.1" id="Capa_1" xmlns="http://www.w3.org/2000/svg" xmlns:xlink="http://www.w3.org/1999/xlink" x="0px" y="0px"
	 width="2000px" height="2000px" viewBox="-200 -200 2000 2000" enable-background="new -200 -200 2000 2000" xml:space="preserve">
<path fill="#F2F2F2" d="M-343.795-259.787v2241.224h2295.229V-259.787H-343.795z M1432.125,1593.834
	c-3.458,3.925-8.437,6.173-13.67,6.173H181.545c-5.229,0-10.211-2.248-13.67-6.173c-3.458-3.926-5.062-9.148-4.406-14.338
	c31.072-245.399,42.126-306.819,42.582-309.312c0.244-1.322,0.63-2.616,1.155-3.852c77.59-182.668,231.908-259.613,276.527-278.608
	V836.046c-17.693-3.404-33.23-11.939-46.354-25.508c-47.094-48.687-45.214-147.878-44.995-155.498
	c0.029-78.447,11.645-113.729,24.63-128.642V355.75c-19.232-7.362-32.946-25.974-32.946-47.764v-58.668
	c0-10.062,8.16-18.223,18.223-18.223c10.062,0,18.222,8.16,18.222,18.223v53.118c9.177-54.098,36.189-102.18,74.799-137.968
	c-11.439-9.381-18.772-23.59-18.772-39.513V66.285c0-10.062,8.16-18.222,18.223-18.222s18.222,8.16,18.222,18.222v58.669
	c0,7.875,6.225,14.268,14.002,14.658c33.252-21.947,72.16-35.949,114.035-39.36v-82.03C641.02,8.16,649.18,0,659.242,0
	s18.223,8.16,18.223,18.222v81.144h245.097V18.222C922.562,8.16,930.721,0,940.783,0s18.223,8.16,18.223,18.222v82.03
	c43.117,3.517,83.108,18.233,117.002,41.317c6.322-1.651,11.024-7.362,11.024-14.199V68.702c0-10.062,8.159-18.222,18.222-18.222
	s18.223,8.16,18.223,18.222v58.668c0,15.292-6.768,28.995-17.438,38.373c37.884,35.646,64.386,83.217,73.457,136.67v-50.68
	c0-10.062,8.16-18.222,18.223-18.222s18.222,8.16,18.222,18.222v58.665c0,21.797-13.703,40.432-32.941,47.79v168.203
	c12.988,14.909,24.6,50.195,24.629,128.642c0.219,7.632,2.088,106.819-45.002,155.498c-13.123,13.568-28.656,22.104-46.347,25.508
	v151.679c44.616,18.995,198.93,95.94,276.52,278.607c0.525,1.239,0.915,2.529,1.155,3.853c0.452,2.493,11.51,63.913,42.578,309.312
	C1437.191,1584.679,1435.584,1589.904,1432.125,1593.834z"/>
<g>
	<path fill="#2F2F2F" d="M971.068,720.961c66.88,0,121.288-54.412,121.288-121.295s-54.408-121.295-121.288-121.295
		c-66.883,0-121.291,54.412-121.291,121.295S904.189,720.961,971.068,720.961z M971.068,514.815
		c32.95,0,61.548,18.894,75.598,46.401H895.472C909.521,533.709,938.119,514.815,971.068,514.815z M886.273,597.662h66.777
		c-0.076,0.67-0.204,1.33-0.204,2.008c0,4.811,1.968,9.476,5.357,12.864c3.39,3.427,8.054,5.357,12.864,5.357
		c4.812,0,9.477-1.931,12.902-5.357c3.389-3.389,5.32-8.09,5.32-12.864c0-0.678-0.124-1.338-0.2-2.008h66.773
		c0.015,0.666,0.052,1.33,0.052,2.004c-0.004,46.784-38.063,84.851-84.848,84.851c-46.783,0-84.846-38.063-84.846-84.851
		C886.223,598.995,886.259,598.328,886.273,597.662z"/>
	<path fill="#2F2F2F" d="M618.409,849.72v117.392c0,28.215,22.953,51.172,51.169,51.172h260.844c28.22,0,51.18-22.957,51.18-51.172
		V849.72c0-28.22-22.96-51.176-51.18-51.176H669.578C641.362,798.544,618.409,821.5,618.409,849.72z M891.153,981.838h-47.407
		V926.64h47.407V981.838z M708.851,834.988h47.41v55.203h-47.41V834.988z M690.628,926.636h83.855
		c10.062,0,18.222-8.16,18.222-18.223v-73.425h137.717c8.124,0,14.735,6.607,14.735,14.731v117.392
		c0,8.119-6.611,14.727-14.735,14.727h-2.82v-73.421c0-10.062-8.16-18.223-18.223-18.223h-83.852
		c-10.062,0-18.222,8.16-18.222,18.223v73.421H669.578c-8.12,0-14.724-6.607-14.724-14.727V849.72
		c0-8.124,6.607-14.731,14.724-14.731h2.828v73.425C672.406,918.476,680.565,926.636,690.628,926.636z"/>
	<path fill="#2F2F2F" d="M1436.531,1579.489c-31.068-245.399-42.126-306.819-42.578-309.312c-0.24-1.323-0.63-2.613-1.155-3.853
		c-77.59-182.667-231.903-259.612-276.52-278.607V836.038c17.69-3.404,33.224-11.939,46.347-25.508
		c47.09-48.679,45.221-147.866,45.002-155.498c-0.029-78.446-11.641-113.732-24.629-128.642V358.188
		c19.238-7.358,32.941-25.992,32.941-47.79v-58.665c0-10.062-8.159-18.222-18.222-18.222s-18.223,8.16-18.223,18.222v50.68
		c-9.071-53.453-35.573-101.024-73.457-136.67c10.671-9.377,17.438-23.081,17.438-38.373V68.702c0-10.062-8.16-18.222-18.223-18.222
		s-18.222,8.16-18.222,18.222v58.668c0,6.837-4.702,12.548-11.024,14.199c-33.894-23.084-73.885-37.8-117.002-41.317v-82.03
		C959.006,8.16,950.846,0,940.783,0s-18.222,8.16-18.222,18.222v81.144H677.465V18.222C677.465,8.16,669.305,0,659.242,0
		S641.02,8.16,641.02,18.222v82.03c-41.875,3.411-80.783,17.413-114.035,39.36c-7.777-0.39-14.002-6.782-14.002-14.658V66.285
		c0-10.062-8.159-18.222-18.222-18.222s-18.223,8.16-18.223,18.222v58.669c0,15.922,7.333,30.132,18.772,39.513
		c-38.609,35.789-65.622,83.87-74.799,137.968v-53.118c0-10.062-8.16-18.223-18.222-18.223c-10.062,0-18.223,8.16-18.223,18.223
		v58.668c0,21.79,13.714,40.402,32.946,47.764v170.648c-12.985,14.912-24.601,50.194-24.63,128.642
		c-0.219,7.62-2.099,106.812,44.995,155.498c13.123,13.568,28.66,22.104,46.354,25.508v151.678
		c-44.619,18.995-198.937,95.94-276.527,278.608c-0.525,1.235-0.911,2.529-1.155,3.852c-0.456,2.493-11.509,63.913-42.582,309.312
		c-0.656,5.189,0.947,10.412,4.406,14.338c3.459,3.925,8.441,6.173,13.67,6.173h1236.91c5.233,0,10.212-2.248,13.67-6.173
		C1435.584,1589.904,1437.191,1584.679,1436.531,1579.489z M453.454,371.33c14.25-17.705,75.965-86.348,198.028-117.975
		c-68.344,33.904-148.471,84.457-198.028,151.605V371.33z M463.607,785.23c-30.891-31.881-35.588-104.162-34.793-129.305
		c0.007-0.204,0.011-0.404,0.011-0.609c0-81.311,13.419-101.822,15.74-104.76c5.43-3.236,8.885-9.14,8.885-15.648v-55.283
		c57.991-156.314,332.691-242.338,335.476-243.191c8.623-2.649,14.014-11.207,12.672-20.125
		c-1.337-8.918-8.998-15.519-18.018-15.519c-174.457,0-278.801,69.978-328.325,115.646
		c13.243-101.76,100.423-180.626,205.736-180.626h278.018c110.256,0,200.675,86.432,207.136,195.095
		c-152.075-26.138-227.818,8.838-231.109,10.416c-7.584,3.634-11.698,11.987-9.953,20.216c1.746,8.229,8.896,14.195,17.305,14.436
		c98.188,2.806,194.333,46.452,224.163,61.198v97.74c0,6.509,3.458,12.413,8.885,15.649c2.325,2.938,15.74,23.448,15.74,104.76
		c0,0.2,0.004,0.404,0.011,0.605c0.835,25.099-3.786,97.252-34.761,129.275c-10.47,10.824-23.021,16.087-38.372,16.087
		c-10.062,0-18.223,8.16-18.223,18.223v36.48l-23.236-22.781c-7.188-7.048-18.726-6.928-25.771,0.255
		c-7.045,7.188-6.932,18.726,0.255,25.771l48.749,47.797v120.453c0,0.182,0.007,0.495,0.011,0.678
		c0.047,1.581,0.772,39.13-32.29,73.195c-35.857,36.943-96.774,55.676-181.057,55.676H733.505
		c-84.285,0-145.206-18.732-181.063-55.676c-4.633-4.771-8.579-9.61-11.979-14.41l47.83-52.364
		c6.786-7.431,6.265-18.958-1.167-25.744c-7.427-6.786-18.954-6.261-25.744,1.166l-37.822,41.408
		c-3.601-13.192-3.429-22.417-3.411-23.124c0.015-0.27,0.019-0.535,0.019-0.805V819.511c0-10.062-8.16-18.223-18.223-18.223
		C486.615,801.285,474.074,796.033,463.607,785.23z M1146.553,367.966v28.754c-23.951-11.035-61.988-26.783-107.11-38.999
		C1069.014,357.743,1104.751,360.408,1146.553,367.966z M983.045,1178.599c-24.439,41.474-98.357,72.562-183.047,72.562
		c-84.672,0-158.541-31.084-182.988-72.547c33.252,9.84,72.099,14.858,116.499,14.858h132.986
		C910.921,1193.476,949.785,1188.449,983.045,1178.599z M374.851,1099.703l53.985,71.749l-47.123,34.466l-1.418-15.194
		c-0.933-10.021-9.814-17.369-19.836-16.451c-10.02,0.937-17.389,9.815-16.451,19.837l3.44,36.871l-12.665,9.261l-25.904-72.937
		C330.217,1140.886,352.812,1118.483,374.851,1099.703z M743.713,1563.556l-10.547-20.687l157.987-51.394v19.785
		c0,10.062,8.16,18.223,18.223,18.223c10.062,0,18.222-8.16,18.222-18.223v-31.645l50.035-16.276l19.646,48.789l-17.165,6.374
		c-9.436,3.502-14.242,13.991-10.736,23.427c2.726,7.343,9.684,11.884,17.085,11.884c2.11,0,4.253-0.368,6.342-1.145l18.095-6.72
		l7.088,17.606H743.713z M1276.576,1429.301c-2.62,3.244-4.053,7.285-4.053,11.455v54.732l-33.816,1.279
		c-10.055,0.379-17.901,8.841-17.522,18.9c0.371,9.821,8.451,17.533,18.196,17.533c0.233,0,0.467-0.004,0.7-0.011l32.439-1.229
		v31.601h-108.816v-187.025l33.679-65.688c4.606-8.963,1.067-19.947-7.887-24.535c-8.958-4.596-19.942-1.054-24.527,7.901
		l-35.687,69.605c-1.319,2.572-2.008,5.423-2.008,8.312v191.425h-69.999l-12.202-30.3l13.222-4.909
		c9.436-3.502,14.243-13.99,10.737-23.426c-3.503-9.436-13.995-14.243-23.427-10.737l-14.151,5.256l-26.371-65.491
		c-3.579-8.889-13.427-13.478-22.541-10.521l-54.944,17.872v-17.741c0-10.062-8.16-18.222-18.222-18.222
		c-10.062,0-18.223,8.159-18.223,18.222v29.597l-189.552,61.661c-5.069,1.65-9.162,5.438-11.199,10.36
		c-2.037,4.928-1.818,10.496,0.604,15.245l11.798,23.135H472.727v-191.425c0-2.894-0.689-5.74-2.009-8.313l-35.687-69.605
		c-4.592-8.954-15.576-12.492-24.527-7.9c-8.954,4.592-12.493,15.572-7.9,24.527l33.678,65.688v187.025h-234.05
		c26.087-204.723,37.315-273.082,39.338-284.891c11.983-27.876,26.028-53.074,41.248-75.885l25.821,72.7
		c1.925,5.423,6.302,9.621,11.801,11.315c1.761,0.54,3.568,0.81,5.368,0.81c3.823,0,7.6-1.203,10.759-3.514l14.833-10.85
		l1.808,19.371c0.882,9.446,8.819,16.531,18.124,16.531c0.564,0,1.141-0.025,1.713-0.081c10.019-0.936,17.388-9.814,16.451-19.836
		l-3.83-41.048l79.602-58.22c3.937-2.876,6.553-7.213,7.268-12.038c0.714-4.821-0.532-9.73-3.466-13.627l-27.006-35.887
		l26.586-31.886c6.444-7.729,5.405-19.221-2.325-25.664c-7.726-6.443-19.221-5.404-25.668,2.325l-21.104,25.312l-16.159-21.474
		c32.144-23.798,61.062-39.688,80.327-49.058c-0.077,8.524,1.433,55.771,41.772,97.938c13.208,13.801,28.999,25.489,47.279,35.081
		c9.677,71.897,105.967,126.619,227.229,126.619c121.266,0,217.56-54.722,227.232-126.619c18.28-9.592,34.071-21.28,47.275-35.078
		c40.352-42.17,41.856-89.42,41.78-97.94c52.567,25.573,177.175,99.584,242.148,250.702c0.758,4.432,2.813,16.822,6.458,41.386
		l-34.211,42.319c-6.039-9.15-10.427-15.798-10.9-16.509c-5.587-8.368-16.902-10.627-25.274-5.037
		c-8.367,5.587-10.623,16.903-5.036,25.274c0.575,0.868,7.817,11.834,17.169,26.015L1276.576,1429.301z M1308.979,1563.559v-0.003
		v-32.979l29.141-1.101c10.056-0.38,17.901-8.842,17.522-18.896c-0.379-10.06-8.849-17.938-18.896-17.523l-27.764,1.05v-46.907
		l18.729-23.168c5.08,7.7,9.905,15.019,13.896,21.072c3.506,5.313,9.308,8.192,15.229,8.192c3.44,0,6.925-0.977,10.016-3.014
		c8.4-5.54,10.718-16.841,5.179-25.245c-0.868-1.316-9.936-15.066-20.282-30.745l20.238-25.033
		c6.166,43.927,14.606,106.56,25.788,194.3H1308.979z"/>
</g>
<path fill="#2F2F2F" d="M632.068,478.371c-66.883,0-121.291,54.412-121.291,121.295s54.412,121.295,121.291,121.295
	c66.88,0,121.288-54.412,121.288-121.295S698.948,478.371,632.068,478.371z M632.066,689.561c-49.647,0-89.894-40.247-89.894-89.895
	c0-49.647,40.247-89.894,89.894-89.894c49.647,0,89.895,40.247,89.895,89.894C721.961,649.313,681.714,689.561,632.066,689.561z"/>
<circle fill="#2F2F2F" cx="632.067" cy="599.666" r="17.189"/>
</svg>
